STARTFONT 2.1
FONT -FontForge-Source Serif Pro-Bold-R-Normal--50-480-75-75-P-242-ISO10646-1
SIZE 48 75 75
FONTBOUNDINGBOX 69 63 -10 -17
COMMENT "Generated by fontforge, http://fontforge.sourceforge.net"
COMMENT "Copyright 2014 Adobe Systems Incorporated. All Rights Reserved."
STARTPROPERTIES 41
FOUNDRY "FontForge"
FAMILY_NAME "Source Serif Pro"
WEIGHT_NAME "Bold"
SLANT "R"
SETWIDTH_NAME "Normal"
ADD_STYLE_NAME ""
PIXEL_SIZE 50
POINT_SIZE 480
RESOLUTION_X 75
RESOLUTION_Y 75
SPACING "P"
AVERAGE_WIDTH 242
CHARSET_REGISTRY "ISO10646"
CHARSET_ENCODING "1"
FONTNAME_REGISTRY ""
CHARSET_COLLECTIONS "ISO8859-2 ISO8859-9 ISO8859-4 ISO10646-1"
FONT_NAME "SourceSerifPro-Bold"
FACE_NAME "Source Serif Pro Bold"
COPYRIGHT "Copyright 2014 Adobe Systems Incorporated. All Rights Reserved."
FONT_VERSION "1.014;PS Version 1.0;hotconv 1.0.73;makeotf.lib2.5.5900"
FONT_ASCENT 36
FONT_DESCENT 14
UNDERLINE_POSITION -5
UNDERLINE_THICKNESS 3
X_HEIGHT 23
CAP_HEIGHT 32
DEFAULT_CHAR 1
RAW_ASCENT 730
RAW_DESCENT 270
NORM_SPACE 11
RELATIVE_WEIGHT 70
RELATIVE_SETWIDTH 50
SUPERSCRIPT_X 0
SUPERSCRIPT_Y 17
SUPERSCRIPT_SIZE 30
SUBSCRIPT_X 0
SUBSCRIPT_Y 3
SUBSCRIPT_SIZE 30
FIGURE_WIDTH 26
AVG_LOWERCASE_WIDTH 260
AVG_UPPERCASE_WIDTH 324
ENDPROPERTIES
CHARS 547
STARTCHAR NULL.dup1
ENCODING 0
SWIDTH 0 0
DWIDTH 0 0
BBX 1 1 0 0
BITMAP
00
ENDCHAR
STARTCHAR CR
ENCODING 13
SWIDTH 220 0
DWIDTH 11 0
BBX 1 1 0 0
BITMAP
00
ENDCHAR
STARTCHAR space
ENCODING 32
SWIDTH 220 0
DWIDTH 11 0
BBX 1 1 0 0
BITMAP
00
ENDCHAR
STARTCHAR exclam
ENCODING 33
SWIDTH 328 0
DWIDTH 16 0
BBX 8 35 4 -1
BITMAP
3C
7F
FF
FF
FF
FF
FF
FF
7F
7F
7F
7E
7E
7E
3E
3E
3C
3C
3C
1C
1C
1C
00
00
00
00
00
3C
7E
FF
FF
FF
FF
7F
3C
ENDCHAR
STARTCHAR quotedbl
ENCODING 34
SWIDTH 426 0
DWIDTH 21 0
BBX 17 16 2 21
BITMAP
781E00
7C3F00
FE3F80
FE3F80
FE3F80
FE3F80
FE3F80
FC3F00
7C1F00
7C1F00
7C1F00
7C1F00
781E00
380E00
380E00
380E00
ENDCHAR
STARTCHAR numbersign
ENCODING 35
SWIDTH 540 0
DWIDTH 27 0
BBX 25 33 1 0
BITMAP
00F03C00
00E03800
00E03800
00E03800
01E07800
01E07800
01E07800
01E07800
01C07000
7FFFFF80
7FFFFF80
7FFFFF80
7FFFFF80
7FFFFF80
0380E000
0380E000
0380E000
0781E000
0781E000
0781E000
FFFFFF00
FFFFFF00
FFFFFF00
FFFFFF00
FFFFFF00
0F03C000
0F03C000
0E038000
0E038000
0E038000
1E078000
1E078000
1E078000
ENDCHAR
STARTCHAR dollar
ENCODING 36
SWIDTH 528 0
DWIDTH 26 0
BBX 22 43 2 -6
BITMAP
003000
003000
003000
003000
01FE00
07FFC0
1FFFE0
3F31F0
3E31F0
7C31F8
7C31F8
7C31F8
FC30F8
FC3040
FE3000
7F3000
7FB000
7FF000
3FFE00
1FFF80
0FFFC0
07FFF0
01FFF0
003FF8
003FFC
003BFC
0039FC
0038FC
3038FC
7C38FC
FC38FC
FC38FC
7C38F8
7C39F8
3E3BF0
1FFFE0
0FFFC0
03FE00
003800
003800
003800
003800
003800
ENDCHAR
STARTCHAR percent
ENCODING 37
SWIDTH 880 0
DWIDTH 44 0
BBX 38 34 3 -1
BITMAP
07C0000600
1FE0000700
3CF0000F00
7878001E00
787C001C00
F83C003800
F83C007800
F83E00F000
F83E00E000
F83E01E000
F83E03C000
F83E038000
F83E078000
F83C0F0F80
F83C1E3FC0
787C1C79E0
78783CF0F0
3CF878F0F8
1FF071F078
07C0F1F078
0001E1F07C
0003C1F07C
000381F07C
000781F07C
000F01F07C
000E01F07C
001E01F078
003C01F078
003800F0F8
007000F0F0
00F00079F0
01E0003FE0
01C0000F80
00C0000000
ENDCHAR
STARTCHAR ampersand
ENCODING 38
SWIDTH 748 0
DWIDTH 37 0
BBX 34 35 2 -1
BITMAP
007F000000
01FFC00000
03FFE00000
07C3F00000
0F81F00000
0F80F80000
0F80F80000
0F80F80000
0F80F80000
0F80F80000
0FC0F1FFC0
0FE1E1FFC0
07E1E0FF80
03F3801C00
03FF001C00
01FC001C00
00FE003800
03FF003800
07BF807000
1F1FC07000
3E1FE0E000
7E0FF0E000
7E07F1C000
FC03F98000
FC01FF8000
FC00FF0000
FC00FF0000
FE007F0000
FE003F8000
FF003FC000
7F007FE000
3FC1EFE000
1FFFC7FE00
0FFF83FF80
03FC00FF80
ENDCHAR
STARTCHAR quotesingle
ENCODING 39
SWIDTH 218 0
DWIDTH 11 0
BBX 7 16 2 21
BITMAP
78
7C
FE
FE
FE
FE
FE
FC
7C
7C
7C
7C
78
38
38
38
ENDCHAR
STARTCHAR parenleft
ENCODING 40
SWIDTH 365 0
DWIDTH 18 0
BBX 14 45 3 -8
BITMAP
0010
003C
0078
00F8
01F0
03E0
07E0
07C0
0FC0
1F80
1F80
3F00
3F00
3F00
7E00
7E00
7E00
FE00
FC00
FC00
FC00
FC00
FC00
FC00
FC00
FC00
FC00
FC00
7E00
7E00
7E00
7E00
3F00
3F00
1F80
1F80
0FC0
07C0
07E0
03E0
01F0
00F0
0078
003C
0018
ENDCHAR
STARTCHAR parenright
ENCODING 41
SWIDTH 365 0
DWIDTH 18 0
BBX 13 45 2 -8
BITMAP
4000
E000
F000
7800
7C00
3E00
3F00
1F00
0F80
0FC0
07C0
07E0
07E0
03F0
03F0
03F0
01F8
01F8
01F8
01F8
01F8
01F8
01F8
01F8
01F8
01F8
01F8
01F8
01F8
03F0
03F0
03F0
07E0
07E0
07C0
0FC0
0F80
1F80
1F00
3E00
7C00
7800
F000
E000
4000
ENDCHAR
STARTCHAR asterisk
ENCODING 42
SWIDTH 434 0
DWIDTH 22 0
BBX 20 19 1 18
BITMAP
00E000
00F000
01F000
01F000
00F000
00F000
70F1E0
FCE3F0
FF6FF0
FFFFE0
3FFFC0
00F000
03F800
07BE00
0F9F00
1F9F00
1F1F80
1F0F80
1E0700
ENDCHAR
STARTCHAR plus
ENCODING 43
SWIDTH 530 0
DWIDTH 27 0
BBX 23 24 2 3
BITMAP
007800
007800
007800
007800
007800
007800
007800
007800
007800
007800
FFFFFE
FFFFFE
FFFFFE
007800
007800
007800
007800
007800
007800
007800
007800
007800
007800
007800
ENDCHAR
STARTCHAR comma
ENCODING 44
SWIDTH 300 0
DWIDTH 15 0
BBX 11 18 1 -11
BITMAP
0780
1FC0
1FC0
3FC0
3FE0
1FE0
1FE0
0FC0
03C0
03C0
0380
0780
0F00
1E00
3C00
F800
F000
8000
ENDCHAR
STARTCHAR hyphen
ENCODING 45
SWIDTH 330 0
DWIDTH 17 0
BBX 13 4 2 11
BITMAP
FFF8
FFF8
FFF8
FFF8
ENDCHAR
STARTCHAR period
ENCODING 46
SWIDTH 300 0
DWIDTH 15 0
BBX 9 8 3 -1
BITMAP
3C00
7F00
7F00
FF80
FF80
7F00
7F00
3E00
ENDCHAR
STARTCHAR slash
ENCODING 47
SWIDTH 368 0
DWIDTH 18 0
BBX 18 44 0 -8
BITMAP
0007C0
0007C0
000780
000F80
000F80
000F80
000F00
001F00
001F00
001E00
003E00
003E00
003C00
007C00
007C00
007C00
007800
00F800
00F800
00F000
01F000
01F000
01E000
03E000
03E000
03C000
07C000
07C000
07C000
078000
0F8000
0F8000
0F0000
1F0000
1F0000
1E0000
3E0000
3E0000
3E0000
3C0000
7C0000
7C0000
780000
F80000
ENDCHAR
STARTCHAR zero
ENCODING 48
SWIDTH 528 0
DWIDTH 26 0
BBX 23 34 2 -1
BITMAP
00FC00
03FF00
07FFC0
0F87E0
1F03E0
3F03F0
3F01F8
7E01F8
7E01F8
7E01FC
FE01FC
FE01FC
FE00FC
FE00FC
FE00FC
FE00FE
FE00FE
FE00FE
FE00FE
FE00FC
FE00FC
FE00FC
FE01FC
FE01FC
7E01FC
7E01F8
7E01F8
3F01F8
3F03F0
1F03E0
0F87E0
07FFC0
03FF00
00FC00
ENDCHAR
STARTCHAR one
ENCODING 49
SWIDTH 528 0
DWIDTH 26 0
BBX 20 32 3 0
BITMAP
001C00
01FC00
1FFC00
3FFC00
3FFC00
01FC00
01FC00
01FC00
01FC00
01FC00
01FC00
01FC00
01FC00
01FC00
01FC00
01FC00
01FC00
01FC00
01FC00
01FC00
01FC00
01FC00
01FC00
01FC00
01FC00
01FC00
01FC00
01FC00
01FC00
FFFFF0
FFFFF0
FFFFF0
ENDCHAR
STARTCHAR two
ENCODING 50
SWIDTH 528 0
DWIDTH 26 0
BBX 22 33 2 0
BITMAP
01FE00
07FF80
1FFFE0
3E1FF0
3E07F0
7E07F8
7E03F8
FE03F8
FC03F8
7C03F8
3003F8
0003F8
0003F0
0007F0
0007E0
000FC0
000F80
001F00
003E00
007C00
007800
00F000
01E000
03C000
078000
0F0000
1E0000
3FFFFC
7FFFFC
7FFFFC
7FFFFC
7FFFFC
7FFFFC
ENDCHAR
STARTCHAR three
ENCODING 51
SWIDTH 528 0
DWIDTH 26 0
BBX 23 34 2 -1
BITMAP
01FE00
07FF80
0FFFE0
1F0FF0
3F07F0
3E03F8
7E03F8
7E03F8
7E01F8
3C01F8
0003F8
0003F8
0003F0
0007E0
000FC0
01FF80
01FE00
01FFC0
000FF0
0003F8
0003FC
0001FC
0001FC
2001FE
F801FE
FC01FE
FC01FC
FC01FC
FC03FC
7C07F8
3E0FF0
1FFFE0
0FFFC0
01FE00
ENDCHAR
STARTCHAR four
ENCODING 52
SWIDTH 528 0
DWIDTH 26 0
BBX 25 32 1 0
BITMAP
0001F000
0003F000
0007F000
000FF000
000FF000
001FF000
003BF000
007BF000
0073F000
00E3F000
01C3F000
03C3F000
0383F000
0703F000
0E03F000
1E03F000
3C03F000
3803F000
7003F000
FFFFFF80
FFFFFF80
FFFFFF80
FFFFFF80
FFFFFF80
0003F000
0003F000
0003F000
0003F000
0003F000
0003F000
0003F000
0003F000
ENDCHAR
STARTCHAR five
ENCODING 53
SWIDTH 528 0
DWIDTH 26 0
BBX 23 33 2 -1
BITMAP
0FFFFC
0FFFFC
0FFFFC
0FFFFC
0FFFFC
1FFFFC
1C0000
1C0000
1C0000
1C0000
1C0000
1C0000
1FFE00
1FFFC0
1FFFE0
1FFFF0
080FF8
0003FC
0003FC
0001FC
0001FC
0001FE
3001FE
7801FE
FC01FC
FC01FC
FC01FC
FC03F8
7E07F8
3E0FF0
1FFFE0
0FFF80
01FC00
ENDCHAR
STARTCHAR six
ENCODING 54
SWIDTH 528 0
DWIDTH 26 0
BBX 23 34 2 -1
BITMAP
0000F0
000FF0
003FF0
007FC0
01FE00
03F800
07F000
0FE000
1FC000
1F8000
3F0000
7F0000
7E0000
7E3F80
FEFFE0
FFFFF0
FF87F8
FE01FC
FE01FC
FE00FC
FE00FE
FE00FE
FE00FE
FE00FE
FE00FE
FE00FE
7F00FC
7F00FC
7F01FC
3F81F8
1FC3F0
0FFFE0
07FFC0
00FE00
ENDCHAR
STARTCHAR seven
ENCODING 55
SWIDTH 528 0
DWIDTH 26 0
BBX 21 32 3 0
BITMAP
FFFFF8
FFFFF8
FFFFF8
FFFFF8
FFFFF8
FFFFF0
0000F0
0001F0
0001E0
0003E0
0003C0
0007C0
0007C0
000F80
000F80
001F00
001F00
003F00
003E00
007E00
007C00
00FC00
00FC00
01F800
01F800
03F000
03F000
07E000
07E000
0FE000
1FC000
1FC000
ENDCHAR
STARTCHAR eight
ENCODING 56
SWIDTH 528 0
DWIDTH 26 0
BBX 22 34 2 -1
BITMAP
00FE00
03FF80
0FFFE0
1F83E0
1F01F0
3E01F8
3E00F8
7E00F8
7E00F8
7E00F8
7F01F0
3F81F0
3FC3E0
1FF7C0
1FFF80
0FFF00
07FFC0
03FFE0
07FFF0
1F3FF8
3E0FF8
7C03FC
7C01FC
FC00FC
FC00FC
FC00FC
FC00FC
FC00FC
FC00FC
7E01F8
3F83F0
3FFFE0
0FFFC0
01FE00
ENDCHAR
STARTCHAR nine
ENCODING 57
SWIDTH 528 0
DWIDTH 26 0
BBX 23 34 2 -1
BITMAP
01FC00
07FF80
1FFFC0
3F87E0
3F03F0
7E03F8
FE01F8
FE01FC
FC01FC
FC01FC
FC01FC
FC01FC
FC00FE
FE00FE
FE00FE
FE00FE
7F00FC
3F83FC
3FFFFC
0FFFFC
03F9FC
0001F8
0003F8
0003F0
0007F0
0007E0
000FC0
001F80
007F00
01FE00
07F800
1FF000
1F8000
1C0000
ENDCHAR
STARTCHAR colon
ENCODING 58
SWIDTH 300 0
DWIDTH 15 0
BBX 9 25 3 -1
BITMAP
3C00
7F00
7F00
FF80
FF80
7F00
7F00
3E00
0000
0000
0000
0000
0000
0000
0000
0000
0000
3C00
7F00
7F00
FF80
FF80
7F00
7F00
3E00
ENDCHAR
STARTCHAR semicolon
ENCODING 59
SWIDTH 300 0
DWIDTH 15 0
BBX 11 35 1 -11
BITMAP
0F00
1FC0
1FC0
3FE0
3FE0
1FC0
1FC0
0F80
0000
0000
0000
0000
0000
0000
0000
0000
0000
0780
1FC0
1FC0
3FC0
3FE0
1FE0
1FE0
0FC0
03C0
03C0
0380
0780
0F00
1E00
3C00
F800
F000
8000
ENDCHAR
STARTCHAR less
ENCODING 60
SWIDTH 530 0
DWIDTH 27 0
BBX 21 25 2 4
BITMAP
000020
0000F0
0003F0
0007F8
001FF0
007FC0
01FF00
03FC00
0FF000
3FE000
FF8000
FE0000
F80000
FE0000
FF8000
3FE000
0FF000
03FC00
01FF00
007FC0
001FF0
0007F8
0001F0
0000F0
000020
ENDCHAR
STARTCHAR equal
ENCODING 61
SWIDTH 530 0
DWIDTH 27 0
BBX 23 13 2 9
BITMAP
FFFFFE
FFFFFE
FFFFFE
000000
000000
000000
000000
000000
000000
000000
FFFFFE
FFFFFE
FFFFFE
ENDCHAR
STARTCHAR greater
ENCODING 62
SWIDTH 530 0
DWIDTH 27 0
BBX 22 25 3 4
BITMAP
200000
380000
7E0000
7F8000
BFE000
0FF000
07FC00
01FF00
007FC0
001FE0
0007F8
0001FC
00007C
0001FC
0007F8
001FE0
007FC0
01FF00
07FC00
0FF000
3FE000
FF8000
7E0000
380000
200000
ENDCHAR
STARTCHAR question
ENCODING 63
SWIDTH 471 0
DWIDTH 24 0
BBX 16 35 4 -1
BITMAP
7800
FF80
FFE0
FFF0
FFF8
FFFC
3FCE
000E
000F
000F
001F
007F
01FF
07FF
1FFE
3FFE
3FFC
3FF0
3FC0
3E00
3C00
3800
3800
0000
0000
0000
0000
3C00
7E00
FF00
FF00
FF00
FF00
7E00
3C00
ENDCHAR
STARTCHAR at
ENCODING 64
SWIDTH 929 0
DWIDTH 46 0
BBX 43 43 2 -9
BITMAP
00001FF80000
0001FFFF8000
0007FFFFE000
001FE00FF000
007F0001FC00
00FC00007E00
01F800003E00
03E000001F00
07C000000F80
0F8000000F80
0F8007E307C0
1F001FFF07C0
3E007FFF03C0
3E00FC3F03C0
7C01F03E03E0
7C03E03E03E0
7807E07E03E0
7807C07E03E0
F80FC07E03E0
F80F807C03E0
F81F807C03C0
F01F80FC03C0
F01F80FC03C0
F01F80FC07C0
F01F80FC0780
F01F80F80780
F01F80F80F00
F81F81F81E00
F81FC3FC3C00
F80FFFFFF800
7807FC7FF000
7C03F03F8000
7C0000000000
3E0000000000
3F0000000000
1F0000000000
0FC000000000
07E000000000
03F800080000
01FF007C0000
00FFFFFC0000
001FFFF00000
0003FF000000
ENDCHAR
STARTCHAR A
ENCODING 65
SWIDTH 673 0
DWIDTH 34 0
BBX 33 33 0 0
BITMAP
0000E00000
0001E00000
0001F00000
0003F00000
0003F00000
0003F80000
0007F80000
0007FC0000
0007FC0000
000EFC0000
000EFE0000
000CFE0000
001C7E0000
00187F0000
00387F0000
00383F8000
00303F8000
00703F8000
00701FC000
00601FC000
00FFFFC000
00FFFFE000
01FFFFE000
01C00FF000
01C007F000
038007F000
038003F800
030003F800
070003F800
070001FC00
7FE00FFF00
FFF01FFF80
FFF01FFF80
ENDCHAR
STARTCHAR B
ENCODING 66
SWIDTH 636 0
DWIDTH 32 0
BBX 29 33 2 0
BITMAP
FFFFF000
FFFFFE00
FFFFFF00
0FE07F80
0FE03FC0
0FE01FC0
0FE00FE0
0FE00FE0
0FE00FE0
0FE00FE0
0FE01FC0
0FE01FC0
0FE03F80
0FE0FF80
0FFFFE00
0FFFF800
0FFFFF00
0FE07FC0
0FE01FE0
0FE00FF0
0FE007F0
0FE007F0
0FE007F0
0FE007F8
0FE007F8
0FE007F0
0FE007F0
0FE00FF0
0FE01FE0
0FE07FC0
FFFFFF80
FFFFFE00
FFFFE000
ENDCHAR
STARTCHAR C
ENCODING 67
SWIDTH 622 0
DWIDTH 31 0
BBX 27 35 2 -1
BITMAP
0007FC00
007FFF80
01FFFFE0
03FE07E0
07F803E0
0FE003E0
1FC003E0
3FC003E0
3F8001E0
7F8001E0
7F000000
FF000000
FF000000
FE000000
FE000000
FE000000
FE000000
FE000000
FE000000
FE000000
FE000000
FE000000
FF000000
FF000000
7F000000
7F8001E0
7F8001E0
3FC001E0
1FC001E0
1FE001E0
0FF003E0
07FE07E0
01FFFFE0
007FFF80
000FFC00
ENDCHAR
STARTCHAR D
ENCODING 68
SWIDTH 692 0
DWIDTH 35 0
BBX 31 33 2 0
BITMAP
FFFFE000
FFFFFC00
FFFFFF00
0FE0FFC0
0FE03FE0
0FE00FF0
0FE007F0
0FE007F8
0FE003FC
0FE003FC
0FE001FC
0FE001FE
0FE001FE
0FE001FE
0FE001FE
0FE001FE
0FE001FE
0FE001FE
0FE001FE
0FE001FE
0FE001FE
0FE001FC
0FE001FC
0FE003FC
0FE003F8
0FE007F8
0FE007F0
0FE00FE0
0FE03FC0
0FE0FF80
FFFFFF00
FFFFFC00
FFFFE000
ENDCHAR
STARTCHAR E
ENCODING 69
SWIDTH 598 0
DWIDTH 30 0
BBX 27 33 2 0
BITMAP
FFFFFF80
FFFFFF80
FFFFFF80
0FE00780
0FE00780
0FE007C0
0FE007C0
0FE003C0
0FE003C0
0FE03800
0FE03800
0FE03800
0FE03800
0FE03800
0FFFF800
0FFFF800
0FFFF800
0FE03800
0FE03800
0FE03800
0FE03800
0FE03800
0FE00000
0FE00000
0FE001E0
0FE001E0
0FE003E0
0FE003E0
0FE003C0
0FE003C0
FFFFFFC0
FFFFFFC0
FFFFFFC0
ENDCHAR
STARTCHAR F
ENCODING 70
SWIDTH 583 0
DWIDTH 29 0
BBX 26 33 2 0
BITMAP
FFFFFF80
FFFFFF80
FFFFFF80
0FE00780
0FE00780
0FE007C0
0FE007C0
0FE003C0
0FE003C0
0FE03800
0FE03800
0FE03800
0FE03800
0FE03800
0FFFF800
0FFFF800
0FFFF800
0FE03800
0FE03800
0FE03800
0FE03800
0FE03800
0FE00000
0FE00000
0FE00000
0FE00000
0FE00000
0FE00000
0FE00000
0FE00000
FFFF0000
FFFF0000
FFFF0000
ENDCHAR
STARTCHAR G
ENCODING 71
SWIDTH 674 0
DWIDTH 34 0
BBX 31 35 2 -1
BITMAP
0007FC00
003FFF80
00FFFFE0
03FE07E0
07F001E0
0FE001E0
1FC001E0
3FC001E0
3F8001E0
7F0001E0
7F000000
FF000000
FF000000
FE000000
FE000000
FE000000
FE000000
FE000000
FE007FFE
FE007FFE
FE007FFE
FE000FF0
FF000FF0
FF000FF0
7F000FF0
7F800FF0
3F800FF0
3FC00FF0
1FC00FF0
0FE00FF0
07F80FF0
03FE0FF0
01FFFFE0
007FFF80
000FF800
ENDCHAR
STARTCHAR H
ENCODING 72
SWIDTH 795 0
DWIDTH 40 0
BBX 36 33 2 0
BITMAP
FFFE07FFF0
FFFE07FFF0
FFFE07FFF0
0FE0007F00
0FE0007F00
0FE0007F00
0FE0007F00
0FE0007F00
0FE0007F00
0FE0007F00
0FE0007F00
0FE0007F00
0FE0007F00
0FE0007F00
0FE0007F00
0FFFFFFF00
0FFFFFFF00
0FFFFFFF00
0FE0007F00
0FE0007F00
0FE0007F00
0FE0007F00
0FE0007F00
0FE0007F00
0FE0007F00
0FE0007F00
0FE0007F00
0FE0007F00
0FE0007F00
0FE0007F00
FFFE07FFF0
FFFE07FFF0
FFFE07FFF0
ENDCHAR
STARTCHAR I
ENCODING 73
SWIDTH 376 0
DWIDTH 19 0
BBX 15 33 2 0
BITMAP
FFFE
FFFE
FFFE
0FE0
0FE0
0FE0
0FE0
0FE0
0FE0
0FE0
0FE0
0FE0
0FE0
0FE0
0FE0
0FE0
0FE0
0FE0
0FE0
0FE0
0FE0
0FE0
0FE0
0FE0
0FE0
0FE0
0FE0
0FE0
0FE0
0FE0
FFFE
FFFE
FFFE
ENDCHAR
STARTCHAR J
ENCODING 74
SWIDTH 390 0
DWIDTH 20 0
BBX 21 42 -3 -9
BITMAP
07FFF8
07FFF8
07FFF8
007F80
007F80
007F80
007F80
007F80
007F80
007F80
007F80
007F80
007F80
007F80
007F80
007F80
007F80
007F80
007F80
007F80
007F80
007F80
007F80
007F80
007F80
007F80
007F80
007F80
007F80
003F80
003F00
003F00
003F00
003F00
007F00
007E00
787E00
FE7C00
FF7C00
FFF800
7FE000
1F8000
ENDCHAR
STARTCHAR K
ENCODING 75
SWIDTH 701 0
DWIDTH 35 0
BBX 33 33 2 0
BITMAP
FFFE1FFE00
FFFE1FFE00
FFFE1FFE00
0FE0038000
0FE0070000
0FE00F0000
0FE01E0000
0FE01C0000
0FE0380000
0FE0700000
0FE0E00000
0FE1E00000
0FE1F00000
0FE3F00000
0FE7F80000
0FEFF80000
0FFFFC0000
0FFDFC0000
0FF9FE0000
0FF0FE0000
0FE0FF0000
0FE07F0000
0FE07F8000
0FE03FC000
0FE03FC000
0FE01FE000
0FE01FE000
0FE00FF000
0FE00FF000
0FE007F800
FFFE3FFF80
FFFE3FFF80
FFFE3FFF80
ENDCHAR
STARTCHAR L
ENCODING 76
SWIDTH 580 0
DWIDTH 29 0
BBX 26 33 2 0
BITMAP
FFFE0000
FFFE0000
FFFE0000
0FE00000
0FE00000
0FE00000
0FE00000
0FE00000
0FE00000
0FE00000
0FE00000
0FE00000
0FE00000
0FE00000
0FE00000
0FE00000
0FE00000
0FE00000
0FE00000
0FE00000
0FE00000
0FE00000
0FE00000
0FE003C0
0FE003C0
0FE003C0
0FE007C0
0FE007C0
0FE007C0
0FE007C0
FFFFFFC0
FFFFFFC0
FFFFFFC0
ENDCHAR
STARTCHAR M
ENCODING 77
SWIDTH 915 0
DWIDTH 46 0
BBX 43 33 1 0
BITMAP
FFE00000FFE0
FFE00000FFE0
FFF00001FFE0
0FF00001FE00
0FF00001FE00
0FF80003FE00
0FF80003FE00
0FFC0007FE00
0FFC0007FE00
0EFE000EFE00
0EFE000EFE00
0E7F001CFE00
0E7F001CFE00
0E7F8038FE00
0E3F8038FE00
0E3FC078FE00
0E1FC070FE00
0E1FE070FE00
0E0FE0E0FE00
0E0FF0E0FE00
0E07F1C0FE00
0E07F9C0FE00
0E03FB80FE00
0E03FF80FE00
0E01FF00FE00
0E01FF00FE00
0E01FE00FE00
0E00FE00FE00
0E00FE00FE00
0E007C00FE00
7FE07C07FFC0
FFF0380FFFE0
FFF0380FFFE0
ENDCHAR
STARTCHAR N
ENCODING 78
SWIDTH 761 0
DWIDTH 38 0
BBX 36 34 1 -1
BITMAP
7FE003FFF0
7FF003FFF0
3FF800FFE0
07F8000E00
07FC000E00
07FE000E00
07FF000E00
07FF000E00
077F800E00
077FC00E00
073FE00E00
071FF00E00
070FF00E00
0707F80E00
0707FC0E00
0703FE0E00
0701FE0E00
0700FF0E00
0700FF8E00
07007FCE00
07003FEE00
07001FEE00
07000FFE00
07000FFE00
070007FE00
070003FE00
070001FE00
070000FE00
070000FE00
0700007E00
7FF0003E00
FFFC001E00
FFFC001E00
0000000E00
ENDCHAR
STARTCHAR O
ENCODING 79
SWIDTH 708 0
DWIDTH 35 0
BBX 32 35 2 -1
BITMAP
000FF000
007FFC00
01FFFF00
03F83FC0
07E00FE0
0FE007F0
1FC003F8
3F8003F8
3F8001FC
7F0001FC
7F0001FE
FF0000FE
FF0000FE
FF0000FE
FE0000FF
FE0000FF
FE0000FF
FE0000FF
FE0000FF
FE0000FF
FE0000FF
FE0000FE
FF0000FE
FF0000FE
7F0001FE
7F0001FC
3F8001FC
3F8003F8
1FC003F8
0FC007F0
07E00FE0
03F83FC0
01FFFF00
007FFE00
000FF000
ENDCHAR
STARTCHAR P
ENCODING 80
SWIDTH 604 0
DWIDTH 30 0
BBX 27 33 2 0
BITMAP
FFFFE000
FFFFFC00
FFFFFF00
0FE0FF80
0FE03FC0
0FE01FC0
0FE00FE0
0FE00FE0
0FE00FE0
0FE00FE0
0FE00FE0
0FE00FE0
0FE00FE0
0FE01FE0
0FE01FC0
0FE03F80
0FE0FF00
0FFFFE00
0FFFF800
0FFFC000
0FE00000
0FE00000
0FE00000
0FE00000
0FE00000
0FE00000
0FE00000
0FE00000
0FE00000
0FE00000
FFFF0000
FFFF0000
FFFF0000
ENDCHAR
STARTCHAR Q
ENCODING 81
SWIDTH 708 0
DWIDTH 35 0
BBX 32 44 2 -10
BITMAP
000FE000
007FFC00
01FFFF00
03F83FC0
0FE00FE0
1FC007F0
1FC003F0
3F8003F8
7F8001FC
7F0001FC
7F0001FE
FF0001FE
FF0000FE
FE0000FE
FE0000FF
FE0000FF
FE0000FF
FE0000FF
FE0000FF
FE0000FF
FE0000FF
FE0000FE
FF0000FE
FF0001FE
7F0001FE
7F0001FC
3F8001FC
3F8003F8
1FC003F8
0FC007F0
07E00FE0
03F83FC0
00FFFF80
003FFE00
000FF800
000FE000
000FE000
000FE000
0007E000
0007F000
0003FC10
0001FFF8
00007FF8
00001FC0
ENDCHAR
STARTCHAR R
ENCODING 82
SWIDTH 671 0
DWIDTH 34 0
BBX 31 34 2 -1
BITMAP
FFFFF000
FFFFFE00
FFFFFF00
0FE07F80
0FE03FC0
0FE01FE0
0FE00FE0
0FE00FE0
0FE00FE0
0FE00FE0
0FE00FE0
0FE00FC0
0FE01FC0
0FE03F80
0FE0FF00
0FFFFE00
0FFFF000
0FFFFC00
0FE1FE00
0FE07F00
0FE07F80
0FE03F80
0FE03F80
0FE03FC0
0FE03FC0
0FE01FC0
0FE01FC0
0FE01FE0
0FE01FE0
0FE01FE0
FFFE0FFE
FFFE0FFE
FFFE07FE
000003FE
ENDCHAR
STARTCHAR S
ENCODING 83
SWIDTH 534 0
DWIDTH 27 0
BBX 23 35 2 -1
BITMAP
00FF00
07FFE0
1FFFF8
3F81F8
7F00F8
7E00F8
FC00F8
FC0078
FC0078
FC0078
FE0000
FF0000
FF8000
7FF000
7FFC00
3FFF80
3FFFE0
0FFFF0
07FFF8
01FFFC
007FFC
000FFE
0003FE
0001FE
0000FE
F0007E
F0007E
F8007E
F8007E
F800FC
F801F8
FE07F0
FFFFE0
3FFFC0
03FE00
ENDCHAR
STARTCHAR T
ENCODING 84
SWIDTH 644 0
DWIDTH 32 0
BBX 30 33 1 0
BITMAP
FFFFFFFC
FFFFFFFC
FFFFFFFC
F81FE03C
F81FE03C
F01FE03C
F01FE03C
F01FE03C
F01FE03C
001FE000
001FE000
001FE000
001FE000
001FE000
001FE000
001FE000
001FE000
001FE000
001FE000
001FE000
001FE000
001FE000
001FE000
001FE000
001FE000
001FE000
001FE000
001FE000
001FE000
001FE000
01FFFE00
01FFFE00
01FFFE00
ENDCHAR
STARTCHAR U
ENCODING 85
SWIDTH 750 0
DWIDTH 38 0
BBX 35 34 2 -1
BITMAP
FFFE01FFE0
FFFE01FFE0
FFFE01FFE0
0FE0001C00
0FE0001C00
0FE0001C00
0FE0001C00
0FE0001C00
0FE0001C00
0FE0001C00
0FE0001C00
0FE0001C00
0FE0001C00
0FE0001C00
0FE0001C00
0FE0001C00
0FE0001C00
0FE0001C00
0FE0001C00
0FE0001C00
0FE0001C00
0FE0001C00
0FE0001C00
0FE0001C00
0FF0003800
0FF0003800
07F0003800
07F8007000
03FC00F000
03FF03E000
01FFFFC000
00FFFF8000
003FFF0000
0007F80000
ENDCHAR
STARTCHAR V
ENCODING 86
SWIDTH 650 0
DWIDTH 33 0
BBX 32 34 0 -1
BITMAP
FFFE07FF
FFFE07FF
FFFE07FF
1FE00030
0FE00070
0FF00070
07F00060
07F800E0
07F800E0
03F800C0
03FC01C0
01FC01C0
01FC0180
01FE0380
00FE0380
00FF0700
00FF0700
007F0700
007F8E00
003F8E00
003F8C00
003FDC00
001FDC00
001FF800
000FF800
000FF800
000FF000
0007F000
0007F000
0007E000
0003E000
0003E000
0001C000
0001C000
ENDCHAR
STARTCHAR W
ENCODING 87
SWIDTH 987 0
DWIDTH 49 0
BBX 49 34 0 -1
BITMAP
FFFE0FFFC3FF80
FFFE0FFFC3FF80
FFFE0FFFC3FF80
1FE001FC003800
0FE001FC003800
0FF001FE003000
0FF003FE007000
07F003FE007000
07F003FF006000
07F807FF006000
03F8077F00E000
03F8067F80E000
03FC0E3F80C000
01FC0E3F81C000
01FC1C3FC1C000
01FE1C1FC18000
00FE1C1FC38000
00FE381FE38000
00FE380FE30000
00FF380FE70000
007F700FF70000
007F7007F70000
007FF007F60000
003FE007FE0000
003FE003FE0000
003FE003FC0000
001FC003FC0000
001FC001FC0000
001F8001F80000
000F8000F80000
000F8000F80000
000F0000F00000
00070000700000
00070000700000
ENDCHAR
STARTCHAR X
ENCODING 88
SWIDTH 652 0
DWIDTH 33 0
BBX 30 33 1 0
BITMAP
7FFE1FFC
7FFE1FFC
7FFE1FFC
07F003C0
07F80380
03FC0700
03FC0F00
01FE0E00
01FE1C00
00FF3C00
00FF3800
007FF000
007FE000
003FE000
003FC000
001FE000
000FE000
000FF000
001FF800
001FF800
003BFC00
0073FC00
0071FE00
00E1FE00
01E0FF00
01C0FF00
03807F80
07807F80
07003FC0
0E001FE0
FFE1FFFC
FFE1FFFC
FFE1FFFC
ENDCHAR
STARTCHAR Y
ENCODING 89
SWIDTH 606 0
DWIDTH 30 0
BBX 30 33 0 0
BITMAP
FFFE0FFC
FFFE0FFC
FFFE0FFC
0FF001C0
0FF001C0
07F80380
07F80380
03F80700
03FC0700
01FC0E00
01FE0E00
00FE0C00
00FF1C00
007F1800
007FB800
003FB000
003FF000
001FE000
001FE000
001FE000
001FE000
001FE000
001FE000
001FE000
001FE000
001FE000
001FE000
001FE000
001FE000
001FE000
01FFFE00
01FFFE00
01FFFE00
ENDCHAR
STARTCHAR Z
ENCODING 90
SWIDTH 569 0
DWIDTH 28 0
BBX 26 33 1 0
BITMAP
7FFFFFC0
7FFFFFC0
7FFFFF80
7C007F80
7800FF00
7800FE00
7801FE00
7803FC00
7803FC00
8007F800
0007F000
000FF000
001FE000
001FE000
003FC000
007F8000
007F8000
00FF0000
00FE0000
01FE0000
03FC0000
03FC0000
07F80000
0FF00000
0FF003C0
1FE003C0
1FC003C0
3FC003C0
7F8007C0
7F8007C0
FFFFFFC0
FFFFFFC0
FFFFFFC0
ENDCHAR
STARTCHAR bracketleft
ENCODING 91
SWIDTH 339 0
DWIDTH 17 0
BBX 11 44 5 -8
BITMAP
FFE0
FFE0
FFE0
FC00
FC00
FC00
FC00
FC00
FC00
FC00
FC00
FC00
FC00
FC00
FC00
FC00
FC00
FC00
FC00
FC00
FC00
FC00
FC00
FC00
FC00
FC00
FC00
FC00
FC00
FC00
FC00
FC00
FC00
FC00
FC00
FC00
FC00
FC00
FC00
FC00
FC00
FFE0
FFE0
FFE0
ENDCHAR
STARTCHAR backslash
ENCODING 92
SWIDTH 368 0
DWIDTH 18 0
BBX 18 44 0 -8
BITMAP
F80000
780000
7C0000
7C0000
3C0000
3E0000
3E0000
3E0000
1E0000
1F0000
1F0000
0F0000
0F8000
0F8000
078000
07C000
07C000
03C000
03C000
03E000
03E000
01E000
01F000
01F000
00F000
00F800
00F800
007800
007C00
007C00
007C00
003C00
003E00
003E00
001E00
001F00
001F00
000F00
000F80
000F80
000F80
000780
0007C0
0007C0
ENDCHAR
STARTCHAR bracketright
ENCODING 93
SWIDTH 339 0
DWIDTH 17 0
BBX 11 44 1 -8
BITMAP
FFE0
FFE0
FFE0
07E0
07E0
07E0
07E0
07E0
07E0
07E0
07E0
07E0
07E0
07E0
07E0
07E0
07E0
07E0
07E0
07E0
07E0
07E0
07E0
07E0
07E0
07E0
07E0
07E0
07E0
07E0
07E0
07E0
07E0
07E0
07E0
07E0
07E0
07E0
07E0
07E0
07E0
FFE0
FFE0
FFE0
ENDCHAR
STARTCHAR asciicircum
ENCODING 94
SWIDTH 530 0
DWIDTH 27 0
BBX 20 16 3 9
BITMAP
00F800
01F800
01FC00
03FC00
03FE00
07DF00
0F8F00
0F0F80
1F0780
1E07C0
3E03E0
7C03E0
7801F0
F800F0
7000E0
100040
ENDCHAR
STARTCHAR underscore
ENCODING 95
SWIDTH 530 0
DWIDTH 27 0
BBX 23 4 2 -4
BITMAP
FFFFFE
FFFFFE
FFFFFE
FFFFFE
ENDCHAR
STARTCHAR grave
ENCODING 96
SWIDTH 400 0
DWIDTH 20 0
BBX 10 11 5 27
BITMAP
7000
F800
FC00
FE00
7E00
3F00
1F00
0F80
0780
01C0
0080
ENDCHAR
STARTCHAR a
ENCODING 97
SWIDTH 534 0
DWIDTH 27 0
BBX 25 26 2 -1
BITMAP
00FF0000
07FFC000
0FFFE000
1F0FE000
3F07F000
7F07F000
7F03F000
7E03F000
3E03F800
3C03F800
000FF800
007FF800
03FFF800
0FF3F800
1FC3F800
3F03F800
7E03F800
7E03F800
FE03F800
FE03F800
FE03F800
FE07F800
7F0FF900
7FFFFF80
3FF1FF00
0FC07C00
ENDCHAR
STARTCHAR b
ENCODING 98
SWIDTH 599 0
DWIDTH 30 0
BBX 27 37 1 -1
BITMAP
00E00000
1FE00000
FFE00000
FFE00000
FFE00000
0FC00000
0FC00000
0FC00000
0FC00000
0FC00000
0FC00000
0FC3F800
0FCFFE00
0FDFFF00
0FF87F80
0FF03F80
0FE01FC0
0FE01FC0
0FE00FE0
0FE00FE0
0FE00FE0
0FE00FE0
0FE00FE0
0FE00FE0
0FE00FE0
0FE00FE0
0FE00FE0
0FE00FE0
0FE00FE0
0FE00FE0
0FE01FC0
0FE01FC0
0FE03F80
0FF87F00
3FFFFE00
7FCFFC00
3FC3F000
ENDCHAR
STARTCHAR c
ENCODING 99
SWIDTH 510 0
DWIDTH 26 0
BBX 22 26 2 -1
BITMAP
007F00
03FFC0
07FFE0
0FF1F0
1FC1F8
3F80FC
7F00FC
7F00FC
FF00FC
FE0078
FE0000
FE0000
FE0000
FE0000
FE0000
FE0000
FE0000
FF0000
7F0000
7F0008
7F801C
3FC038
1FF078
0FFFF0
07FFE0
00FF00
ENDCHAR
STARTCHAR d
ENCODING 100
SWIDTH 592 0
DWIDTH 30 0
BBX 26 37 2 -1
BITMAP
00000700
0000FF00
0007FF00
0007FF00
0007FF00
00007F00
00007F00
00007F00
00007F00
00007F00
00007F00
01FC7F00
07FF7F00
0FFFFF00
1FE3FF00
3F80FF00
7F807F00
7F007F00
7F007F00
FE007F00
FE007F00
FE007F00
FE007F00
FE007F00
FE007F00
FE007F00
FE007F00
FE007F00
FE007F00
FF007F00
7F007F00
7F007F00
3F80FF00
3FC3FF00
1FFFFF00
0FFE7FC0
01F87FC0
ENDCHAR
STARTCHAR e
ENCODING 101
SWIDTH 527 0
DWIDTH 26 0
BBX 23 26 2 -1
BITMAP
007F00
03FFC0
07FFE0
1FE3F0
1F81F8
3F80F8
7F00FC
7F00FC
FE00FC
FE00FE
FE01FE
FFFFFE
FFFFFE
FFFFFC
FE0000
FE0000
FE0000
FE0000
7F0000
7F0008
7F800C
3FC01C
1FF078
0FFFF0
07FFE0
00FF00
ENDCHAR
STARTCHAR f
ENCODING 102
SWIDTH 353 0
DWIDTH 18 0
BBX 21 37 1 0
BITMAP
000FC0
003FF0
007FF8
00FBF8
01F3F8
03E1F8
07E070
07E000
07E000
0FC000
0FC000
0FC000
0FC000
FFFF00
FFFF00
FFFF00
0FE000
0FE000
0FE000
0FE000
0FE000
0FE000
0FE000
0FE000
0FE000
0FE000
0FE000
0FE000
0FE000
0FE000
0FE000
0FE000
0FE000
0FE000
7FFC00
7FFC00
7FFC00
ENDCHAR
STARTCHAR g
ENCODING 103
SWIDTH 544 0
DWIDTH 27 0
BBX 25 35 1 -10
BITMAP
00FE0180
03FFCF80
0FFFFF80
1FC3FF80
1F81F800
3F01F800
3F01F800
3F00FC00
3F00FC00
3F00FC00
3F01F800
3F01F800
1F81F800
0FC3F000
07FFE000
07FFC000
0FFE0000
1E000000
1E000000
3F000000
3FFFF000
3FFFFC00
1FFFFF00
1FFFFF00
0FFFFF80
0FFFFF80
1E003F80
7C001F80
7C001F80
7C001F00
FE003F00
7F00FE00
7FFFF800
3FFFF000
07FF0000
ENDCHAR
STARTCHAR h
ENCODING 104
SWIDTH 619 0
DWIDTH 31 0
BBX 29 36 1 0
BITMAP
00E00000
1FE00000
FFE00000
FFE00000
FFE00000
0FC00000
0FC00000
0FC00000
0FC00000
0FC00000
0FC00000
0FC1FC00
0FC3FE00
0FCFFF00
0FDFFF80
0FFC3F80
0FF01FC0
0FE01FC0
0FE01FC0
0FE01FC0
0FE01FC0
0FE01FC0
0FE01FC0
0FE01FC0
0FE01FC0
0FE01FC0
0FE01FC0
0FE01FC0
0FE01FC0
0FE01FC0
0FE01FC0
0FE01FC0
0FE01FC0
7FF87FF0
7FF8FFF8
7FF8FFF8
ENDCHAR
STARTCHAR i
ENCODING 105
SWIDTH 309 0
DWIDTH 15 0
BBX 13 37 2 0
BITMAP
0F00
1FC0
3FC0
3FC0
3FC0
3FC0
1FC0
0F00
0000
0000
0000
0000
00C0
07C0
3FC0
FFC0
FFC0
FFC0
1FC0
1FC0
1FC0
1FC0
1FC0
1FC0
1FC0
1FC0
1FC0
1FC0
1FC0
1FC0
1FC0
1FC0
1FC0
1FC0
7FF0
FFF8
FFF8
ENDCHAR
STARTCHAR j
ENCODING 106
SWIDTH 309 0
DWIDTH 15 0
BBX 17 49 -5 -12
BITMAP
001E00
003F80
007F80
007F80
007F80
007F80
003F80
001E00
000000
000000
000000
000000
000180
000F80
007F80
03FF80
03FF80
03FF80
003F80
003F80
003F80
003F80
003F80
003F80
003F80
003F80
003F80
003F80
003F80
003F80
003F80
003F80
003F80
003F80
003F80
003F80
003F80
003F80
003F00
003F00
003F00
003F00
103E00
7C3E00
FE7C00
FF7800
FFF000
7FE000
1F8000
ENDCHAR
STARTCHAR k
ENCODING 107
SWIDTH 590 0
DWIDTH 30 0
BBX 29 36 1 0
BITMAP
00E00000
1FE00000
FFE00000
FFC00000
FFC00000
0FC00000
0FC00000
0FC00000
0FC00000
0FC00000
0FC00000
0FC00000
0FC0FFE0
0FC0FFE0
0FC0FFC0
0FC01C00
0FC03800
0FC07000
0FC0E000
0FC1C000
0FC3C000
0FCFC000
0FDFE000
0FFFF000
0FFFF000
0FE7F800
0FC3F800
0FC1FC00
0FC1FE00
0FC0FE00
0FC0FF00
0FC07F00
0FC07F80
7FF83FF0
7FF83FF8
7FF81FF8
ENDCHAR
STARTCHAR l
ENCODING 108
SWIDTH 309 0
DWIDTH 15 0
BBX 13 36 1 0
BITMAP
00E0
1FE0
FFE0
FFE0
FFE0
0FE0
0FC0
0FC0
0FC0
0FC0
0FC0
0FC0
0FC0
0FC0
0FC0
0FC0
0FC0
0FC0
0FC0
0FC0
0FC0
0FC0
0FC0
0FC0
0FC0
0FC0
0FC0
0FC0
0FC0
0FC0
0FC0
0FE0
0FE0
7FF8
7FF8
7FF8
ENDCHAR
STARTCHAR m
ENCODING 109
SWIDTH 917 0
DWIDTH 46 0
BBX 43 25 2 0
BITMAP
0181F807F000
0F87FC0FF800
3F9FFE3FFC00
FFFFFF7FFE00
FFF87FF0FE00
FFF03FE07F00
1FC03F807F00
1FC03F807F00
1FC03F807F00
1FC03F807F00
1FC03F807F00
1FC03F807F00
1FC03F807F00
1FC03F807F00
1FC03F807F00
1FC03F807F00
1FC03F807F00
1FC03F807F00
1FC03F807F00
1FC03F807F00
1FC03F807F00
1FC03F807F00
7FF0FFE1FFC0
FFF9FFF3FFE0
FFF9FFF3FFE0
ENDCHAR
STARTCHAR n
ENCODING 110
SWIDTH 624 0
DWIDTH 31 0
BBX 28 25 2 0
BITMAP
0181F800
0F87FE00
3F8FFF00
FFDFFF00
FFF87F80
FFF03F80
1FC03F80
1FC03F80
1FC03F80
1FC03F80
1FC03F80
1FC03F80
1FC03F80
1FC03F80
1FC03F80
1FC03F80
1FC03F80
1FC03F80
1FC03F80
1FC03F80
1FC03F80
1FC03F80
7FF0FFE0
FFF9FFF0
FFF9FFF0
ENDCHAR
STARTCHAR o
ENCODING 111
SWIDTH 566 0
DWIDTH 28 0
BBX 25 26 2 -1
BITMAP
007F0000
03FFC000
0FFFF000
1FC3F800
3F81FC00
3F00FE00
7F00FE00
7E007F00
FE007F00
FE007F00
FE007F80
FE007F80
FE007F80
FE007F80
FE007F80
FE007F80
FE007F00
FE007F00
FE007F00
7F007E00
7F00FE00
3F81FC00
1FC3F800
0FFFF000
03FFE000
00FF0000
ENDCHAR
STARTCHAR p
ENCODING 112
SWIDTH 609 0
DWIDTH 30 0
BBX 27 36 2 -11
BITMAP
0183F000
0F8FFC00
3FBFFE00
FFF0FF00
FFE07F80
FFC03F80
1FC01FC0
1FC01FC0
1FC01FC0
1FC01FC0
1FC01FE0
1FC01FE0
1FC01FE0
1FC01FE0
1FC01FE0
1FC01FE0
1FC01FC0
1FC01FC0
1FC01FC0
1FC03F80
1FC03F80
1FE07F00
1FF0FF00
1FFFFE00
1FDFF800
1FC7E000
1FC00000
1FC00000
1FC00000
1FC00000
1FC00000
1FC00000
1FC00000
7FF80000
FFF80000
FFF80000
ENDCHAR
STARTCHAR q
ENCODING 113
SWIDTH 585 0
DWIDTH 29 0
BBX 27 36 2 -11
BITMAP
01FC0300
07FF0F00
0FFFBF00
1FE3FF00
3F80FF00
7F807F00
7F007F00
7F007F00
FE007F00
FE007F00
FE007F00
FE007F00
FE007F00
FE007F00
FE007F00
FE007F00
FE007F00
FE007F00
FF007F00
7F007F00
7F007F00
3F80FF00
3FC3FF00
1FFF7F00
0FFE7F00
01F87F00
00007F00
00007F00
00007F00
00007F00
00007F00
00007F00
00007F00
0003FF80
0007FFE0
0007FFE0
ENDCHAR
STARTCHAR r
ENCODING 114
SWIDTH 457 0
DWIDTH 23 0
BBX 20 25 2 0
BITMAP
0183C0
0F87F0
3FCFF0
FFDFF0
FFFFF0
FFF7F0
1FE1E0
1FE000
1FC000
1FC000
1FC000
1FC000
1FC000
1FC000
1FC000
1FC000
1FC000
1FC000
1FC000
1FC000
1FC000
1FC000
7FF800
FFFC00
FFFC00
ENDCHAR
STARTCHAR s
ENCODING 115
SWIDTH 464 0
DWIDTH 23 0
BBX 20 26 2 -1
BITMAP
03FC00
0FFF80
3FFFC0
7F07C0
7E07C0
7C03C0
FC03C0
FE03C0
FF0000
7FE000
7FFC00
7FFF00
3FFF80
0FFFC0
07FFE0
00FFE0
003FE0
F00FF0
F007F0
F007E0
F807E0
F807E0
FC0FC0
7FFF80
3FFF00
07F800
ENDCHAR
STARTCHAR t
ENCODING 116
SWIDTH 356 0
DWIDTH 18 0
BBX 17 32 1 -1
BITMAP
07C000
07C000
07C000
0FC000
0FC000
0FC000
0FC000
FFFF00
FFFF00
FFFF00
1FC000
1FC000
1FC000
1FC000
1FC000
1FC000
1FC000
1FC000
1FC000
1FC000
1FC000
1FC000
1FC000
1FC000
1FC000
1FC000
1FC000
1FC000
1FE300
0FFF80
07FE00
01F800
ENDCHAR
STARTCHAR u
ENCODING 117
SWIDTH 602 0
DWIDTH 30 0
BBX 27 25 2 -1
BITMAP
1F801F00
FF81FF00
FF81FF00
3F807F00
3F807F00
3F807F00
3F807F00
3F807F00
3F807F00
3F807F00
3F807F00
3F807F00
3F807F00
3F807F00
3F807F00
3F807F00
3F807F00
3F807F00
3F807F00
3FC1FF00
1FC3FF00
1FFFFF00
0FFF3FE0
0FFC3FE0
03F03FE0
ENDCHAR
STARTCHAR v
ENCODING 118
SWIDTH 535 0
DWIDTH 27 0
BBX 26 25 0 -1
BITMAP
FFF87FC0
FFF87FC0
FFF83FC0
1FC00E00
1FC00E00
1FE01C00
0FE01C00
0FE03800
07F03800
07F03000
07F07000
03F87000
03F86000
01FCE000
01FCC000
00FDC000
00FFC000
00FF8000
007F8000
007F0000
003F0000
003F0000
003E0000
001E0000
001C0000
ENDCHAR
STARTCHAR w
ENCODING 119
SWIDTH 813 0
DWIDTH 41 0
BBX 40 25 0 -1
BITMAP
FFF0FFE3FF
FFF0FFE3FF
FFF0FFE3FF
1F801F0038
1FC03F8070
1FC03F8070
0FE07FC060
0FE07FC0E0
0FE07FC0E0
07F0EFE1C0
07F0EFE1C0
07F1CFE1C0
03F9C7F380
03F987F380
03FB83FB00
01FF83FF00
01FF03FF00
00FF01FE00
00FF01FE00
00FE01FC00
007E00FC00
007C00FC00
007C00F800
003C007800
0038007000
ENDCHAR
STARTCHAR x
ENCODING 120
SWIDTH 538 0
DWIDTH 27 0
BBX 25 24 1 0
BITMAP
FFF0FF00
FFF0FF00
FFF0FF00
1FC07000
1FE06000
0FF0E000
07F1C000
03FB8000
03FF0000
01FF0000
00FE0000
00FF0000
007F0000
007F8000
00FFC000
00DFC000
018FE000
038FF000
0707F000
0603F800
0E03FC00
7F07FF80
FF8FFF80
FF8FFF80
ENDCHAR
STARTCHAR y
ENCODING 121
SWIDTH 527 0
DWIDTH 26 0
BBX 26 35 0 -11
BITMAP
FFF87FC0
FFF87FC0
FFF07F80
1FC00E00
1FC01C00
1FE01C00
0FE01800
0FE03800
07F03800
07F03000
07F07000
03F87000
03F86000
01F8E000
01FCC000
00FCC000
00FFC000
00FF8000
007F8000
007F8000
003F0000
003F0000
003F0000
001E0000
001E0000
000C0000
001C0000
001C0000
00380000
7C380000
7F700000
FFE00000
7FE00000
7FC00000
1F000000
ENDCHAR
STARTCHAR z
ENCODING 122
SWIDTH 477 0
DWIDTH 24 0
BBX 22 24 1 0
BITMAP
7FFFF8
7FFFF8
7FFFF8
7807F8
780FF0
780FE0
781FE0
703FC0
103F80
007F00
00FF00
01FE00
01FC00
03FC00
07F800
0FF03C
0FF03C
1FE078
3FC078
3F8078
7F8078
FFFFF8
FFFFF8
FFFFF8
ENDCHAR
STARTCHAR braceleft
ENCODING 123
SWIDTH 339 0
DWIDTH 17 0
BBX 13 44 2 -8
BITMAP
00F8
03F8
0FF8
0FE0
1F80
1F80
1F80
1F80
1F80
1F80
0F80
0F80
0F80
0780
0780
0780
07C0
0780
0780
0F80
3F00
FE00
F800
FE00
3F00
0F80
0780
0780
0780
07C0
0780
0780
0F80
0F80
0F80
1F80
1F80
1F80
1F80
1F80
0FC0
0FF8
07F8
00F8
ENDCHAR
STARTCHAR bar
ENCODING 124
SWIDTH 280 0
DWIDTH 14 0
BBX 4 50 5 -13
BITMAP
F0
F0
F0
F0
F0
F0
F0
F0
F0
F0
F0
F0
F0
F0
F0
F0
F0
F0
F0
F0
F0
F0
F0
F0
F0
F0
F0
F0
F0
F0
F0
F0
F0
F0
F0
F0
F0
F0
F0
F0
F0
F0
F0
F0
F0
F0
F0
F0
F0
F0
ENDCHAR
STARTCHAR braceright
ENCODING 125
SWIDTH 339 0
DWIDTH 17 0
BBX 13 44 2 -8
BITMAP
F800
FE00
FF80
3F80
0FC0
0FC0
0FC0
0FC0
0FC0
0FC0
0F80
0F80
0F00
0F00
1F00
1F00
1E00
0F00
0F00
0F80
07E0
03F8
00F8
03F8
07C0
0F80
0F00
0F00
1E00
1F00
0F00
0F00
0F80
0F80
0F80
0FC0
0FC0
0FC0
0FC0
0FC0
1F80
FF80
FF00
F800
ENDCHAR
STARTCHAR asciitilde
ENCODING 126
SWIDTH 530 0
DWIDTH 27 0
BBX 23 8 2 13
BITMAP
1F801E
3FC01C
7FF01C
78F83C
F07C3C
F01FF8
F00FF0
E003E0
ENDCHAR
STARTCHAR uni00A0
ENCODING 160
SWIDTH 220 0
DWIDTH 11 0
BBX 1 1 0 0
BITMAP
00
ENDCHAR
STARTCHAR exclamdown
ENCODING 161
SWIDTH 328 0
DWIDTH 16 0
BBX 8 35 4 -10
BITMAP
3C
7E
FF
FF
FF
FF
7E
3C
00
00
00
00
00
00
1C
1C
3C
3C
3C
3E
3E
7E
7E
7E
7E
7F
7F
FF
FF
FF
FF
FF
FF
7F
3C
ENDCHAR
STARTCHAR cent
ENCODING 162
SWIDTH 528 0
DWIDTH 26 0
BBX 23 35 2 -2
BITMAP
000C00
000C00
000C00
000C00
007F80
01FFE0
07FFF8
0FFC7C
1FEC7C
3FCC7E
3F8C7E
7F0C7E
7F0C7E
7F0C3C
FF0C00
FE0C00
FE0C00
FE0C00
FF0C00
FF0C00
FF0C00
7F0C00
7F8C00
7F8C04
3FCC0E
1FEC1E
1FFC7C
0FFFF8
03FFF0
00FF80
000C00
000C00
000C00
000C00
000C00
ENDCHAR
STARTCHAR sterling
ENCODING 163
SWIDTH 528 0
DWIDTH 26 0
BBX 22 33 2 0
BITMAP
007E00
01FFC0
07FFE0
0FE1F0
0FC1F8
1F81F8
1F81F8
1F80F8
1F80F8
1F8070
1F8000
1F8000
1F8000
0F8000
0FC000
0FC000
7FFF80
7FFF80
7FFF80
07C000
03C000
03C000
07C000
07C000
078000
0F8000
0F0000
1FFFFC
3FFFFC
7FFFFC
FFFFFC
FFFFFC
FFFFFC
ENDCHAR
STARTCHAR currency
ENCODING 164
SWIDTH 528 0
DWIDTH 26 0
BBX 24 23 1 5
BITMAP
70000F
F8000F
FC001F
7C7E3E
3FFFBC
0FFFF8
07C3E0
0F81F0
0F00F0
0F0078
1F0078
1E0078
1F0078
0F0078
0F00F0
0F81F0
07C3E0
0FFFF0
3FFFBC
7C7E3E
FC001F
F8001F
70000F
ENDCHAR
STARTCHAR yen
ENCODING 165
SWIDTH 528 0
DWIDTH 26 0
BBX 28 32 -1 0
BITMAP
FFFC3FF0
FFFC3FF0
FFFC3FF0
0FE00380
0FE00700
07F00700
07F00E00
03F80E00
03F81C00
01FC1C00
01FC3800
00FE3000
00FE7000
007F6000
007FE000
0FFFFF80
0FFFFF80
0FFFFF80
001FC000
001FC000
001FC000
0FFFFF80
0FFFFF80
0FFFFF80
001FC000
001FC000
001FC000
001FC000
001FC000
03FFFC00
03FFFC00
03FFFC00
ENDCHAR
STARTCHAR brokenbar
ENCODING 166
SWIDTH 280 0
DWIDTH 14 0
BBX 4 50 5 -13
BITMAP
F0
F0
F0
F0
F0
F0
F0
F0
F0
F0
F0
F0
F0
F0
F0
F0
F0
F0
F0
F0
F0
F0
00
00
00
00
00
F0
F0
F0
F0
F0
F0
F0
F0
F0
F0
F0
F0
F0
F0
F0
F0
F0
F0
F0
F0
F0
F0
F0
ENDCHAR
STARTCHAR section
ENCODING 167
SWIDTH 518 0
DWIDTH 26 0
BBX 22 39 2 -5
BITMAP
00FE00
03FF80
07FFC0
0F87E0
1F07F0
1E03F0
1E03F0
1E01F0
1F0060
1F8000
0FE000
0FF800
1FFF00
3FFFC0
79FFE0
78FFF0
F81FF8
F807F8
F801FC
FC00FC
7E007C
7F807C
3FE078
1FF878
0FFE70
07FFE0
00FFE0
003FC0
000FC0
0003E0
1803E0
7C01E0
7E01E0
7F01E0
3F03C0
3F87C0
1FFF80
07FF00
01FC00
ENDCHAR
STARTCHAR dieresis
ENCODING 168
SWIDTH 400 0
DWIDTH 20 0
BBX 18 7 1 29
BITMAP
380700
FC0FC0
FE1FC0
FE1FC0
FE1FC0
FC0FC0
780780
ENDCHAR
STARTCHAR copyright
ENCODING 169
SWIDTH 748 0
DWIDTH 37 0
BBX 34 35 2 -1
BITMAP
0007F80000
007FFF0000
00FFFFC000
03F80FE000
07C001F000
0F80007800
1E00003C00
3C00001E00
3803F80E00
780FFE0700
701FFE0700
703F0E0380
E07E0E0380
E07C060380
E0F8000180
E0F80001C0
E0F80001C0
E0F80001C0
E0F80001C0
E0F80001C0
E0F8000180
E0F8000380
E07C070380
707E070380
703F070700
781FFF0700
380FFF0E00
1C03F81E00
1E00003C00
0F80007800
07C001F000
03F80FE000
00FFFFC000
007FFF0000
0007F80000
ENDCHAR
STARTCHAR ordfeminine
ENCODING 170
SWIDTH 366 0
DWIDTH 18 0
BBX 17 17 2 20
BITMAP
0FC000
3FF000
78F800
F87800
F07800
707C00
007C00
07FC00
1FFC00
7C7C00
F87C00
F07C00
F07C00
F8FC00
FFFF80
FFFF00
3E3E00
ENDCHAR
STARTCHAR guillemotleft
ENCODING 171
SWIDTH 479 0
DWIDTH 24 0
BBX 21 20 2 3
BITMAP
004010
01E078
03E0F8
07C1F0
0F83E0
3F0FC0
7E1F80
FC3F00
F87E00
F07C00
F07C00
F87E00
FC3F00
7E1F80
3F0FC0
0F83E0
07C1F0
03E0F8
01E078
004010
ENDCHAR
STARTCHAR logicalnot
ENCODING 172
SWIDTH 530 0
DWIDTH 27 0
BBX 23 12 2 7
BITMAP
FFFFFE
FFFFFE
FFFFFE
00003E
00003E
00003E
00003E
00003E
00003E
00003E
00003E
00003E
ENDCHAR
STARTCHAR uni00AD
ENCODING 173
SWIDTH 330 0
DWIDTH 17 0
BBX 13 4 2 11
BITMAP
FFF8
FFF8
FFF8
FFF8
ENDCHAR
STARTCHAR registered
ENCODING 174
SWIDTH 466 0
DWIDTH 23 0
BBX 20 21 2 16
BITMAP
03F800
0FFE00
1FFF00
3E0780
7801C0
7000E0
E7F8E0
C39C60
C39C70
C39C70
C39830
C3F070
C3B870
C39860
E39CE0
77CEE0
7801C0
3E0780
1FFF00
0FFE00
03F800
ENDCHAR
STARTCHAR macron
ENCODING 175
SWIDTH 400 0
DWIDTH 20 0
BBX 15 4 3 30
BITMAP
FFFE
FFFE
FFFE
FFFE
ENDCHAR
STARTCHAR degree
ENCODING 176
SWIDTH 356 0
DWIDTH 18 0
BBX 14 15 2 19
BITMAP
0FC0
3FE0
7FF0
7878
F038
E01C
E01C
E01C
E01C
E01C
F03C
7878
7FF0
3FE0
0FC0
ENDCHAR
STARTCHAR plusminus
ENCODING 177
SWIDTH 530 0
DWIDTH 27 0
BBX 23 27 2 0
BITMAP
007800
007800
007800
007800
007800
007800
007800
007800
FFFFFE
FFFFFE
FFFFFE
007800
007800
007800
007800
007800
007800
007800
007800
007800
000000
000000
000000
000000
FFFFFE
FFFFFE
FFFFFE
ENDCHAR
STARTCHAR two.sups
ENCODING 178
SWIDTH 358 0
DWIDTH 18 0
BBX 14 20 2 21
BITMAP
0FC0
3FF0
71F8
F0F8
F0F8
F0F8
60F8
00F8
00F0
01F0
01E0
03C0
0780
0E00
1C00
3800
7FFC
FFFC
FFFC
FFFC
ENDCHAR
STARTCHAR three.sups
ENCODING 179
SWIDTH 357 0
DWIDTH 18 0
BBX 15 21 1 20
BITMAP
07E0
1FF8
38FC
387C
783E
783E
003C
007C
00F8
07F0
07F0
07FC
007E
003E
603E
F03E
F83E
783E
78FC
3FF8
0FE0
ENDCHAR
STARTCHAR acute
ENCODING 180
SWIDTH 400 0
DWIDTH 20 0
BBX 10 11 5 27
BITMAP
0380
07C0
0FC0
1FC0
1F80
3F00
3E00
7C00
F800
E000
4000
ENDCHAR
STARTCHAR uni00B5
ENCODING 181
SWIDTH 609 0
DWIDTH 30 0
BBX 29 37 1 -12
BITMAP
06000600
1E001F00
1E001F00
1E000F00
1E000E00
1E000E00
1E000E00
1E000E00
1E000E00
1E000E00
1E000E00
1E000E00
1E000E00
1E000E00
1E000E00
1E000E00
1F000E00
1F001E00
1F803E00
1FC0FF10
1FFFFFF0
1FFFFFF0
1DFFEFF0
1DFFE7F8
3CFFC7F0
3C3F01E0
3C000000
7C000000
7C000000
7C000000
7C000000
7C000000
FC000000
FC000000
7C000000
7C000000
38000000
ENDCHAR
STARTCHAR paragraph
ENCODING 182
SWIDTH 652 0
DWIDTH 33 0
BBX 30 39 1 -6
BITMAP
000FFFFC
007FFFFC
03FFFFFC
07FF1F80
0FFF1F80
1FFF1F80
3FFF1F80
7FFF1F80
7FFF1F80
7FFF1F80
FFFF1F80
FFFF1F80
FFFF1F80
FFFF1F80
FFFF1F80
FFFF1F80
7FFF1F80
7FFF1F80
7FFF1F80
3FFF1F80
3FFF1F80
1FFF1F80
0FFF1F80
07FF1F80
03FF1F80
007F1F80
000F1F80
00001F80
00001F80
00001F80
00001F80
00001F80
00001F80
00001F80
00001F80
00001F80
00001F80
00001F80
00001F80
ENDCHAR
STARTCHAR periodcentered
ENCODING 183
SWIDTH 300 0
DWIDTH 15 0
BBX 9 8 3 12
BITMAP
3C00
7F00
7F00
FF80
FF80
7F00
7F00
3E00
ENDCHAR
STARTCHAR cedilla
ENCODING 184
SWIDTH 400 0
DWIDTH 20 0
BBX 10 11 5 -11
BITMAP
1C00
1800
1800
1E00
1F80
27C0
03C0
03C0
07C0
FF80
FE00
ENDCHAR
STARTCHAR one.sups
ENCODING 185
SWIDTH 328 0
DWIDTH 16 0
BBX 12 20 2 21
BITMAP
0380
7F80
7F80
7F80
0F80
0F80
0F80
0F80
0F80
0F80
0F80
0F80
0F80
0F80
0F80
0F80
0F80
3FE0
FFF0
FFF0
ENDCHAR
STARTCHAR ordmasculine
ENCODING 186
SWIDTH 388 0
DWIDTH 19 0
BBX 17 17 1 20
BITMAP
03F000
0FFC00
3E3E00
3C1F00
7C0F00
F80F80
F80F80
F80F80
F80F80
F80F80
F80F80
F80F80
7C0F80
7C1F00
3E3E00
1FFC00
03F000
ENDCHAR
STARTCHAR guillemotright
ENCODING 187
SWIDTH 479 0
DWIDTH 24 0
BBX 22 20 1 3
BITMAP
401000
F03C00
F83E00
7C1F00
3E0F80
1F87E0
0FC3F0
07E1F8
03F0FC
01F07C
01F07C
03F0FC
07E1F8
0FC3F0
1F87E0
3E0F80
7C1F00
F83E00
F03C00
401000
ENDCHAR
STARTCHAR onequarter
ENCODING 188
SWIDTH 880 0
DWIDTH 44 0
BBX 38 34 3 -1
BITMAP
0380000600
7F80000700
7F80000F00
7F80001E00
0F80001C00
0F80003800
0F80007800
0F8000F000
0F8000E000
0F8001E000
0F8003C000
0F80038000
0F80078000
0F800F01E0
0F801E03E0
0F801C07E0
0F803C0FE0
3FE0780FE0
FFF0701BE0
FFF0F03BE0
0001E073E0
0003C063E0
000380C3E0
000781C3E0
000F0383E0
000E07FFFC
001E07FFFC
003C07FFFC
003807FFFC
00700003E0
00F00003E0
01E00003E0
01C00003E0
00C0000000
ENDCHAR
STARTCHAR onehalf
ENCODING 189
SWIDTH 880 0
DWIDTH 44 0
BBX 38 34 3 -1
BITMAP
0380000C00
7F80000E00
7F80001E00
7F80003C00
0F80003800
0F80007000
0F8000F000
0F8001E000
0F8001C000
0F8003C000
0F80078000
0F80070000
0F800F0000
0F801E0FC0
0F803C3FF0
0F803871F8
0F8078F0F8
3FE0F0F0F8
FFF0E0F0F8
FFF1E060F8
0003C000F8
00078000F0
00070001F0
000F0001E0
001E0003C0
001C000780
003C000E00
0078001C00
0070003800
00E0007FFC
01E000FFFC
03C000FFFC
038000FFFC
0180000000
ENDCHAR
STARTCHAR threequarters
ENCODING 190
SWIDTH 880 0
DWIDTH 44 0
BBX 38 34 3 -1
BITMAP
07E0000300
1FF8000380
38FC000780
387C000F00
783E000E00
783E001C00
003C003C00
007C007800
00F8007000
07F000F000
07F001E000
07FC01C000
007E03C000
003E0781E0
603E0F03E0
F03E0E07E0
F83E1E0FE0
783E3C0FE0
78FC381BE0
3FF8783BE0
0FE0F073E0
0001E063E0
0001C0C3E0
0003C1C3E0
00078383E0
000707FFFC
000F07FFFC
001E07FFFC
001C07FFFC
00380003E0
00780003E0
00F00003E0
00E00003E0
0060000000
ENDCHAR
STARTCHAR questiondown
ENCODING 191
SWIDTH 471 0
DWIDTH 24 0
BBX 16 35 4 -10
BITMAP
003C
00FE
00FE
01FF
01FF
00FF
00FE
003C
0000
0000
0000
0000
0000
0018
0018
0038
00FC
07FC
1FFC
7FFC
FFF8
FFE0
FF80
FE00
F800
F000
F000
F000
73FC
7FFE
3FFF
1FFF
07FF
01FE
003C
ENDCHAR
STARTCHAR Agrave
ENCODING 192
SWIDTH 673 0
DWIDTH 34 0
BBX 33 44 0 0
BITMAP
000F000000
000F800000
000FC00000
000FE00000
0007F00000
0001F80000
00007C0000
00001E0000
0000040000
0000000000
0000000000
0000E00000
0001E00000
0001F00000
0003F00000
0003F00000
0003F80000
0007F80000
0007FC0000
0007FC0000
000EFC0000
000EFE0000
000CFE0000
001C7E0000
00187F0000
00387F0000
00383F8000
00303F8000
00703F8000
00701FC000
00601FC000
00FFFFC000
00FFFFE000
01FFFFE000
01C00FF000
01C007F000
038007F000
038003F800
030003F800
070003F800
070001FC00
7FE00FFF00
FFF01FFF80
FFF01FFF80
ENDCHAR
STARTCHAR Aacute
ENCODING 193
SWIDTH 673 0
DWIDTH 34 0
BBX 33 44 0 0
BITMAP
00000E0000
00003E0000
00007F0000
0000FE0000
0001FC0000
0003F80000
0007E00000
000F800000
0006000000
0000000000
0000000000
0000E00000
0001E00000
0001F00000
0003F00000
0003F00000
0003F80000
0007F80000
0007FC0000
0007FC0000
000EFC0000
000EFE0000
000CFE0000
001C7E0000
00187F0000
00387F0000
00383F8000
00303F8000
00703F8000
00701FC000
00601FC000
00FFFFC000
00FFFFE000
01FFFFE000
01C00FF000
01C007F000
038007F000
038003F800
030003F800
070003F800
070001FC00
7FE00FFF00
FFF01FFF80
FFF01FFF80
ENDCHAR
STARTCHAR Acircumflex
ENCODING 194
SWIDTH 673 0
DWIDTH 34 0
BBX 33 42 0 0
BITMAP
0001E00000
0003F00000
0007F80000
000FFC0000
001F3E0000
003E1F0000
0078078000
0060018000
0000000000
0000E00000
0001E00000
0001F00000
0003F00000
0003F00000
0003F80000
0007F80000
0007FC0000
0007FC0000
000EFC0000
000EFE0000
000CFE0000
001C7E0000
00187F0000
00387F0000
00383F8000
00303F8000
00703F8000
00701FC000
00601FC000
00FFFFC000
00FFFFE000
01FFFFE000
01C00FF000
01C007F000
038007F000
038003F800
030003F800
070003F800
070001FC00
7FE00FFF00
FFF01FFF80
FFF01FFF80
ENDCHAR
STARTCHAR Atilde
ENCODING 195
SWIDTH 673 0
DWIDTH 34 0
BBX 33 43 0 0
BITMAP
000E000000
003F818000
007FC18000
007FF38000
0073FF8000
0061FF8000
0060FF0000
00003E0000
0000000000
0000000000
0000E00000
0001E00000
0001F00000
0003F00000
0003F00000
0003F80000
0007F80000
0007FC0000
0007FC0000
000EFC0000
000EFE0000
000CFE0000
001C7E0000
00187F0000
00387F0000
00383F8000
00303F8000
00703F8000
00701FC000
00601FC000
00FFFFC000
00FFFFE000
01FFFFE000
01C00FF000
01C007F000
038007F000
038003F800
030003F800
070003F800
070001FC00
7FE00FFF00
FFF01FFF80
FFF01FFF80
ENDCHAR
STARTCHAR Adieresis
ENCODING 196
SWIDTH 673 0
DWIDTH 34 0
BBX 33 42 0 0
BITMAP
003C03C000
007E07E000
00FE07E000
00FE07F000
007E07E000
003C03C000
0000000000
0000000000
0000000000
0000E00000
0001E00000
0001F00000
0003F00000
0003F00000
0003F80000
0007F80000
0007FC0000
0007FC0000
000EFC0000
000EFE0000
000CFE0000
001C7E0000
00187F0000
00387F0000
00383F8000
00303F8000
00703F8000
00701FC000
00601FC000
00FFFFC000
00FFFFE000
01FFFFE000
01C00FF000
01C007F000
038007F000
038003F800
030003F800
070003F800
070001FC00
7FE00FFF00
FFF01FFF80
FFF01FFF80
ENDCHAR
STARTCHAR Aring
ENCODING 197
SWIDTH 673 0
DWIDTH 34 0
BBX 33 45 0 0
BITMAP
0001E00000
0007F80000
000E1C0000
000E1C0000
000C0C0000
000C0C0000
000E1C0000
000E1C0000
0007F80000
0003E00000
0000000000
0000000000
0000E00000
0001E00000
0001F00000
0003F00000
0003F00000
0003F80000
0007F80000
0007FC0000
0007FC0000
000EFC0000
000EFE0000
000CFE0000
001C7E0000
00187F0000
00387F0000
00383F8000
00303F8000
00703F8000
00701FC000
00601FC000
00FFFFC000
00FFFFE000
01FFFFE000
01C00FF000
01C007F000
038007F000
038003F800
030003F800
070003F800
070001FC00
7FE00FFF00
FFF01FFF80
FFF01FFF80
ENDCHAR
STARTCHAR AE
ENCODING 198
SWIDTH 913 0
DWIDTH 46 0
BBX 43 33 1 0
BITMAP
000FFFFFFFC0
000FFFFFFFC0
000FFFFFFFC0
00007FF003C0
0000EFF003C0
0000EFF003C0
0001CFF003C0
0001CFF003C0
00038FF001C0
00038FF01C00
00070FF01C00
00070FF01C00
000E0FF03C00
000E0FF03C00
001C0FFFFC00
003C0FFFFC00
00380FFFFC00
00780FF03C00
007FFFF03C00
00FFFFF01C00
00FFFFF01C00
01E00FF01C00
01C00FF00000
03C00FF00000
03800FF000E0
07800FF001E0
07000FF001E0
0F000FF001E0
0E000FF001E0
1E000FF001E0
FFE0FFFFFFE0
FFE0FFFFFFE0
FFE0FFFFFFE0
ENDCHAR
STARTCHAR Ccedilla
ENCODING 199
SWIDTH 622 0
DWIDTH 31 0
BBX 27 45 2 -11
BITMAP
0007FC00
007FFF80
01FFFFE0
03FE07E0
07F803E0
0FE003E0
1FC003E0
3FC003E0
3F8001E0
7F8001E0
7F000000
FF000000
FF000000
FE000000
FE000000
FE000000
FE000000
FE000000
FE000000
FE000000
FE000000
FE000000
FF000000
FF000000
7F000000
7F8001E0
7F8001E0
3FC001E0
1FC001E0
1FE001E0
0FF003E0
07FE07E0
01FFFFE0
007FFF80
000FFC00
00018000
00018000
0001E000
0001F800
00027C00
00003C00
00003C00
00007C00
000FF800
000FE000
ENDCHAR
STARTCHAR Egrave
ENCODING 200
SWIDTH 598 0
DWIDTH 30 0
BBX 27 44 2 0
BITMAP
01E00000
01F00000
01F80000
01FC0000
00FE0000
003F0000
000F8000
0003C000
00008000
00000000
00000000
FFFFFF80
FFFFFF80
FFFFFF80
0FE00780
0FE00780
0FE007C0
0FE007C0
0FE003C0
0FE003C0
0FE03800
0FE03800
0FE03800
0FE03800
0FE03800
0FFFF800
0FFFF800
0FFFF800
0FE03800
0FE03800
0FE03800
0FE03800
0FE03800
0FE00000
0FE00000
0FE001E0
0FE001E0
0FE003E0
0FE003E0
0FE003C0
0FE003C0
FFFFFFC0
FFFFFFC0
FFFFFFC0
ENDCHAR
STARTCHAR Eacute
ENCODING 201
SWIDTH 598 0
DWIDTH 30 0
BBX 27 44 2 0
BITMAP
00003800
0000F800
0001FC00
0003F800
0007F000
000FE000
001F8000
003E0000
00180000
00000000
00000000
FFFFFF80
FFFFFF80
FFFFFF80
0FE00780
0FE00780
0FE007C0
0FE007C0
0FE003C0
0FE003C0
0FE03800
0FE03800
0FE03800
0FE03800
0FE03800
0FFFF800
0FFFF800
0FFFF800
0FE03800
0FE03800
0FE03800
0FE03800
0FE03800
0FE00000
0FE00000
0FE001E0
0FE001E0
0FE003E0
0FE003E0
0FE003C0
0FE003C0
FFFFFFC0
FFFFFFC0
FFFFFFC0
ENDCHAR
STARTCHAR Ecircumflex
ENCODING 202
SWIDTH 598 0
DWIDTH 30 0
BBX 27 43 2 0
BITMAP
000F0000
001F8000
003FC000
007FE000
00F9F000
01F0F800
03C03C00
03000C00
00000000
00000000
FFFFFF80
FFFFFF80
FFFFFF80
0FE00780
0FE00780
0FE007C0
0FE007C0
0FE003C0
0FE003C0
0FE03800
0FE03800
0FE03800
0FE03800
0FE03800
0FFFF800
0FFFF800
0FFFF800
0FE03800
0FE03800
0FE03800
0FE03800
0FE03800
0FE00000
0FE00000
0FE001E0
0FE001E0
0FE003E0
0FE003E0
0FE003C0
0FE003C0
FFFFFFC0
FFFFFFC0
FFFFFFC0
ENDCHAR
STARTCHAR Edieresis
ENCODING 203
SWIDTH 598 0
DWIDTH 30 0
BBX 27 42 2 0
BITMAP
03C03C00
07E07E00
0FE07E00
0FE07F00
07E07E00
03C03C00
00000000
00000000
00000000
FFFFFF80
FFFFFF80
FFFFFF80
0FE00780
0FE00780
0FE007C0
0FE007C0
0FE003C0
0FE003C0
0FE03800
0FE03800
0FE03800
0FE03800
0FE03800
0FFFF800
0FFFF800
0FFFF800
0FE03800
0FE03800
0FE03800
0FE03800
0FE03800
0FE00000
0FE00000
0FE001E0
0FE001E0
0FE003E0
0FE003E0
0FE003C0
0FE003C0
FFFFFFC0
FFFFFFC0
FFFFFFC0
ENDCHAR
STARTCHAR Igrave
ENCODING 204
SWIDTH 376 0
DWIDTH 19 0
BBX 15 44 2 0
BITMAP
3C00
3E00
3F00
3F80
1FC0
07E0
01F0
0078
0010
0000
0000
FFFE
FFFE
FFFE
0FE0
0FE0
0FE0
0FE0
0FE0
0FE0
0FE0
0FE0
0FE0
0FE0
0FE0
0FE0
0FE0
0FE0
0FE0
0FE0
0FE0
0FE0
0FE0
0FE0
0FE0
0FE0
0FE0
0FE0
0FE0
0FE0
0FE0
FFFE
FFFE
FFFE
ENDCHAR
STARTCHAR Iacute
ENCODING 205
SWIDTH 376 0
DWIDTH 19 0
BBX 15 44 2 0
BITMAP
001C
007C
00FE
01FC
03F8
07F0
0FC0
1F00
0C00
0000
0000
FFFE
FFFE
FFFE
0FE0
0FE0
0FE0
0FE0
0FE0
0FE0
0FE0
0FE0
0FE0
0FE0
0FE0
0FE0
0FE0
0FE0
0FE0
0FE0
0FE0
0FE0
0FE0
0FE0
0FE0
0FE0
0FE0
0FE0
0FE0
0FE0
0FE0
FFFE
FFFE
FFFE
ENDCHAR
STARTCHAR Icircumflex
ENCODING 206
SWIDTH 376 0
DWIDTH 19 0
BBX 16 43 1 0
BITMAP
03C0
07E0
0FF0
1FF8
3E7C
7C3E
F00F
C003
0000
0000
7FFF
7FFF
7FFF
07F0
07F0
07F0
07F0
07F0
07F0
07F0
07F0
07F0
07F0
07F0
07F0
07F0
07F0
07F0
07F0
07F0
07F0
07F0
07F0
07F0
07F0
07F0
07F0
07F0
07F0
07F0
7FFF
7FFF
7FFF
ENDCHAR
STARTCHAR Idieresis
ENCODING 207
SWIDTH 376 0
DWIDTH 19 0
BBX 20 42 -1 0
BITMAP
3C03C0
7E07E0
FE07E0
FE07F0
7E07E0
3C03C0
000000
000000
000000
1FFFC0
1FFFC0
1FFFC0
01FC00
01FC00
01FC00
01FC00
01FC00
01FC00
01FC00
01FC00
01FC00
01FC00
01FC00
01FC00
01FC00
01FC00
01FC00
01FC00
01FC00
01FC00
01FC00
01FC00
01FC00
01FC00
01FC00
01FC00
01FC00
01FC00
01FC00
1FFFC0
1FFFC0
1FFFC0
ENDCHAR
STARTCHAR Eth
ENCODING 208
SWIDTH 692 0
DWIDTH 35 0
BBX 31 33 2 0
BITMAP
FFFFE000
FFFFFC00
FFFFFF00
0FE0FFC0
0FE03FE0
0FE00FF0
0FE007F0
0FE007F8
0FE003FC
0FE003FC
0FE001FC
0FE001FE
0FE001FE
0FE001FE
FFFFC1FE
FFFFC1FE
FFFFC1FE
0FE001FE
0FE001FE
0FE001FE
0FE001FE
0FE001FC
0FE001FC
0FE003FC
0FE003F8
0FE007F8
0FE007F0
0FE00FE0
0FE03FC0
0FE0FF80
FFFFFF00
FFFFFC00
FFFFE000
ENDCHAR
STARTCHAR Ntilde
ENCODING 209
SWIDTH 761 0
DWIDTH 38 0
BBX 36 44 1 -1
BITMAP
0007000000
001FC0C000
003FE0C000
003FF9C000
0039FFC000
0030FFC000
00307F8000
00001F0000
0000000000
0000000000
7FE003FFF0
7FF003FFF0
3FF800FFE0
07F8000E00
07FC000E00
07FE000E00
07FF000E00
07FF000E00
077F800E00
077FC00E00
073FE00E00
071FF00E00
070FF00E00
0707F80E00
0707FC0E00
0703FE0E00
0701FE0E00
0700FF0E00
0700FF8E00
07007FCE00
07003FEE00
07001FEE00
07000FFE00
07000FFE00
070007FE00
070003FE00
070001FE00
070000FE00
070000FE00
0700007E00
7FF0003E00
FFFC001E00
FFFC001E00
0000000E00
ENDCHAR
STARTCHAR Ograve
ENCODING 210
SWIDTH 708 0
DWIDTH 35 0
BBX 32 45 2 -1
BITMAP
003C0000
003E0000
003F0000
003F8000
001FC000
0007E000
0001F000
00007800
00001000
00000000
000FF000
007FFC00
01FFFF00
03F83FC0
07E00FE0
0FE007F0
1FC003F8
3F8003F8
3F8001FC
7F0001FC
7F0001FE
FF0000FE
FF0000FE
FF0000FE
FE0000FF
FE0000FF
FE0000FF
FE0000FF
FE0000FF
FE0000FF
FE0000FF
FE0000FE
FF0000FE
FF0000FE
7F0001FE
7F0001FC
3F8001FC
3F8003F8
1FC003F8
0FC007F0
07E00FE0
03F83FC0
01FFFF00
007FFE00
000FF000
ENDCHAR
STARTCHAR Oacute
ENCODING 211
SWIDTH 708 0
DWIDTH 35 0
BBX 32 45 2 -1
BITMAP
00001C00
00007C00
0000FE00
0001FC00
0003F800
0007F000
000FC000
001F0000
000C0000
00000000
000FF000
007FFC00
01FFFF00
03F83FC0
07E00FE0
0FE007F0
1FC003F8
3F8003F8
3F8001FC
7F0001FC
7F0001FE
FF0000FE
FF0000FE
FF0000FE
FE0000FF
FE0000FF
FE0000FF
FE0000FF
FE0000FF
FE0000FF
FE0000FF
FE0000FE
FF0000FE
FF0000FE
7F0001FE
7F0001FC
3F8001FC
3F8003F8
1FC003F8
0FC007F0
07E00FE0
03F83FC0
01FFFF00
007FFE00
000FF000
ENDCHAR
STARTCHAR Ocircumflex
ENCODING 212
SWIDTH 708 0
DWIDTH 35 0
BBX 32 44 2 -1
BITMAP
0003C000
0007E000
000FF000
001FF800
003E7C00
007C3E00
00F00F00
00C00300
00000000
000FF000
007FFC00
01FFFF00
03F83FC0
07E00FE0
0FE007F0
1FC003F8
3F8003F8
3F8001FC
7F0001FC
7F0001FE
FF0000FE
FF0000FE
FF0000FE
FE0000FF
FE0000FF
FE0000FF
FE0000FF
FE0000FF
FE0000FF
FE0000FF
FE0000FE
FF0000FE
FF0000FE
7F0001FE
7F0001FC
3F8001FC
3F8003F8
1FC003F8
0FC007F0
07E00FE0
03F83FC0
01FFFF00
007FFE00
000FF000
ENDCHAR
STARTCHAR Otilde
ENCODING 213
SWIDTH 708 0
DWIDTH 35 0
BBX 32 45 2 -1
BITMAP
001C0000
007F0300
00FF8300
00FFE700
00E7FF00
00C3FF00
00C1FE00
00007C00
00000000
00000000
000FF000
007FFC00
01FFFF00
03F83FC0
07E00FE0
0FE007F0
1FC003F8
3F8003F8
3F8001FC
7F0001FC
7F0001FE
FF0000FE
FF0000FE
FF0000FE
FE0000FF
FE0000FF
FE0000FF
FE0000FF
FE0000FF
FE0000FF
FE0000FF
FE0000FE
FF0000FE
FF0000FE
7F0001FE
7F0001FC
3F8001FC
3F8003F8
1FC003F8
0FC007F0
07E00FE0
03F83FC0
01FFFF00
007FFE00
000FF000
ENDCHAR
STARTCHAR Odieresis
ENCODING 214
SWIDTH 708 0
DWIDTH 35 0
BBX 32 43 2 -1
BITMAP
00F00F00
01F81F80
03F81F80
03F81FC0
01F81F80
00F00F00
00000000
00000000
000FF000
007FFC00
01FFFF00
03F83FC0
07E00FE0
0FE007F0
1FC003F8
3F8003F8
3F8001FC
7F0001FC
7F0001FE
FF0000FE
FF0000FE
FF0000FE
FE0000FF
FE0000FF
FE0000FF
FE0000FF
FE0000FF
FE0000FF
FE0000FF
FE0000FE
FF0000FE
FF0000FE
7F0001FE
7F0001FC
3F8001FC
3F8003F8
1FC003F8
0FC007F0
07E00FE0
03F83FC0
01FFFF00
007FFE00
000FF000
ENDCHAR
STARTCHAR multiply
ENCODING 215
SWIDTH 530 0
DWIDTH 27 0
BBX 23 23 2 5
BITMAP
200010
700038
F8007E
7C00FC
3E00F8
1F01F0
0F83E0
07C7C0
03EF80
01FF00
00FE00
007C00
00FE00
01FF00
03EF80
07C7C0
0F83E0
1F01F0
3E00F8
7C007C
F8003E
70001C
200010
ENDCHAR
STARTCHAR Oslash
ENCODING 216
SWIDTH 708 0
DWIDTH 35 0
BBX 32 35 2 -1
BITMAP
000FF010
007FFC38
01FFFF7C
03F83FF8
07E00FF8
0FE007F0
1FC003F0
3F8007F8
3F800FFC
7F001FFC
7F001FFE
FF003EFE
FF007CFE
FF00F8FE
FE01F0FF
FE03E0FF
FE07E0FF
FE07C0FF
FE0F80FF
FE1F00FF
FE3E00FF
FE7C00FE
FFF800FE
FFF800FE
7FF001FE
7FE001FC
3FC001FC
3F8003F8
1FC003F8
3FC007F0
7FE00FE0
7FF83FC0
F9FFFF00
707FFE00
200FF000
ENDCHAR
STARTCHAR Ugrave
ENCODING 217
SWIDTH 750 0
DWIDTH 38 0
BBX 35 45 2 -1
BITMAP
000F000000
000F800000
000FC00000
000FE00000
0007F00000
0001F80000
00007C0000
00001E0000
0000040000
0000000000
0000000000
FFFE01FFE0
FFFE01FFE0
FFFE01FFE0
0FE0001C00
0FE0001C00
0FE0001C00
0FE0001C00
0FE0001C00
0FE0001C00
0FE0001C00
0FE0001C00
0FE0001C00
0FE0001C00
0FE0001C00
0FE0001C00
0FE0001C00
0FE0001C00
0FE0001C00
0FE0001C00
0FE0001C00
0FE0001C00
0FE0001C00
0FE0001C00
0FE0001C00
0FF0003800
0FF0003800
07F0003800
07F8007000
03FC00F000
03FF03E000
01FFFFC000
00FFFF8000
003FFF0000
0007F80000
ENDCHAR
STARTCHAR Uacute
ENCODING 218
SWIDTH 750 0
DWIDTH 38 0
BBX 35 45 2 -1
BITMAP
0000038000
00000F8000
00001FC000
00003F8000
00007F0000
0000FE0000
0001F80000
0003E00000
0001800000
0000000000
0000000000
FFFE01FFE0
FFFE01FFE0
FFFE01FFE0
0FE0001C00
0FE0001C00
0FE0001C00
0FE0001C00
0FE0001C00
0FE0001C00
0FE0001C00
0FE0001C00
0FE0001C00
0FE0001C00
0FE0001C00
0FE0001C00
0FE0001C00
0FE0001C00
0FE0001C00
0FE0001C00
0FE0001C00
0FE0001C00
0FE0001C00
0FE0001C00
0FE0001C00
0FF0003800
0FF0003800
07F0003800
07F8007000
03FC00F000
03FF03E000
01FFFFC000
00FFFF8000
003FFF0000
0007F80000
ENDCHAR
STARTCHAR Ucircumflex
ENCODING 219
SWIDTH 750 0
DWIDTH 38 0
BBX 35 44 2 -1
BITMAP
0000780000
0000FC0000
0001FE0000
0003FF0000
0007CF8000
000F87C000
001E01E000
0018006000
0000000000
0000000000
FFFE01FFE0
FFFE01FFE0
FFFE01FFE0
0FE0001C00
0FE0001C00
0FE0001C00
0FE0001C00
0FE0001C00
0FE0001C00
0FE0001C00
0FE0001C00
0FE0001C00
0FE0001C00
0FE0001C00
0FE0001C00
0FE0001C00
0FE0001C00
0FE0001C00
0FE0001C00
0FE0001C00
0FE0001C00
0FE0001C00
0FE0001C00
0FE0001C00
0FF0003800
0FF0003800
07F0003800
07F8007000
03FC00F000
03FF03E000
01FFFFC000
00FFFF8000
003FFF0000
0007F80000
ENDCHAR
STARTCHAR Udieresis
ENCODING 220
SWIDTH 750 0
DWIDTH 38 0
BBX 35 43 2 -1
BITMAP
001E01E000
003F03F000
007F03F000
007F03F800
003F03F000
001E01E000
0000000000
0000000000
0000000000
FFFE01FFE0
FFFE01FFE0
FFFE01FFE0
0FE0001C00
0FE0001C00
0FE0001C00
0FE0001C00
0FE0001C00
0FE0001C00
0FE0001C00
0FE0001C00
0FE0001C00
0FE0001C00
0FE0001C00
0FE0001C00
0FE0001C00
0FE0001C00
0FE0001C00
0FE0001C00
0FE0001C00
0FE0001C00
0FE0001C00
0FE0001C00
0FE0001C00
0FF0003800
0FF0003800
07F0003800
07F8007000
03FC00F000
03FF03E000
01FFFFC000
00FFFF8000
003FFF0000
0007F80000
ENDCHAR
STARTCHAR Yacute
ENCODING 221
SWIDTH 606 0
DWIDTH 30 0
BBX 30 44 0 0
BITMAP
00000E00
00003E00
00007F00
0000FE00
0001FC00
0003F800
0007E000
000F8000
00060000
00000000
00000000
FFFE0FFC
FFFE0FFC
FFFE0FFC
0FF001C0
0FF001C0
07F80380
07F80380
03F80700
03FC0700
01FC0E00
01FE0E00
00FE0C00
00FF1C00
007F1800
007FB800
003FB000
003FF000
001FE000
001FE000
001FE000
001FE000
001FE000
001FE000
001FE000
001FE000
001FE000
001FE000
001FE000
001FE000
001FE000
01FFFE00
01FFFE00
01FFFE00
ENDCHAR
STARTCHAR Thorn
ENCODING 222
SWIDTH 614 0
DWIDTH 31 0
BBX 28 33 2 0
BITMAP
FFFF0000
FFFF0000
FFFF0000
0FE00000
0FE00000
0FE00000
0FFFE000
0FFFFC00
0FFFFF00
0FE07F80
0FE01FC0
0FE00FE0
0FE00FE0
0FE00FE0
0FE007F0
0FE007F0
0FE007F0
0FE007F0
0FE00FE0
0FE00FE0
0FE01FE0
0FE03FC0
0FE07F80
0FFFFF00
0FFFFC00
0FFFE000
0FE00000
0FE00000
0FE00000
0FE00000
FFFF0000
FFFF0000
FFFF0000
ENDCHAR
STARTCHAR germandbls
ENCODING 223
SWIDTH 628 0
DWIDTH 31 0
BBX 29 38 1 -1
BITMAP
0007F800
003FFE00
00FFFF80
01FC3FC0
03F00FC0
03E00FC0
07E007E0
07C007E0
0FC007E0
0FC007C0
0FC00FC0
0FC00F80
1FC01F00
1FC03E00
1FC07C00
1FC0F800
1FC1F000
1FC1F000
1FC1F800
1FC1FC00
1FC1FE00
1FC1FF00
1FC1FFC0
1FC0FFE0
1FC07FF0
1FC03FF0
1FC00FF8
1FC007F8
1FC003F8
1FC001F8
1FC781F8
1FC780F8
1FC781F8
1FC781F8
7FC7C3F0
FFC7FFE0
FFC3FFC0
00007F00
ENDCHAR
STARTCHAR agrave
ENCODING 224
SWIDTH 534 0
DWIDTH 27 0
BBX 25 39 2 -1
BITMAP
01C00000
03E00000
03F00000
03F80000
01F80000
00FC0000
007C0000
003E0000
001E0000
00070000
00020000
00000000
00000000
00FF0000
07FFC000
0FFFE000
1F0FE000
3F07F000
7F07F000
7F03F000
7E03F000
3E03F800
3C03F800
000FF800
007FF800
03FFF800
0FF3F800
1FC3F800
3F03F800
7E03F800
7E03F800
FE03F800
FE03F800
FE03F800
FE07F800
7F0FF900
7FFFFF80
3FF1FF00
0FC07C00
ENDCHAR
STARTCHAR aacute
ENCODING 225
SWIDTH 534 0
DWIDTH 27 0
BBX 25 39 2 -1
BITMAP
00038000
0007C000
000FC000
001FC000
001F8000
003F0000
003E0000
007C0000
00F80000
00E00000
00400000
00000000
00000000
00FF0000
07FFC000
0FFFE000
1F0FE000
3F07F000
7F07F000
7F03F000
7E03F000
3E03F800
3C03F800
000FF800
007FF800
03FFF800
0FF3F800
1FC3F800
3F03F800
7E03F800
7E03F800
FE03F800
FE03F800
FE03F800
FE07F800
7F0FF900
7FFFFF80
3FF1FF00
0FC07C00
ENDCHAR
STARTCHAR acircumflex
ENCODING 226
SWIDTH 534 0
DWIDTH 27 0
BBX 25 39 2 -1
BITMAP
00780000
00FC0000
00FC0000
01FE0000
03FF0000
07CF8000
07878000
0F03C000
1E01E000
08004000
00000000
00000000
00000000
00FF0000
07FFC000
0FFFE000
1F0FE000
3F07F000
7F07F000
7F03F000
7E03F000
3E03F800
3C03F800
000FF800
007FF800
03FFF800
0FF3F800
1FC3F800
3F03F800
7E03F800
7E03F800
FE03F800
FE03F800
FE03F800
FE07F800
7F0FF900
7FFFFF80
3FF1FF00
0FC07C00
ENDCHAR
STARTCHAR atilde
ENCODING 227
SWIDTH 534 0
DWIDTH 27 0
BBX 25 37 2 -1
BITMAP
03F00000
07F83000
0FFC3000
0FFE7000
0E7FF000
0C3FF000
0C1FE000
00078000
00000000
00000000
00000000
00FF0000
07FFC000
0FFFE000
1F0FE000
3F07F000
7F07F000
7F03F000
7E03F000
3E03F800
3C03F800
000FF800
007FF800
03FFF800
0FF3F800
1FC3F800
3F03F800
7E03F800
7E03F800
FE03F800
FE03F800
FE03F800
FE07F800
7F0FF900
7FFFFF80
3FF1FF00
0FC07C00
ENDCHAR
STARTCHAR adieresis
ENCODING 228
SWIDTH 534 0
DWIDTH 27 0
BBX 25 37 2 -1
BITMAP
0E01C000
3F03F000
3F87F000
3F87F000
3F87F000
3F03F000
1E01E000
00000000
00000000
00000000
00000000
00FF0000
07FFC000
0FFFE000
1F0FE000
3F07F000
7F07F000
7F03F000
7E03F000
3E03F800
3C03F800
000FF800
007FF800
03FFF800
0FF3F800
1FC3F800
3F03F800
7E03F800
7E03F800
FE03F800
FE03F800
FE03F800
FE07F800
7F0FF900
7FFFFF80
3FF1FF00
0FC07C00
ENDCHAR
STARTCHAR aring
ENCODING 229
SWIDTH 534 0
DWIDTH 27 0
BBX 25 38 2 -1
BITMAP
00FC0000
01FE0000
03870000
07038000
07038000
07038000
07038000
03870000
01FE0000
00FC0000
00000000
00000000
00FF0000
07FFC000
0FFFE000
1F0FE000
3F07F000
7F07F000
7F03F000
7E03F000
3E03F800
3C03F800
000FF800
007FF800
03FFF800
0FF3F800
1FC3F800
3F03F800
7E03F800
7E03F800
FE03F800
FE03F800
FE03F800
FE07F800
7F0FF900
7FFFFF80
3FF1FF00
0FC07C00
ENDCHAR
STARTCHAR ae
ENCODING 230
SWIDTH 804 0
DWIDTH 40 0
BBX 37 26 2 -1
BITMAP
01FE01FC00
07FF87FF00
0FFFFFFF80
1F0FFF8FC0
3F07FE07E0
3F07FC03E0
7F03FC03F0
7E03FC03F0
7E03F803F0
3C03F803F0
000FF807F0
007FFFFFF8
03FFFFFFF0
0FF3FFFFF0
1FC3F80000
3F03F80000
7E03F80000
7E03F80000
FE03FC0000
FE01FC0020
FE01FE0070
FE03FF00E0
7F0EFF81E0
7FFC3FFFC0
3FF81FFF80
0FE003FC00
ENDCHAR
STARTCHAR ccedilla
ENCODING 231
SWIDTH 510 0
DWIDTH 26 0
BBX 22 36 2 -11
BITMAP
007F00
03FFC0
07FFE0
0FF1F0
1FC1F8
3F80FC
7F00FC
7F00FC
FF00FC
FE0078
FE0000
FE0000
FE0000
FE0000
FE0000
FE0000
FE0000
FF0000
7F0000
7F0008
7F801C
3FC038
1FF078
0FFFF0
07FFE0
00FF00
003000
003000
003C00
003F00
004F80
000780
000780
000F80
01FF00
01FC00
ENDCHAR
STARTCHAR egrave
ENCODING 232
SWIDTH 527 0
DWIDTH 26 0
BBX 23 39 2 -1
BITMAP
01C000
03E000
03F000
03F800
01F800
00FC00
007C00
003E00
001E00
000700
000200
000000
000000
007F00
03FFC0
07FFE0
1FE3F0
1F81F8
3F80F8
7F00FC
7F00FC
FE00FC
FE00FE
FE01FE
FFFFFE
FFFFFE
FFFFFC
FE0000
FE0000
FE0000
FE0000
7F0000
7F0008
7F800C
3FC01C
1FF078
0FFFF0
07FFE0
00FF00
ENDCHAR
STARTCHAR eacute
ENCODING 233
SWIDTH 527 0
DWIDTH 26 0
BBX 23 39 2 -1
BITMAP
0001C0
0003E0
0007E0
000FE0
000FC0
001F80
001F00
003E00
007C00
007000
002000
000000
000000
007F00
03FFC0
07FFE0
1FE3F0
1F81F8
3F80F8
7F00FC
7F00FC
FE00FC
FE00FE
FE01FE
FFFFFE
FFFFFE
FFFFFC
FE0000
FE0000
FE0000
FE0000
7F0000
7F0008
7F800C
3FC01C
1FF078
0FFFF0
07FFE0
00FF00
ENDCHAR
STARTCHAR ecircumflex
ENCODING 234
SWIDTH 527 0
DWIDTH 26 0
BBX 23 39 2 -1
BITMAP
003C00
007E00
007E00
00FF00
01FF80
03E7C0
03C3C0
0781E0
0F00F0
040020
000000
000000
000000
007F00
03FFC0
07FFE0
1FE3F0
1F81F8
3F80F8
7F00FC
7F00FC
FE00FC
FE00FE
FE01FE
FFFFFE
FFFFFE
FFFFFC
FE0000
FE0000
FE0000
FE0000
7F0000
7F0008
7F800C
3FC01C
1FF078
0FFFF0
07FFE0
00FF00
ENDCHAR
STARTCHAR edieresis
ENCODING 235
SWIDTH 527 0
DWIDTH 26 0
BBX 23 37 2 -1
BITMAP
0700E0
1F81F8
1FC3F8
1FC3F8
1FC3F8
1F81F8
0F00F0
000000
000000
000000
000000
007F00
03FFC0
07FFE0
1FE3F0
1F81F8
3F80F8
7F00FC
7F00FC
FE00FC
FE00FE
FE01FE
FFFFFE
FFFFFE
FFFFFC
FE0000
FE0000
FE0000
FE0000
7F0000
7F0008
7F800C
3FC01C
1FF078
0FFFF0
07FFE0
00FF00
ENDCHAR
STARTCHAR igrave
ENCODING 236
SWIDTH 309 0
DWIDTH 15 0
BBX 14 38 1 0
BITMAP
7000
F800
FC00
FE00
7E00
3F00
1F00
0F80
0780
01C0
0080
0000
0000
0060
03E0
1FE0
FFE0
FFE0
FFE0
0FE0
0FE0
0FE0
0FE0
0FE0
0FE0
0FE0
0FE0
0FE0
0FE0
0FE0
0FE0
0FE0
0FE0
0FE0
0FE0
3FF8
7FFC
7FFC
ENDCHAR
STARTCHAR iacute
ENCODING 237
SWIDTH 309 0
DWIDTH 15 0
BBX 13 38 2 0
BITMAP
00E0
01F0
03F0
07F0
07E0
0FC0
0F80
1F00
3E00
3800
1000
0000
0000
00C0
07C0
3FC0
FFC0
FFC0
FFC0
1FC0
1FC0
1FC0
1FC0
1FC0
1FC0
1FC0
1FC0
1FC0
1FC0
1FC0
1FC0
1FC0
1FC0
1FC0
1FC0
7FF0
FFF8
FFF8
ENDCHAR
STARTCHAR icircumflex
ENCODING 238
SWIDTH 309 0
DWIDTH 15 0
BBX 16 38 1 0
BITMAP
03C0
07E0
07E0
0FF0
1FF8
3E7C
3C3C
781E
F00F
4002
0000
0000
0000
0060
03E0
1FE0
FFE0
FFE0
FFE0
0FE0
0FE0
0FE0
0FE0
0FE0
0FE0
0FE0
0FE0
0FE0
0FE0
0FE0
0FE0
0FE0
0FE0
0FE0
0FE0
3FF8
7FFC
7FFC
ENDCHAR
STARTCHAR idieresis
ENCODING 239
SWIDTH 309 0
DWIDTH 15 0
BBX 18 36 -1 0
BITMAP
380700
FC0FC0
FE1FC0
FE1FC0
FE1FC0
FC0FC0
780780
000000
000000
000000
000000
001800
00F800
07F800
3FF800
3FF800
3FF800
03F800
03F800
03F800
03F800
03F800
03F800
03F800
03F800
03F800
03F800
03F800
03F800
03F800
03F800
03F800
03F800
0FFE00
1FFF00
1FFF00
ENDCHAR
STARTCHAR eth
ENCODING 240
SWIDTH 545 0
DWIDTH 27 0
BBX 23 38 2 -1
BITMAP
060008
078038
0FE0FC
03F3F8
00FFE0
007F80
00FF00
03FF80
0FFFC0
0FC7E0
0703F0
0403F0
0001F8
00FDF8
03FFFC
0FFFFC
1FC3FC
3F81FE
3F01FE
7F00FE
7E00FE
FE00FE
FE00FE
FE007E
FE007E
FE007E
FE007E
FE00FE
FE00FE
FE00FE
7E00FC
7F00FC
7F01F8
3F81F8
1FC3F0
0FFFE0
07FF80
00FE00
ENDCHAR
STARTCHAR ntilde
ENCODING 241
SWIDTH 624 0
DWIDTH 31 0
BBX 28 36 2 0
BITMAP
00FC0000
01FE0C00
03FF0C00
03FF9C00
039FFC00
030FFC00
0307F800
0001E000
00000000
00000000
00000000
0181F800
0F87FE00
3F8FFF00
FFDFFF00
FFF87F80
FFF03F80
1FC03F80
1FC03F80
1FC03F80
1FC03F80
1FC03F80
1FC03F80
1FC03F80
1FC03F80
1FC03F80
1FC03F80
1FC03F80
1FC03F80
1FC03F80
1FC03F80
1FC03F80
1FC03F80
7FF0FFE0
FFF9FFF0
FFF9FFF0
ENDCHAR
STARTCHAR ograve
ENCODING 242
SWIDTH 566 0
DWIDTH 28 0
BBX 25 39 2 -1
BITMAP
03800000
07C00000
07E00000
07F00000
03F00000
01F80000
00F80000
007C0000
003C0000
000E0000
00040000
00000000
00000000
007F0000
03FFC000
0FFFF000
1FC3F800
3F81FC00
3F00FE00
7F00FE00
7E007F00
FE007F00
FE007F00
FE007F80
FE007F80
FE007F80
FE007F80
FE007F80
FE007F80
FE007F00
FE007F00
FE007F00
7F007E00
7F00FE00
3F81FC00
1FC3F800
0FFFF000
03FFE000
00FF0000
ENDCHAR
STARTCHAR oacute
ENCODING 243
SWIDTH 566 0
DWIDTH 28 0
BBX 25 39 2 -1
BITMAP
0001C000
0003E000
0007E000
000FE000
000FC000
001F8000
001F0000
003E0000
007C0000
00700000
00200000
00000000
00000000
007F0000
03FFC000
0FFFF000
1FC3F800
3F81FC00
3F00FE00
7F00FE00
7E007F00
FE007F00
FE007F00
FE007F80
FE007F80
FE007F80
FE007F80
FE007F80
FE007F80
FE007F00
FE007F00
FE007F00
7F007E00
7F00FE00
3F81FC00
1FC3F800
0FFFF000
03FFE000
00FF0000
ENDCHAR
STARTCHAR ocircumflex
ENCODING 244
SWIDTH 566 0
DWIDTH 28 0
BBX 25 39 2 -1
BITMAP
003C0000
007E0000
007E0000
00FF0000
01FF8000
03E7C000
03C3C000
0781E000
0F00F000
04002000
00000000
00000000
00000000
007F0000
03FFC000
0FFFF000
1FC3F800
3F81FC00
3F00FE00
7F00FE00
7E007F00
FE007F00
FE007F00
FE007F80
FE007F80
FE007F80
FE007F80
FE007F80
FE007F80
FE007F00
FE007F00
FE007F00
7F007E00
7F00FE00
3F81FC00
1FC3F800
0FFFF000
03FFE000
00FF0000
ENDCHAR
STARTCHAR otilde
ENCODING 245
SWIDTH 566 0
DWIDTH 28 0
BBX 25 37 2 -1
BITMAP
03F00000
07F83000
0FFC3000
0FFE7000
0E7FF000
0C3FF000
0C1FE000
00078000
00000000
00000000
00000000
007F0000
03FFC000
0FFFF000
1FC3F800
3F81FC00
3F00FE00
7F00FE00
7E007F00
FE007F00
FE007F00
FE007F80
FE007F80
FE007F80
FE007F80
FE007F80
FE007F80
FE007F00
FE007F00
FE007F00
7F007E00
7F00FE00
3F81FC00
1FC3F800
0FFFF000
03FFE000
00FF0000
ENDCHAR
STARTCHAR odieresis
ENCODING 246
SWIDTH 566 0
DWIDTH 28 0
BBX 25 37 2 -1
BITMAP
0700E000
1F81F800
1FC3F800
1FC3F800
1FC3F800
1F81F800
0F00F000
00000000
00000000
00000000
00000000
007F0000
03FFC000
0FFFF000
1FC3F800
3F81FC00
3F00FE00
7F00FE00
7E007F00
FE007F00
FE007F00
FE007F80
FE007F80
FE007F80
FE007F80
FE007F80
FE007F80
FE007F00
FE007F00
FE007F00
7F007E00
7F00FE00
3F81FC00
1FC3F800
0FFFF000
03FFE000
00FF0000
ENDCHAR
STARTCHAR divide
ENCODING 247
SWIDTH 530 0
DWIDTH 27 0
BBX 23 27 2 3
BITMAP
007800
00FC00
00FE00
00FE00
00FE00
00FC00
007800
000000
000000
000000
000000
000000
000000
FFFFFE
FFFFFE
FFFFFE
000000
000000
000000
000000
007800
00FC00
00FE00
00FE00
00FE00
00FC00
007800
ENDCHAR
STARTCHAR oslash
ENCODING 248
SWIDTH 566 0
DWIDTH 28 0
BBX 25 26 2 -1
BITMAP
007F0800
03FFDC00
0FFFFE00
1FC3F800
3F81FC00
3F00FC00
7F01FE00
7E03FF00
FE07FF00
FE077F00
FE0E7F80
FE1E7F80
FE3C7F80
FE787F80
FEF07F80
FEE07F80
FFC07F00
FFC07F00
7F807F00
7F007E00
3F00FE00
3F81FC00
3FC3F800
7FFFF000
73FFE000
20FF0000
ENDCHAR
STARTCHAR ugrave
ENCODING 249
SWIDTH 602 0
DWIDTH 30 0
BBX 27 39 2 -1
BITMAP
01C00000
03E00000
03F00000
03F80000
01F80000
00FC0000
007C0000
003E0000
001E0000
00070000
00020000
00000000
00000000
00000000
1F801F00
FF81FF00
FF81FF00
3F807F00
3F807F00
3F807F00
3F807F00
3F807F00
3F807F00
3F807F00
3F807F00
3F807F00
3F807F00
3F807F00
3F807F00
3F807F00
3F807F00
3F807F00
3F807F00
3FC1FF00
1FC3FF00
1FFFFF00
0FFF3FE0
0FFC3FE0
03F03FE0
ENDCHAR
STARTCHAR uacute
ENCODING 250
SWIDTH 602 0
DWIDTH 30 0
BBX 27 39 2 -1
BITMAP
00038000
0007C000
000FC000
001FC000
001F8000
003F0000
003E0000
007C0000
00F80000
00E00000
00400000
00000000
00000000
00000000
1F801F00
FF81FF00
FF81FF00
3F807F00
3F807F00
3F807F00
3F807F00
3F807F00
3F807F00
3F807F00
3F807F00
3F807F00
3F807F00
3F807F00
3F807F00
3F807F00
3F807F00
3F807F00
3F807F00
3FC1FF00
1FC3FF00
1FFFFF00
0FFF3FE0
0FFC3FE0
03F03FE0
ENDCHAR
STARTCHAR ucircumflex
ENCODING 251
SWIDTH 602 0
DWIDTH 30 0
BBX 27 39 2 -1
BITMAP
001E0000
003F0000
003F0000
007F8000
00FFC000
01F3E000
01E1E000
03C0F000
07807800
02001000
00000000
00000000
00000000
00000000
1F801F00
FF81FF00
FF81FF00
3F807F00
3F807F00
3F807F00
3F807F00
3F807F00
3F807F00
3F807F00
3F807F00
3F807F00
3F807F00
3F807F00
3F807F00
3F807F00
3F807F00
3F807F00
3F807F00
3FC1FF00
1FC3FF00
1FFFFF00
0FFF3FE0
0FFC3FE0
03F03FE0
ENDCHAR
STARTCHAR udieresis
ENCODING 252
SWIDTH 602 0
DWIDTH 30 0
BBX 27 37 2 -1
BITMAP
03807000
0FC0FC00
0FE1FC00
0FE1FC00
0FE1FC00
0FC0FC00
07807800
00000000
00000000
00000000
00000000
00000000
1F801F00
FF81FF00
FF81FF00
3F807F00
3F807F00
3F807F00
3F807F00
3F807F00
3F807F00
3F807F00
3F807F00
3F807F00
3F807F00
3F807F00
3F807F00
3F807F00
3F807F00
3F807F00
3F807F00
3FC1FF00
1FC3FF00
1FFFFF00
0FFF3FE0
0FFC3FE0
03F03FE0
ENDCHAR
STARTCHAR yacute
ENCODING 253
SWIDTH 527 0
DWIDTH 26 0
BBX 26 49 0 -11
BITMAP
0000E000
0001F000
0003F000
0007F000
0007E000
000FC000
000F8000
001F0000
003E0000
00380000
00100000
00000000
00000000
00000000
FFF87FC0
FFF87FC0
FFF07F80
1FC00E00
1FC01C00
1FE01C00
0FE01800
0FE03800
07F03800
07F03000
07F07000
03F87000
03F86000
01F8E000
01FCC000
00FCC000
00FFC000
00FF8000
007F8000
007F8000
003F0000
003F0000
003F0000
001E0000
001E0000
000C0000
001C0000
001C0000
00380000
7C380000
7F700000
FFE00000
7FE00000
7FC00000
1F000000
ENDCHAR
STARTCHAR thorn
ENCODING 254
SWIDTH 582 0
DWIDTH 29 0
BBX 27 47 0 -11
BITMAP
00E00000
0FE00000
FFE00000
FFE00000
FFE00000
0FE00000
0FE00000
0FE00000
0FE00000
0FE00000
0FE00000
0FE3F800
0FEFFE00
0FFFFF00
0FF87F80
0FF03F80
0FE01FC0
0FE01FC0
0FE00FE0
0FE00FE0
0FE00FE0
0FE00FE0
0FE00FE0
0FE00FE0
0FE00FE0
0FE00FE0
0FE00FE0
0FE00FE0
0FE00FE0
0FE01FC0
0FE01FC0
0FE01FC0
0FF03F80
0FF8FF00
0FFFFE00
0FEFFC00
0FE3F000
0FE00000
0FE00000
0FE00000
0FE00000
0FE00000
0FE00000
0FE00000
3FFC0000
7FFC0000
7FFC0000
ENDCHAR
STARTCHAR ydieresis
ENCODING 255
SWIDTH 527 0
DWIDTH 26 0
BBX 26 47 0 -11
BITMAP
01C03800
07E07E00
07F0FE00
07F0FE00
07F0FE00
07E07E00
03C03C00
00000000
00000000
00000000
00000000
00000000
FFF87FC0
FFF87FC0
FFF07F80
1FC00E00
1FC01C00
1FE01C00
0FE01800
0FE03800
07F03800
07F03000
07F07000
03F87000
03F86000
01F8E000
01FCC000
00FCC000
00FFC000
00FF8000
007F8000
007F8000
003F0000
003F0000
003F0000
001E0000
001E0000
000C0000
001C0000
001C0000
00380000
7C380000
7F700000
FFE00000
7FE00000
7FC00000
1F000000
ENDCHAR
STARTCHAR Amacron
ENCODING 256
SWIDTH 673 0
DWIDTH 34 0
BBX 33 41 0 0
BITMAP
007FFF8000
007FFF8000
007FFF8000
007FFF8000
0000000000
0000000000
0000000000
0000000000
0000E00000
0001E00000
0001F00000
0003F00000
0003F00000
0003F80000
0007F80000
0007FC0000
0007FC0000
000EFC0000
000EFE0000
000CFE0000
001C7E0000
00187F0000
00387F0000
00383F8000
00303F8000
00703F8000
00701FC000
00601FC000
00FFFFC000
00FFFFE000
01FFFFE000
01C00FF000
01C007F000
038007F000
038003F800
030003F800
070003F800
070001FC00
7FE00FFF00
FFF01FFF80
FFF01FFF80
ENDCHAR
STARTCHAR amacron
ENCODING 257
SWIDTH 534 0
DWIDTH 27 0
BBX 25 35 2 -1
BITMAP
1FFFE000
1FFFE000
1FFFE000
1FFFE000
00000000
00000000
00000000
00000000
00000000
00FF0000
07FFC000
0FFFE000
1F0FE000
3F07F000
7F07F000
7F03F000
7E03F000
3E03F800
3C03F800
000FF800
007FF800
03FFF800
0FF3F800
1FC3F800
3F03F800
7E03F800
7E03F800
FE03F800
FE03F800
FE03F800
FE07F800
7F0FF900
7FFFFF80
3FF1FF00
0FC07C00
ENDCHAR
STARTCHAR Abreve
ENCODING 258
SWIDTH 673 0
DWIDTH 34 0
BBX 33 44 0 0
BITMAP
0020010000
0070038000
0078078000
003E1F0000
003FFF0000
001FFE0000
000FFC0000
0003F00000
0000000000
0000000000
0000000000
0000E00000
0001E00000
0001F00000
0003F00000
0003F00000
0003F80000
0007F80000
0007FC0000
0007FC0000
000EFC0000
000EFE0000
000CFE0000
001C7E0000
00187F0000
00387F0000
00383F8000
00303F8000
00703F8000
00701FC000
00601FC000
00FFFFC000
00FFFFE000
01FFFFE000
01C00FF000
01C007F000
038007F000
038003F800
030003F800
070003F800
070001FC00
7FE00FFF00
FFF01FFF80
FFF01FFF80
ENDCHAR
STARTCHAR abreve
ENCODING 259
SWIDTH 534 0
DWIDTH 27 0
BBX 25 38 2 -1
BITMAP
0C007000
0E007000
0F00F000
07C3E000
07FFE000
03FFC000
01FF8000
007E0000
00000000
00000000
00000000
00000000
00FF0000
07FFC000
0FFFE000
1F0FE000
3F07F000
7F07F000
7F03F000
7E03F000
3E03F800
3C03F800
000FF800
007FF800
03FFF800
0FF3F800
1FC3F800
3F03F800
7E03F800
7E03F800
FE03F800
FE03F800
FE03F800
FE07F800
7F0FF900
7FFFFF80
3FF1FF00
0FC07C00
ENDCHAR
STARTCHAR Aogonek
ENCODING 260
SWIDTH 673 0
DWIDTH 34 0
BBX 34 45 0 -12
BITMAP
0000E00000
0001E00000
0001F00000
0003F00000
0003F00000
0003F80000
0007F80000
0007FC0000
0007FC0000
000EFC0000
000EFE0000
000CFE0000
001C7E0000
00187F0000
00387F0000
00383F8000
00303F8000
00703F8000
00701FC000
00601FC000
00FFFFC000
00FFFFE000
01FFFFE000
01C00FF000
01C007F000
038007F000
038003F800
030003F800
070003F800
070001FC00
7FE00FFF00
FFF01FFF80
FFF01FFF80
0000003000
0000007000
000000E000
000001E000
000003E000
000003E000
000003E000
000003F000
000003FF80
000001FFC0
000001FF80
0000007C00
ENDCHAR
STARTCHAR aogonek
ENCODING 261
SWIDTH 534 0
DWIDTH 27 0
BBX 25 37 2 -12
BITMAP
00FF0000
07FFC000
0FFFE000
1F0FE000
3F07F000
7F07F000
7F03F000
7E03F000
3E03F800
3C03F800
000FF800
007FF800
03FFF800
0FF3F800
1FC3F800
3F03F800
7E03F800
7E03F800
FE03F800
FE03F800
FE03F800
FE07F800
7F0FF900
7FFDFF80
3FF0FF00
0FC03E00
0000F800
0001F000
0001E000
0003E000
0003C000
0003E000
0003F000
0003FF80
0003FF80
0001FF00
00007C00
ENDCHAR
STARTCHAR Cacute
ENCODING 262
SWIDTH 622 0
DWIDTH 31 0
BBX 27 45 2 -1
BITMAP
00001C00
00007C00
0000FE00
0001FC00
0003F800
0007F000
000FC000
001F0000
000C0000
00000000
0007FC00
007FFF80
01FFFFE0
03FE07E0
07F803E0
0FE003E0
1FC003E0
3FC003E0
3F8001E0
7F8001E0
7F000000
FF000000
FF000000
FE000000
FE000000
FE000000
FE000000
FE000000
FE000000
FE000000
FE000000
FE000000
FF000000
FF000000
7F000000
7F8001E0
7F8001E0
3FC001E0
1FC001E0
1FE001E0
0FF003E0
07FE07E0
01FFFFE0
007FFF80
000FFC00
ENDCHAR
STARTCHAR cacute
ENCODING 263
SWIDTH 510 0
DWIDTH 26 0
BBX 22 39 2 -1
BITMAP
0001C0
0003E0
0007E0
000FE0
000FC0
001F80
001F00
003E00
007C00
007000
002000
000000
000000
007F00
03FFC0
07FFE0
0FF1F0
1FC1F8
3F80FC
7F00FC
7F00FC
FF00FC
FE0078
FE0000
FE0000
FE0000
FE0000
FE0000
FE0000
FE0000
FF0000
7F0000
7F0008
7F801C
3FC038
1FF078
0FFFF0
07FFE0
00FF00
ENDCHAR
STARTCHAR Ccaron
ENCODING 268
SWIDTH 622 0
DWIDTH 31 0
BBX 27 44 2 -1
BITMAP
00300300
003C0F00
001E1E00
001F3E00
000FFC00
0007F800
0003F000
0001E000
00000000
0007FC00
007FFF80
01FFFFE0
03FE07E0
07F803E0
0FE003E0
1FC003E0
3FC003E0
3F8001E0
7F8001E0
7F000000
FF000000
FF000000
FE000000
FE000000
FE000000
FE000000
FE000000
FE000000
FE000000
FE000000
FE000000
FF000000
FF000000
7F000000
7F8001E0
7F8001E0
3FC001E0
1FC001E0
1FE001E0
0FF003E0
07FE07E0
01FFFFE0
007FFF80
000FFC00
ENDCHAR
STARTCHAR ccaron
ENCODING 269
SWIDTH 510 0
DWIDTH 26 0
BBX 22 39 2 -1
BITMAP
020020
030030
078078
01C0E0
01E1E0
00F3C0
007F80
007F80
003F00
001E00
000000
000000
000000
007F00
03FFC0
07FFE0
0FF1F0
1FC1F8
3F80FC
7F00FC
7F00FC
FF00FC
FE0078
FE0000
FE0000
FE0000
FE0000
FE0000
FE0000
FE0000
FF0000
7F0000
7F0008
7F801C
3FC038
1FF078
0FFFF0
07FFE0
00FF00
ENDCHAR
STARTCHAR Dcaron
ENCODING 270
SWIDTH 692 0
DWIDTH 35 0
BBX 31 43 2 0
BITMAP
00C00C00
00F03C00
00787800
007CF800
003FF000
001FE000
000FC000
00078000
00000000
00000000
FFFFE000
FFFFFC00
FFFFFF00
0FE0FFC0
0FE03FE0
0FE00FF0
0FE007F0
0FE007F8
0FE003FC
0FE003FC
0FE001FC
0FE001FE
0FE001FE
0FE001FE
0FE001FE
0FE001FE
0FE001FE
0FE001FE
0FE001FE
0FE001FE
0FE001FE
0FE001FC
0FE001FC
0FE003FC
0FE003F8
0FE007F8
0FE007F0
0FE00FE0
0FE03FC0
0FE0FF80
FFFFFF00
FFFFFC00
FFFFE000
ENDCHAR
STARTCHAR dcaron
ENCODING 271
SWIDTH 612 0
DWIDTH 31 0
BBX 33 38 2 -1
BITMAP
0000000F00
0000070F80
0000FF0F80
0007FF0F80
0007FF0F00
0007FF0F00
00007F0F00
00007F0E00
00007F1E00
00007F1C00
00007F1C00
00007F0000
01FC7F0000
07FF7F0000
0FFFFF0000
1FE3FF0000
3F80FF0000
7F807F0000
7F007F0000
7F007F0000
FE007F0000
FE007F0000
FE007F0000
FE007F0000
FE007F0000
FE007F0000
FE007F0000
FE007F0000
FE007F0000
FE007F0000
FF007F0000
7F007F0000
7F007F0000
3F80FF0000
3FC3FF0000
1FFFFF0000
0FFE7FC000
01F87FC000
ENDCHAR
STARTCHAR Dcroat
ENCODING 272
SWIDTH 692 0
DWIDTH 35 0
BBX 31 33 2 0
BITMAP
FFFFE000
FFFFFC00
FFFFFF00
0FE0FFC0
0FE03FE0
0FE00FF0
0FE007F0
0FE007F8
0FE003FC
0FE003FC
0FE001FC
0FE001FE
0FE001FE
0FE001FE
FFFFC1FE
FFFFC1FE
FFFFC1FE
0FE001FE
0FE001FE
0FE001FE
0FE001FE
0FE001FC
0FE001FC
0FE003FC
0FE003F8
0FE007F8
0FE007F0
0FE00FE0
0FE03FC0
0FE0FF80
FFFFFF00
FFFFFC00
FFFFE000
ENDCHAR
STARTCHAR dcroat
ENCODING 273
SWIDTH 592 0
DWIDTH 30 0
BBX 26 37 2 -1
BITMAP
00000700
0000FF00
0007FF00
0007FF00
0007FF00
00007F00
00007F00
00FFFFC0
00FFFFC0
00FFFFC0
00007F00
00007F00
01FC7F00
07FF7F00
0FFFFF00
1FE3FF00
3F80FF00
7F807F00
7F007F00
7F007F00
FE007F00
FE007F00
FE007F00
FE007F00
FE007F00
FE007F00
FE007F00
FE007F00
FE007F00
FF007F00
7F007F00
7F007F00
3F81FF00
3FC3FF00
1FFF7F00
0FFE7FC0
03F87FC0
ENDCHAR
STARTCHAR Emacron
ENCODING 274
SWIDTH 598 0
DWIDTH 30 0
BBX 27 41 2 0
BITMAP
01FFFE00
01FFFE00
01FFFE00
01FFFE00
00000000
00000000
00000000
00000000
FFFFFF80
FFFFFF80
FFFFFF80
0FE00780
0FE00780
0FE007C0
0FE007C0
0FE003C0
0FE003C0
0FE03800
0FE03800
0FE03800
0FE03800
0FE03800
0FFFF800
0FFFF800
0FFFF800
0FE03800
0FE03800
0FE03800
0FE03800
0FE03800
0FE00000
0FE00000
0FE001E0
0FE001E0
0FE003E0
0FE003E0
0FE003C0
0FE003C0
FFFFFFC0
FFFFFFC0
FFFFFFC0
ENDCHAR
STARTCHAR emacron
ENCODING 275
SWIDTH 527 0
DWIDTH 26 0
BBX 23 35 2 -1
BITMAP
0FFFF0
0FFFF0
0FFFF0
0FFFF0
000000
000000
000000
000000
000000
007F00
03FFC0
07FFE0
1FE3F0
1F81F8
3F80F8
7F00FC
7F00FC
FE00FC
FE00FE
FE01FE
FFFFFE
FFFFFE
FFFFFC
FE0000
FE0000
FE0000
FE0000
7F0000
7F0008
7F800C
3FC01C
1FF078
0FFFF0
07FFE0
00FF00
ENDCHAR
STARTCHAR Edotaccent
ENCODING 278
SWIDTH 598 0
DWIDTH 30 0
BBX 27 44 2 0
BITMAP
000F0000
001F8000
003FC000
003FC000
003FC000
003FC000
001F8000
000F0000
00000000
00000000
00000000
FFFFFF80
FFFFFF80
FFFFFF80
0FE00780
0FE00780
0FE007C0
0FE007C0
0FE003C0
0FE003C0
0FE03800
0FE03800
0FE03800
0FE03800
0FE03800
0FFFF800
0FFFF800
0FFFF800
0FE03800
0FE03800
0FE03800
0FE03800
0FE03800
0FE00000
0FE00000
0FE001E0
0FE001E0
0FE003E0
0FE003E0
0FE003C0
0FE003C0
FFFFFFC0
FFFFFFC0
FFFFFFC0
ENDCHAR
STARTCHAR edotaccent
ENCODING 279
SWIDTH 527 0
DWIDTH 26 0
BBX 23 38 2 -1
BITMAP
003C00
007E00
00FF00
00FF00
00FF00
00FF00
007E00
003C00
000000
000000
000000
000000
007F00
03FFC0
07FFE0
1FE3F0
1F81F8
3F80F8
7F00FC
7F00FC
FE00FC
FE00FE
FE01FE
FFFFFE
FFFFFE
FFFFFC
FE0000
FE0000
FE0000
FE0000
7F0000
7F0008
7F800C
3FC01C
1FF078
0FFFF0
07FFE0
00FF00
ENDCHAR
STARTCHAR Eogonek
ENCODING 280
SWIDTH 598 0
DWIDTH 30 0
BBX 27 45 2 -12
BITMAP
FFFFFF80
FFFFFF80
FFFFFF80
0FE00780
0FE00780
0FE007C0
0FE007C0
0FE003C0
0FE003C0
0FE03800
0FE03800
0FE03800
0FE03800
0FE03800
0FFFF800
0FFFF800
0FFFF800
0FE03800
0FE03800
0FE03800
0FE03800
0FE03800
0FE00000
0FE00000
0FE001E0
0FE001E0
0FE003E0
0FE003E0
0FE003C0
0FE003C0
FFFFFFC0
FFFFFFC0
FFFFFFC0
00001800
00003800
00007000
0000F000
0001F000
0001F000
0001F000
0001F800
0001FFC0
0000FFE0
0000FFC0
00003E00
ENDCHAR
STARTCHAR eogonek
ENCODING 281
SWIDTH 527 0
DWIDTH 26 0
BBX 23 37 2 -12
BITMAP
007F00
03FFC0
07FFE0
1FE3F0
1F81F8
3F80F8
7F00FC
7F00FC
FE00FC
FE00FE
FE01FE
FFFFFE
FFFFFE
FFFFFC
FE0000
FE0000
FE0000
FE0000
7F0000
7F0008
7F800C
3FC01C
1FF078
0FFFF0
07FFE0
00FFC0
000780
000F00
001E00
001E00
003E00
003E00
003F80
003FFC
001FFC
000FF8
0007E0
ENDCHAR
STARTCHAR Ecaron
ENCODING 282
SWIDTH 598 0
DWIDTH 30 0
BBX 27 43 2 0
BITMAP
01801800
01E07800
00F0F000
00F9F000
007FE000
003FC000
001F8000
000F0000
00000000
00000000
FFFFFF80
FFFFFF80
FFFFFF80
0FE00780
0FE00780
0FE007C0
0FE007C0
0FE003C0
0FE003C0
0FE03800
0FE03800
0FE03800
0FE03800
0FE03800
0FFFF800
0FFFF800
0FFFF800
0FE03800
0FE03800
0FE03800
0FE03800
0FE03800
0FE00000
0FE00000
0FE001E0
0FE001E0
0FE003E0
0FE003E0
0FE003C0
0FE003C0
FFFFFFC0
FFFFFFC0
FFFFFFC0
ENDCHAR
STARTCHAR ecaron
ENCODING 283
SWIDTH 527 0
DWIDTH 26 0
BBX 23 39 2 -1
BITMAP
020020
030030
078078
01C0E0
01E1E0
00F3C0
007F80
007F80
003F00
001E00
000000
000000
000000
007F00
03FFC0
07FFE0
1FE3F0
1F81F8
3F80F8
7F00FC
7F00FC
FE00FC
FE00FE
FE01FE
FFFFFE
FFFFFE
FFFFFC
FE0000
FE0000
FE0000
FE0000
7F0000
7F0008
7F800C
3FC01C
1FF078
0FFFF0
07FFE0
00FF00
ENDCHAR
STARTCHAR Gbreve
ENCODING 286
SWIDTH 674 0
DWIDTH 34 0
BBX 31 45 2 -1
BITMAP
00200100
00700380
00780780
003E1F00
003FFF00
001FFE00
000FFC00
0003F000
00000000
00000000
0007FC00
003FFF80
00FFFFE0
03FE07E0
07F001E0
0FE001E0
1FC001E0
3FC001E0
3F8001E0
7F0001E0
7F000000
FF000000
FF000000
FE000000
FE000000
FE000000
FE000000
FE000000
FE007FFE
FE007FFE
FE007FFE
FE000FF0
FF000FF0
FF000FF0
7F000FF0
7F800FF0
3F800FF0
3FC00FF0
1FC00FF0
0FE00FF0
07F80FF0
03FE0FF0
01FFFFE0
007FFF80
000FF800
ENDCHAR
STARTCHAR gbreve
ENCODING 287
SWIDTH 544 0
DWIDTH 27 0
BBX 25 47 1 -10
BITMAP
0C007000
0E007000
0F00F000
07C3E000
07FFE000
03FFC000
01FF8000
007E0000
00000000
00000000
00000000
00000000
00FE0180
03FFCF80
0FFFFF80
1FC3FF80
1F81F800
3F01F800
3F01F800
3F00FC00
3F00FC00
3F00FC00
3F01F800
3F01F800
1F81F800
0FC3F000
07FFE000
07FFC000
0FFE0000
1E000000
1E000000
3F000000
3FFFF000
3FFFFC00
1FFFFF00
1FFFFF00
0FFFFF80
0FFFFF80
1E003F80
7C001F80
7C001F80
7C001F00
FE003F00
7F00FE00
7FFFF800
3FFFF000
07FF0000
ENDCHAR
STARTCHAR Gdotaccent
ENCODING 288
SWIDTH 674 0
DWIDTH 34 0
BBX 31 45 2 -1
BITMAP
0001E000
0003F000
0007F800
0007F800
0007F800
0007F800
0003F000
0001E000
00000000
00000000
0007FC00
003FFF80
00FFFFE0
03FE07E0
07F001E0
0FE001E0
1FC001E0
3FC001E0
3F8001E0
7F0001E0
7F000000
FF000000
FF000000
FE000000
FE000000
FE000000
FE000000
FE000000
FE007FFE
FE007FFE
FE007FFE
FE000FF0
FF000FF0
FF000FF0
7F000FF0
7F800FF0
3F800FF0
3FC00FF0
1FC00FF0
0FE00FF0
07F80FF0
03FE0FF0
01FFFFE0
007FFF80
000FF800
ENDCHAR
STARTCHAR gdotaccent
ENCODING 289
SWIDTH 544 0
DWIDTH 27 0
BBX 25 47 1 -10
BITMAP
003C0000
007E0000
00FF0000
00FF0000
00FF0000
00FF0000
007E0000
003C0000
00000000
00000000
00000000
00000000
00FE0180
03FFCF80
0FFFFF80
1FC3FF80
1F81F800
3F01F800
3F01F800
3F00FC00
3F00FC00
3F00FC00
3F01F800
3F01F800
1F81F800
0FC3F000
07FFE000
07FFC000
0FFE0000
1E000000
1E000000
3F000000
3FFFF000
3FFFFC00
1FFFFF00
1FFFFF00
0FFFFF80
0FFFFF80
1E003F80
7C001F80
7C001F80
7C001F00
FE003F00
7F00FE00
7FFFF800
3FFFF000
07FF0000
ENDCHAR
STARTCHAR uni0122
ENCODING 290
SWIDTH 674 0
DWIDTH 34 0
BBX 31 48 2 -14
BITMAP
0007FC00
003FFF80
00FFFFE0
03FE07E0
07F001E0
0FE001E0
1FC001E0
3FC001E0
3F8001E0
7F0001E0
7F000000
FF000000
FF000000
FE000000
FE000000
FE000000
FE000000
FE000000
FE007FFE
FE007FFE
FE007FFE
FE000FF0
FF000FF0
FF000FF0
7F000FF0
7F800FF0
3F800FF0
3FC00FF0
1FC00FF0
0FE00FF0
07F80FF0
03FE0FF0
01FFFFE0
007FFF80
000FF800
00000000
0001E000
0003F000
0003F000
0003F000
0003F000
0003F000
0001F000
0000E000
0001C000
00078000
000F0000
00080000
ENDCHAR
STARTCHAR uni0123
ENCODING 291
SWIDTH 544 0
DWIDTH 27 0
BBX 25 50 1 -10
BITMAP
00008000
0003C000
000F8000
001E0000
001C0000
003E0000
003F0000
003F0000
003F0000
003F0000
001E0000
00000000
00000000
00000000
00000000
00FE0180
03FFCF80
0FFFFF80
1FC3FF80
1F81F800
3F01F800
3F01F800
3F00FC00
3F00FC00
3F00FC00
3F01F800
3F01F800
1F81F800
0FC3F000
07FFE000
07FFC000
0FFE0000
1E000000
1E000000
3F000000
3FFFF000
3FFFFC00
1FFFFF00
1FFFFF00
0FFFFF80
0FFFFF80
1E003F80
7C001F80
7C001F80
7C001F00
FE003F00
7F00FE00
7FFFF800
3FFFF000
07FF0000
ENDCHAR
STARTCHAR Imacron
ENCODING 298
SWIDTH 376 0
DWIDTH 19 0
BBX 16 41 2 0
BITMAP
FFFF
FFFF
FFFF
FFFF
0000
0000
0000
0000
FFFE
FFFE
FFFE
0FE0
0FE0
0FE0
0FE0
0FE0
0FE0
0FE0
0FE0
0FE0
0FE0
0FE0
0FE0
0FE0
0FE0
0FE0
0FE0
0FE0
0FE0
0FE0
0FE0
0FE0
0FE0
0FE0
0FE0
0FE0
0FE0
0FE0
FFFE
FFFE
FFFE
ENDCHAR
STARTCHAR imacron
ENCODING 299
SWIDTH 309 0
DWIDTH 15 0
BBX 15 34 1 0
BITMAP
FFFE
FFFE
FFFE
FFFE
0000
0000
0000
0000
0000
0060
03E0
1FE0
FFE0
FFE0
FFE0
0FE0
0FE0
0FE0
0FE0
0FE0
0FE0
0FE0
0FE0
0FE0
0FE0
0FE0
0FE0
0FE0
0FE0
0FE0
0FE0
3FF8
7FFC
7FFC
ENDCHAR
STARTCHAR Iogonek
ENCODING 302
SWIDTH 376 0
DWIDTH 19 0
BBX 15 45 2 -12
BITMAP
FFFE
FFFE
FFFE
0FE0
0FE0
0FE0
0FE0
0FE0
0FE0
0FE0
0FE0
0FE0
0FE0
0FE0
0FE0
0FE0
0FE0
0FE0
0FE0
0FE0
0FE0
0FE0
0FE0
0FE0
0FE0
0FE0
0FE0
0FE0
0FE0
0FE0
FFFE
FFFE
FFFE
0180
0380
0700
0F00
1F00
1F00
1F00
1F80
1FFC
0FFE
0FFC
03E0
ENDCHAR
STARTCHAR iogonek
ENCODING 303
SWIDTH 309 0
DWIDTH 15 0
BBX 13 49 2 -12
BITMAP
0F00
1FC0
3FC0
3FC0
3FC0
3FC0
1FC0
0F00
0000
0000
0000
0000
00C0
07C0
3FC0
FFC0
FFC0
FFC0
1FC0
1FC0
1FC0
1FC0
1FC0
1FC0
1FC0
1FC0
1FC0
1FC0
1FC0
1FC0
1FC0
1FC0
1FC0
1FC0
7FF0
FFF8
FFF8
0600
0E00
1C00
3C00
7C00
7C00
7C00
7E00
7FF0
3FF8
3FF0
0F80
ENDCHAR
STARTCHAR Idotaccent
ENCODING 304
SWIDTH 376 0
DWIDTH 19 0
BBX 15 44 2 0
BITMAP
0780
0FC0
1FE0
1FE0
1FE0
1FE0
0FC0
0780
0000
0000
0000
FFFE
FFFE
FFFE
0FE0
0FE0
0FE0
0FE0
0FE0
0FE0
0FE0
0FE0
0FE0
0FE0
0FE0
0FE0
0FE0
0FE0
0FE0
0FE0
0FE0
0FE0
0FE0
0FE0
0FE0
0FE0
0FE0
0FE0
0FE0
0FE0
0FE0
FFFE
FFFE
FFFE
ENDCHAR
STARTCHAR dotlessi
ENCODING 305
SWIDTH 309 0
DWIDTH 15 0
BBX 13 25 2 0
BITMAP
00C0
07C0
3FC0
FFC0
FFC0
FFC0
1FC0
1FC0
1FC0
1FC0
1FC0
1FC0
1FC0
1FC0
1FC0
1FC0
1FC0
1FC0
1FC0
1FC0
1FC0
1FC0
7FF0
FFF8
FFF8
ENDCHAR
STARTCHAR uni0136
ENCODING 310
SWIDTH 701 0
DWIDTH 35 0
BBX 33 47 2 -14
BITMAP
FFFE1FFE00
FFFE1FFE00
FFFE1FFE00
0FE0038000
0FE0070000
0FE00F0000
0FE01E0000
0FE01C0000
0FE0380000
0FE0700000
0FE0E00000
0FE1E00000
0FE1F00000
0FE3F00000
0FE7F80000
0FEFF80000
0FFFFC0000
0FFDFC0000
0FF9FE0000
0FF0FE0000
0FE0FF0000
0FE07F0000
0FE07F8000
0FE03FC000
0FE03FC000
0FE01FE000
0FE01FE000
0FE00FF000
0FE00FF000
0FE007F800
FFFE3FFF80
FFFE3FFF80
FFFE3FFF80
0000000000
0000000000
0001E00000
0003F00000
0003F00000
0003F00000
0003F00000
0003F00000
0001F00000
0000E00000
0001C00000
0007800000
000F000000
0008000000
ENDCHAR
STARTCHAR uni0137
ENCODING 311
SWIDTH 590 0
DWIDTH 30 0
BBX 29 50 1 -14
BITMAP
00E00000
1FE00000
FFE00000
FFC00000
FFC00000
0FC00000
0FC00000
0FC00000
0FC00000
0FC00000
0FC00000
0FC00000
0FC0FFE0
0FC0FFE0
0FC0FFC0
0FC01C00
0FC03800
0FC07000
0FC0E000
0FC1C000
0FC3C000
0FCFC000
0FDFE000
0FFFF000
0FFFF000
0FE7F800
0FC3F800
0FC1FC00
0FC1FE00
0FC0FE00
0FC0FF00
0FC07F00
0FC07F80
7FF83FF0
7FF83FF8
7FF81FF8
00000000
00000000
000F0000
001F8000
001F8000
001F8000
001F8000
001F8000
000F8000
00070000
000E0000
003C0000
00780000
00400000
ENDCHAR
STARTCHAR Lacute
ENCODING 313
SWIDTH 580 0
DWIDTH 29 0
BBX 26 44 2 0
BITMAP
00070000
001F0000
003F8000
007F0000
00FE0000
01FC0000
03F00000
07C00000
03000000
00000000
00000000
FFFE0000
FFFE0000
FFFE0000
0FE00000
0FE00000
0FE00000
0FE00000
0FE00000
0FE00000
0FE00000
0FE00000
0FE00000
0FE00000
0FE00000
0FE00000
0FE00000
0FE00000
0FE00000
0FE00000
0FE00000
0FE00000
0FE00000
0FE00000
0FE003C0
0FE003C0
0FE003C0
0FE007C0
0FE007C0
0FE007C0
0FE007C0
FFFFFFC0
FFFFFFC0
FFFFFFC0
ENDCHAR
STARTCHAR lacute
ENCODING 314
SWIDTH 309 0
DWIDTH 15 0
BBX 13 46 1 0
BITMAP
0070
01F0
03F8
07F0
0FE0
1FC0
3F00
7C00
3000
0000
00E0
1FE0
FFE0
FFE0
FFE0
0FE0
0FC0
0FC0
0FC0
0FC0
0FC0
0FC0
0FC0
0FC0
0FC0
0FC0
0FC0
0FC0
0FC0
0FC0
0FC0
0FC0
0FC0
0FC0
0FC0
0FC0
0FC0
0FC0
0FC0
0FC0
0FC0
0FE0
0FE0
7FF8
7FF8
7FF8
ENDCHAR
STARTCHAR Lcaron
ENCODING 317
SWIDTH 580 0
DWIDTH 29 0
BBX 26 37 2 0
BITMAP
00000780
000007C0
000007C0
000007C0
FFFE0780
FFFE0780
FFFE0780
0FE00700
0FE00F00
0FE00E00
0FE00E00
0FE00000
0FE00000
0FE00000
0FE00000
0FE00000
0FE00000
0FE00000
0FE00000
0FE00000
0FE00000
0FE00000
0FE00000
0FE00000
0FE00000
0FE00000
0FE00000
0FE003C0
0FE003C0
0FE003C0
0FE007C0
0FE007C0
0FE007C0
0FE007C0
FFFFFFC0
FFFFFFC0
FFFFFFC0
ENDCHAR
STARTCHAR lcaron
ENCODING 318
SWIDTH 329 0
DWIDTH 16 0
BBX 19 37 1 0
BITMAP
0003C0
00E3E0
1FE3E0
FFE3E0
FFE3C0
FFE3C0
0FE3C0
0FC380
0FC780
0FC700
0FC700
0FC000
0FC000
0FC000
0FC000
0FC000
0FC000
0FC000
0FC000
0FC000
0FC000
0FC000
0FC000
0FC000
0FC000
0FC000
0FC000
0FC000
0FC000
0FC000
0FC000
0FC000
0FE000
0FE000
7FF800
7FF800
7FF800
ENDCHAR
STARTCHAR Ldot
ENCODING 319
SWIDTH 580 0
DWIDTH 29 0
BBX 26 33 2 0
BITMAP
FFFE0000
FFFE0000
FFFE0000
0FE00000
0FE00000
0FE00000
0FE00000
0FE00000
0FE00000
0FE00000
0FE01E00
0FE03F80
0FE03F80
0FE07FC0
0FE07FC0
0FE03F80
0FE03F80
0FE01F00
0FE00000
0FE00000
0FE00000
0FE00000
0FE00000
0FE003C0
0FE003C0
0FE003C0
0FE007C0
0FE007C0
0FE007C0
0FE007C0
FFFFFFC0
FFFFFFC0
FFFFFFC0
ENDCHAR
STARTCHAR ldot
ENCODING 320
SWIDTH 410 0
DWIDTH 21 0
BBX 22 36 1 0
BITMAP
00E000
1FE000
FFE000
FFE000
FFE000
0FE000
0FC000
0FC000
0FC000
0FC000
0FC000
0FC000
0FC000
0FC000
0FC000
0FC1E0
0FC3F8
0FC7F8
0FC7F8
0FC7FC
0FC7F8
0FC3F8
0FC1E0
0FC000
0FC000
0FC000
0FC000
0FC000
0FC000
0FC000
0FC000
0FE000
0FE000
7FF800
7FF800
7FF800
ENDCHAR
STARTCHAR Lslash
ENCODING 321
SWIDTH 580 0
DWIDTH 29 0
BBX 26 33 2 0
BITMAP
FFFE0000
FFFE0000
FFFE0000
0FE00000
0FE00000
0FE00000
0FE00000
0FE00000
0FE00000
0FE00000
0FE0C000
0FE1C000
0FE7C000
0FFFC000
0FFF0000
0FF80000
0FE00000
1FE00000
7FE00000
FFE00000
EFE00000
8FE00000
0FE00000
0FE003C0
0FE003C0
0FE003C0
0FE007C0
0FE007C0
0FE007C0
0FE007C0
FFFFFFC0
FFFFFFC0
FFFFFFC0
ENDCHAR
STARTCHAR lslash
ENCODING 322
SWIDTH 309 0
DWIDTH 15 0
BBX 14 36 1 0
BITMAP
00E0
1FE0
FFE0
FFE0
FFE0
0FE0
0FE0
0FC0
0FC0
0FC0
0FC0
0FC4
0FCC
0FFC
0FFC
0FF0
3FC0
FFC0
FFC0
EFC0
8FC0
0FC0
0FC0
0FC0
0FC0
0FC0
0FC0
0FC0
0FC0
0FC0
0FC0
0FE0
0FE0
7FF8
7FF8
7FF8
ENDCHAR
STARTCHAR Nacute
ENCODING 323
SWIDTH 761 0
DWIDTH 38 0
BBX 36 44 1 -1
BITMAP
0000070000
00001F0000
00003F8000
00007F0000
0000FE0000
0001FC0000
0003F00000
0007C00000
0003000000
0000000000
7FE003FFF0
7FF003FFF0
3FF800FFE0
07F8000E00
07FC000E00
07FE000E00
07FF000E00
07FF000E00
077F800E00
077FC00E00
073FE00E00
071FF00E00
070FF00E00
0707F80E00
0707FC0E00
0703FE0E00
0701FE0E00
0700FF0E00
0700FF8E00
07007FCE00
07003FEE00
07001FEE00
07000FFE00
07000FFE00
070007FE00
070003FE00
070001FE00
070000FE00
070000FE00
0700007E00
7FF0003E00
FFFC001E00
FFFC001E00
0000000E00
ENDCHAR
STARTCHAR nacute
ENCODING 324
SWIDTH 624 0
DWIDTH 31 0
BBX 28 38 2 0
BITMAP
00007000
0000F800
0001F800
0003F800
0003F000
0007E000
0007C000
000F8000
001F0000
001C0000
00080000
00000000
00000000
0181F800
0F87FE00
3F8FFF00
FFDFFF00
FFF87F80
FFF03F80
1FC03F80
1FC03F80
1FC03F80
1FC03F80
1FC03F80
1FC03F80
1FC03F80
1FC03F80
1FC03F80
1FC03F80
1FC03F80
1FC03F80
1FC03F80
1FC03F80
1FC03F80
1FC03F80
7FF0FFE0
FFF9FFF0
FFF9FFF0
ENDCHAR
STARTCHAR uni0145
ENCODING 325
SWIDTH 761 0
DWIDTH 38 0
BBX 36 46 1 -13
BITMAP
7FE003FFF0
7FF003FFF0
3FF800FFE0
07F8000E00
07FC000E00
07FE000E00
07FF000E00
07FF000E00
077F800E00
077FC00E00
073FE00E00
071FF00E00
070FF00E00
0707F80E00
0707FC0E00
0703FE0E00
0701FE0E00
0700FF0E00
0700FF8E00
07007FCE00
07003FEE00
07001FEE00
07000FFE00
07000FFE00
070007FE00
070003FE00
070001FE00
070000FE00
070000FE00
0700007E00
7FF0003E00
FFFC001E00
FFFC001E00
0000000E00
00003C0000
00007E0000
00007E0000
00007E0000
00007E0000
00007E0000
00003E0000
00001C0000
0000380000
0000F00000
0001E00000
0001000000
ENDCHAR
STARTCHAR uni0146
ENCODING 326
SWIDTH 624 0
DWIDTH 31 0
BBX 28 39 2 -14
BITMAP
0181F800
0F87FE00
3F8FFF00
FFDFFF00
FFF87F80
FFF03F80
1FC03F80
1FC03F80
1FC03F80
1FC03F80
1FC03F80
1FC03F80
1FC03F80
1FC03F80
1FC03F80
1FC03F80
1FC03F80
1FC03F80
1FC03F80
1FC03F80
1FC03F80
1FC03F80
7FF0FFE0
FFF9FFF0
FFF9FFF0
00000000
00000000
00078000
000FC000
000FC000
000FC000
000FC000
000FC000
0007C000
00038000
00070000
001E0000
003C0000
00200000
ENDCHAR
STARTCHAR Ncaron
ENCODING 327
SWIDTH 761 0
DWIDTH 38 0
BBX 36 44 1 -1
BITMAP
0018018000
001E078000
000F0F0000
000F9F0000
0007FE0000
0003FC0000
0001F80000
0000F00000
0000000000
0000000000
7FE003FFF0
7FF003FFF0
3FF800FFE0
07F8000E00
07FC000E00
07FE000E00
07FF000E00
07FF000E00
077F800E00
077FC00E00
073FE00E00
071FF00E00
070FF00E00
0707F80E00
0707FC0E00
0703FE0E00
0701FE0E00
0700FF0E00
0700FF8E00
07007FCE00
07003FEE00
07001FEE00
07000FFE00
07000FFE00
070007FE00
070003FE00
070001FE00
070000FE00
070000FE00
0700007E00
7FF0003E00
FFFC001E00
FFFC001E00
0000000E00
ENDCHAR
STARTCHAR ncaron
ENCODING 328
SWIDTH 624 0
DWIDTH 31 0
BBX 28 38 2 0
BITMAP
01001000
01801800
03C03C00
00E07000
00F0F000
0079E000
003FC000
003FC000
001F8000
000F0000
00000000
00000000
00000000
0181F800
0F87FE00
3F8FFF00
FFDFFF00
FFF87F80
FFF03F80
1FC03F80
1FC03F80
1FC03F80
1FC03F80
1FC03F80
1FC03F80
1FC03F80
1FC03F80
1FC03F80
1FC03F80
1FC03F80
1FC03F80
1FC03F80
1FC03F80
1FC03F80
1FC03F80
7FF0FFE0
FFF9FFF0
FFF9FFF0
ENDCHAR
STARTCHAR Omacron
ENCODING 332
SWIDTH 708 0
DWIDTH 35 0
BBX 32 42 2 -1
BITMAP
00FFFF00
00FFFF00
00FFFF00
00FFFF00
00000000
00000000
00000000
000FF000
007FFC00
01FFFF00
03F83FC0
07E00FE0
0FE007F0
1FC003F8
3F8003F8
3F8001FC
7F0001FC
7F0001FE
FF0000FE
FF0000FE
FF0000FE
FE0000FF
FE0000FF
FE0000FF
FE0000FF
FE0000FF
FE0000FF
FE0000FF
FE0000FE
FF0000FE
FF0000FE
7F0001FE
7F0001FC
3F8001FC
3F8003F8
1FC003F8
0FC007F0
07E00FE0
03F83FC0
01FFFF00
007FFE00
000FF000
ENDCHAR
STARTCHAR omacron
ENCODING 333
SWIDTH 566 0
DWIDTH 28 0
BBX 25 35 2 -1
BITMAP
0FFFF000
0FFFF000
0FFFF000
0FFFF000
00000000
00000000
00000000
00000000
00000000
007F0000
03FFC000
0FFFF000
1FC3F800
3F81FC00
3F00FE00
7F00FE00
7E007F00
FE007F00
FE007F00
FE007F80
FE007F80
FE007F80
FE007F80
FE007F80
FE007F80
FE007F00
FE007F00
FE007F00
7F007E00
7F00FE00
3F81FC00
1FC3F800
0FFFF000
03FFE000
00FF0000
ENDCHAR
STARTCHAR Ohungarumlaut
ENCODING 336
SWIDTH 708 0
DWIDTH 35 0
BBX 32 46 2 -1
BITMAP
00038380
0007C7C0
0007C7C0
00078F80
000F8F00
000F1F00
001E1E00
001C1C00
00383800
00101000
00000000
000FF000
007FFC00
01FFFF00
03F83FC0
07E00FE0
0FE007F0
1FC003F8
3F8003F8
3F8001FC
7F0001FC
7F0001FE
FF0000FE
FF0000FE
FF0000FE
FE0000FF
FE0000FF
FE0000FF
FE0000FF
FE0000FF
FE0000FF
FE0000FF
FE0000FE
FF0000FE
FF0000FE
7F0001FE
7F0001FC
3F8001FC
3F8003F8
1FC003F8
0FC007F0
07E00FE0
03F83FC0
01FFFF00
007FFE00
000FF000
ENDCHAR
STARTCHAR ohungarumlaut
ENCODING 337
SWIDTH 566 0
DWIDTH 28 0
BBX 25 39 2 -1
BITMAP
000E1C00
001E3C00
001F3E00
003E7C00
003C7800
007CF800
0078F000
00F1E000
00E1C000
00E38000
01C18000
00000000
00000000
007F0000
03FFC000
0FFFF000
1FC3F800
3F81FC00
3F00FE00
7F00FE00
7E007F00
FE007F00
FE007F00
FE007F80
FE007F80
FE007F80
FE007F80
FE007F80
FE007F80
FE007F00
FE007F00
FE007F00
7F007E00
7F00FE00
3F81FC00
1FC3F800
0FFFF000
03FFE000
00FF0000
ENDCHAR
STARTCHAR OE
ENCODING 338
SWIDTH 933 0
DWIDTH 47 0
BBX 43 34 2 -1
BITMAP
0007FFFFFFC0
003FFFFFFFC0
00FFFFFFFFC0
03FE0FF003C0
07F80FF003C0
0FF00FF003C0
1FE00FF003C0
3FC00FF003C0
3F800FF001C0
7F800FF01C00
7F000FF01C00
FF000FF01C00
FF000FF03C00
FE000FF03C00
FE000FFFFC00
FE000FFFFC00
FE000FFFFC00
FE000FF03C00
FE000FF03C00
FE000FF01C00
FE000FF01C00
FF000FF01C00
FF000FF00000
7F000FF00000
7F800FF000E0
3F800FF001E0
3FC00FF001E0
1FE00FF001E0
0FF00FF001E0
07F80FF001E0
03FE0FFFFFE0
00FFFFFFFFE0
003FFFFFFFE0
0007FC000000
ENDCHAR
STARTCHAR oe
ENCODING 339
SWIDTH 867 0
DWIDTH 43 0
BBX 40 26 2 -1
BITMAP
007F003F80
03FFC1FFE0
07FFF3FFF0
1FC3FFF1F8
3F81FFC0FC
3F00FFC07C
7F00FF807E
7E007F807E
FE007F007E
FE007F007F
FE007F00FF
FE007FFFFF
FE007FFFFF
FE007FFFFE
FE007F0000
FE007F0000
FE007F0000
FE007F0000
FE007F8000
7F007F8004
7F00FFC006
3F81FFE00E
1FC3FFF03C
0FFFF7FFF8
07FFC1FFF0
00FF007F80
ENDCHAR
STARTCHAR Racute
ENCODING 340
SWIDTH 671 0
DWIDTH 34 0
BBX 31 45 2 -1
BITMAP
00003800
0000F800
0001FC00
0003F800
0007F000
000FE000
001F8000
003E0000
00180000
00000000
00000000
FFFFF000
FFFFFE00
FFFFFF00
0FE07F80
0FE03FC0
0FE01FE0
0FE00FE0
0FE00FE0
0FE00FE0
0FE00FE0
0FE00FE0
0FE00FC0
0FE01FC0
0FE03F80
0FE0FF00
0FFFFE00
0FFFF000
0FFFFC00
0FE1FE00
0FE07F00
0FE07F80
0FE03F80
0FE03F80
0FE03FC0
0FE03FC0
0FE01FC0
0FE01FC0
0FE01FE0
0FE01FE0
0FE01FE0
FFFE0FFE
FFFE0FFE
FFFE07FE
000003FE
ENDCHAR
STARTCHAR racute
ENCODING 341
SWIDTH 457 0
DWIDTH 23 0
BBX 20 38 2 0
BITMAP
000700
000F80
001F80
003F80
003F00
007E00
007C00
00F800
01F000
01C000
008000
000000
000000
0183C0
0F87F0
3FCFF0
FFDFF0
FFFFF0
FFF7F0
1FE1E0
1FE000
1FC000
1FC000
1FC000
1FC000
1FC000
1FC000
1FC000
1FC000
1FC000
1FC000
1FC000
1FC000
1FC000
1FC000
7FF800
FFFC00
FFFC00
ENDCHAR
STARTCHAR uni0156
ENCODING 342
SWIDTH 671 0
DWIDTH 34 0
BBX 31 47 2 -14
BITMAP
FFFFF000
FFFFFE00
FFFFFF00
0FE07F80
0FE03FC0
0FE01FE0
0FE00FE0
0FE00FE0
0FE00FE0
0FE00FE0
0FE00FE0
0FE00FC0
0FE01FC0
0FE03F80
0FE0FF00
0FFFFE00
0FFFF000
0FFFFC00
0FE1FE00
0FE07F00
0FE07F80
0FE03F80
0FE03F80
0FE03FC0
0FE03FC0
0FE01FC0
0FE01FC0
0FE01FE0
0FE01FE0
0FE01FE0
FFFE0FFE
FFFE0FFE
FFFE07FE
000003FE
00000000
0003C000
0007E000
0007E000
0007E000
0007E000
0007E000
0003E000
0001C000
00038000
000F0000
001E0000
00100000
ENDCHAR
STARTCHAR uni0157
ENCODING 343
SWIDTH 457 0
DWIDTH 23 0
BBX 20 39 2 -14
BITMAP
0183C0
0F87F0
3FCFF0
FFDFF0
FFFFF0
FFF7F0
1FE1E0
1FE000
1FC000
1FC000
1FC000
1FC000
1FC000
1FC000
1FC000
1FC000
1FC000
1FC000
1FC000
1FC000
1FC000
1FC000
7FF800
FFFC00
FFFC00
000000
000000
078000
0FC000
0FC000
0FC000
0FC000
0FC000
07C000
038000
070000
1E0000
3C0000
200000
ENDCHAR
STARTCHAR Rcaron
ENCODING 344
SWIDTH 671 0
DWIDTH 34 0
BBX 31 44 2 -1
BITMAP
01801800
01E07800
00F0F000
00F9F000
007FE000
003FC000
001F8000
000F0000
00000000
00000000
FFFFF000
FFFFFE00
FFFFFF00
0FE07F80
0FE03FC0
0FE01FE0
0FE00FE0
0FE00FE0
0FE00FE0
0FE00FE0
0FE00FE0
0FE00FC0
0FE01FC0
0FE03F80
0FE0FF00
0FFFFE00
0FFFF000
0FFFFC00
0FE1FE00
0FE07F00
0FE07F80
0FE03F80
0FE03F80
0FE03FC0
0FE03FC0
0FE01FC0
0FE01FC0
0FE01FE0
0FE01FE0
0FE01FE0
FFFE0FFE
FFFE0FFE
FFFE07FE
000003FE
ENDCHAR
STARTCHAR rcaron
ENCODING 345
SWIDTH 457 0
DWIDTH 23 0
BBX 20 38 2 0
BITMAP
080080
0C00C0
1E01E0
070380
078780
03CF00
01FE00
01FE00
00FC00
007800
000000
000000
000000
0183C0
0F87F0
3FCFF0
FFDFF0
FFFFF0
FFF7F0
1FE1E0
1FE000
1FC000
1FC000
1FC000
1FC000
1FC000
1FC000
1FC000
1FC000
1FC000
1FC000
1FC000
1FC000
1FC000
1FC000
7FF800
FFFC00
FFFC00
ENDCHAR
STARTCHAR Sacute
ENCODING 346
SWIDTH 534 0
DWIDTH 27 0
BBX 23 45 2 -1
BITMAP
0001C0
0007C0
000FE0
001FC0
003F80
007F00
00FC00
01F000
00C000
000000
00FF00
07FFE0
1FFFF8
3F81F8
7F00F8
7E00F8
FC00F8
FC0078
FC0078
FC0078
FE0000
FF0000
FF8000
7FF000
7FFC00
3FFF80
3FFFE0
0FFFF0
07FFF8
01FFFC
007FFC
000FFE
0003FE
0001FE
0000FE
F0007E
F0007E
F8007E
F8007E
F800FC
F801F8
FE07F0
FFFFE0
3FFFC0
03FE00
ENDCHAR
STARTCHAR sacute
ENCODING 347
SWIDTH 464 0
DWIDTH 23 0
BBX 20 39 2 -1
BITMAP
000E00
001F00
003F00
007F00
007E00
00FC00
00F800
01F000
03E000
038000
010000
000000
000000
03FC00
0FFF80
3FFFC0
7F07C0
7E07C0
7C03C0
FC03C0
FE03C0
FF0000
7FE000
7FFC00
7FFF00
3FFF80
0FFFC0
07FFE0
00FFE0
003FE0
F00FF0
F007F0
F007E0
F807E0
F807E0
FC0FC0
7FFF80
3FFF00
07F800
ENDCHAR
STARTCHAR uni015E
ENCODING 350
SWIDTH 534 0
DWIDTH 27 0
BBX 23 45 2 -11
BITMAP
00FF00
07FFE0
1FFFF8
3F81F8
7F00F8
7E00F8
FC00F8
FC0078
FC0078
FC0078
FE0000
FF0000
FF8000
7FF000
7FFC00
3FFF80
3FFFE0
0FFFF0
07FFF8
01FFFC
007FFC
000FFE
0003FE
0001FE
0000FE
F0007E
F0007E
F8007E
F8007E
F800FC
F801F8
FE07F0
FFFFE0
3FFFC0
03FE00
003000
003000
003C00
003F00
004F80
000780
000780
000F80
01FF00
01FC00
ENDCHAR
STARTCHAR uni015F
ENCODING 351
SWIDTH 464 0
DWIDTH 23 0
BBX 20 36 2 -11
BITMAP
03FC00
0FFF80
3FFFC0
7F07C0
7E07C0
7C03C0
FC03C0
FE03C0
FF0000
7FE000
7FFC00
7FFF00
3FFF80
0FFFC0
07FFE0
00FFE0
003FE0
F00FF0
F007F0
F007E0
F807E0
F807E0
FC0FC0
7FFF80
3FFF00
07F800
00C000
00C000
00F000
00FC00
013E00
001E00
001E00
003E00
07FC00
07F000
ENDCHAR
STARTCHAR Scaron
ENCODING 352
SWIDTH 534 0
DWIDTH 27 0
BBX 23 44 2 -1
BITMAP
060060
0781E0
03C3C0
03E7C0
01FF80
00FF00
007E00
003C00
000000
00FF00
07FFE0
1FFFF8
3F81F8
7F00F8
7E00F8
FC00F8
FC0078
FC0078
FC0078
FE0000
FF0000
FF8000
7FF000
7FFC00
3FFF80
3FFFE0
0FFFF0
07FFF8
01FFFC
007FFC
000FFE
0003FE
0001FE
0000FE
F0007E
F0007E
F8007E
F8007E
F800FC
F801F8
FE07F0
FFFFE0
3FFFC0
03FE00
ENDCHAR
STARTCHAR scaron
ENCODING 353
SWIDTH 464 0
DWIDTH 23 0
BBX 20 39 2 -1
BITMAP
100100
180180
3C03C0
0E0700
0F0F00
079E00
03FC00
03FC00
01F800
00F000
000000
000000
000000
03FC00
0FFF80
3FFFC0
7F07C0
7E07C0
7C03C0
FC03C0
FE03C0
FF0000
7FE000
7FFC00
7FFF00
3FFF80
0FFFC0
07FFE0
00FFE0
003FE0
F00FF0
F007F0
F007E0
F807E0
F807E0
FC0FC0
7FFF80
3FFF00
07F800
ENDCHAR
STARTCHAR uni0162
ENCODING 354
SWIDTH 644 0
DWIDTH 32 0
BBX 30 44 1 -11
BITMAP
FFFFFFFC
FFFFFFFC
FFFFFFFC
F81FE03C
F81FE03C
F01FE03C
F01FE03C
F01FE03C
F01FE03C
001FE000
001FE000
001FE000
001FE000
001FE000
001FE000
001FE000
001FE000
001FE000
001FE000
001FE000
001FE000
001FE000
001FE000
001FE000
001FE000
001FE000
001FE000
001FE000
001FE000
001FE000
01FFFE00
01FFFE00
01FFFE00
00030000
00030000
00030000
0003C000
0003F000
0004F800
00007800
00007800
0000F800
001FF000
001FC000
ENDCHAR
STARTCHAR uni0163
ENCODING 355
SWIDTH 356 0
DWIDTH 18 0
BBX 17 42 1 -11
BITMAP
07C000
07C000
07C000
0FC000
0FC000
0FC000
0FC000
FFFF00
FFFF00
FFFF00
1FC000
1FC000
1FC000
1FC000
1FC000
1FC000
1FC000
1FC000
1FC000
1FC000
1FC000
1FC000
1FC000
1FC000
1FC000
1FC000
1FC000
1FC000
1FE300
0FFF80
07FE00
01F800
00C000
00C000
00F000
00FC00
013E00
001E00
001E00
003E00
07FC00
07F000
ENDCHAR
STARTCHAR Tcaron
ENCODING 356
SWIDTH 644 0
DWIDTH 32 0
BBX 30 43 1 0
BITMAP
00C00C00
00F03C00
00787800
007CF800
003FF000
001FE000
000FC000
00078000
00000000
00000000
FFFFFFFC
FFFFFFFC
FFFFFFFC
F81FE03C
F81FE03C
F01FE03C
F01FE03C
F01FE03C
F01FE03C
001FE000
001FE000
001FE000
001FE000
001FE000
001FE000
001FE000
001FE000
001FE000
001FE000
001FE000
001FE000
001FE000
001FE000
001FE000
001FE000
001FE000
001FE000
001FE000
001FE000
001FE000
01FFFE00
01FFFE00
01FFFE00
ENDCHAR
STARTCHAR tcaron
ENCODING 357
SWIDTH 356 0
DWIDTH 18 0
BBX 19 38 1 -1
BITMAP
0003C0
0003E0
0003E0
0003E0
0003C0
0003C0
07C3C0
07C380
07C780
0FC700
0FC700
0FC000
0FC000
FFFF00
FFFF00
FFFF00
1FC000
1FC000
1FC000
1FC000
1FC000
1FC000
1FC000
1FC000
1FC000
1FC000
1FC000
1FC000
1FC000
1FC000
1FC000
1FC000
1FC000
1FC000
1FE300
0FFF80
07FE00
01F800
ENDCHAR
STARTCHAR Umacron
ENCODING 362
SWIDTH 750 0
DWIDTH 38 0
BBX 35 42 2 -1
BITMAP
001FFFE000
001FFFE000
001FFFE000
001FFFE000
0000000000
0000000000
0000000000
0000000000
FFFE01FFE0
FFFE01FFE0
FFFE01FFE0
0FE0001C00
0FE0001C00
0FE0001C00
0FE0001C00
0FE0001C00
0FE0001C00
0FE0001C00
0FE0001C00
0FE0001C00
0FE0001C00
0FE0001C00
0FE0001C00
0FE0001C00
0FE0001C00
0FE0001C00
0FE0001C00
0FE0001C00
0FE0001C00
0FE0001C00
0FE0001C00
0FE0001C00
0FF0003800
0FF0003800
07F0003800
07F8007000
03FC00F000
03FF03E000
01FFFFC000
00FFFF8000
003FFF0000
0007F80000
ENDCHAR
STARTCHAR umacron
ENCODING 363
SWIDTH 602 0
DWIDTH 30 0
BBX 27 35 2 -1
BITMAP
07FFF800
07FFF800
07FFF800
07FFF800
00000000
00000000
00000000
00000000
00000000
00000000
1F801F00
FF81FF00
FF81FF00
3F807F00
3F807F00
3F807F00
3F807F00
3F807F00
3F807F00
3F807F00
3F807F00
3F807F00
3F807F00
3F807F00
3F807F00
3F807F00
3F807F00
3F807F00
3F807F00
3FC1FF00
1FC3FF00
1FFFFF00
0FFF3FE0
0FFC3FE0
03F03FE0
ENDCHAR
STARTCHAR Uring
ENCODING 366
SWIDTH 750 0
DWIDTH 38 0
BBX 35 46 2 -1
BITMAP
0000F00000
0003FC0000
00070E0000
00070E0000
0006060000
0006060000
00070E0000
00070E0000
0003FC0000
0001F00000
0000000000
0000000000
FFFE01FFE0
FFFE01FFE0
FFFE01FFE0
0FE0001C00
0FE0001C00
0FE0001C00
0FE0001C00
0FE0001C00
0FE0001C00
0FE0001C00
0FE0001C00
0FE0001C00
0FE0001C00
0FE0001C00
0FE0001C00
0FE0001C00
0FE0001C00
0FE0001C00
0FE0001C00
0FE0001C00
0FE0001C00
0FE0001C00
0FE0001C00
0FE0001C00
0FF0003800
0FF0003800
07F0003800
07F8007000
03FC00F000
03FF03E000
01FFFFC000
00FFFF8000
003FFF0000
0007F80000
ENDCHAR
STARTCHAR uring
ENCODING 367
SWIDTH 602 0
DWIDTH 30 0
BBX 27 38 2 -1
BITMAP
003F0000
007F8000
00E1C000
01C0E000
01C0E000
01C0E000
01C0E000
00E1C000
007F8000
003F0000
00000000
00000000
00000000
1F801F00
FF81FF00
FF81FF00
3F807F00
3F807F00
3F807F00
3F807F00
3F807F00
3F807F00
3F807F00
3F807F00
3F807F00
3F807F00
3F807F00
3F807F00
3F807F00
3F807F00
3F807F00
3F807F00
3FC1FF00
1FC3FF00
1FFFFF00
0FFF3FE0
0FFC3FE0
03F03FE0
ENDCHAR
STARTCHAR Uhungarumlaut
ENCODING 368
SWIDTH 750 0
DWIDTH 38 0
BBX 35 46 2 -1
BITMAP
0000E0E000
0001F1F000
0001F1F000
0001E3E000
0003E3C000
0003C7C000
0007878000
0007070000
000E0E0000
0004040000
0000000000
0000000000
FFFE01FFE0
FFFE01FFE0
FFFE01FFE0
0FE0001C00
0FE0001C00
0FE0001C00
0FE0001C00
0FE0001C00
0FE0001C00
0FE0001C00
0FE0001C00
0FE0001C00
0FE0001C00
0FE0001C00
0FE0001C00
0FE0001C00
0FE0001C00
0FE0001C00
0FE0001C00
0FE0001C00
0FE0001C00
0FE0001C00
0FE0001C00
0FE0001C00
0FF0003800
0FF0003800
07F0003800
07F8007000
03FC00F000
03FF03E000
01FFFFC000
00FFFF8000
003FFF0000
0007F80000
ENDCHAR
STARTCHAR uhungarumlaut
ENCODING 369
SWIDTH 602 0
DWIDTH 30 0
BBX 27 39 2 -1
BITMAP
000E1C00
001E3C00
001F3E00
003E7C00
003C7800
007CF800
0078F000
00F1E000
00E1C000
00E38000
01C18000
00000000
00000000
00000000
1F801F00
FF81FF00
FF81FF00
3F807F00
3F807F00
3F807F00
3F807F00
3F807F00
3F807F00
3F807F00
3F807F00
3F807F00
3F807F00
3F807F00
3F807F00
3F807F00
3F807F00
3F807F00
3F807F00
3FC1FF00
1FC3FF00
1FFFFF00
0FFF3FE0
0FFC3FE0
03F03FE0
ENDCHAR
STARTCHAR Uogonek
ENCODING 370
SWIDTH 750 0
DWIDTH 38 0
BBX 35 45 2 -12
BITMAP
FFFE01FFE0
FFFE01FFE0
FFFE01FFE0
0FE0001C00
0FE0001C00
0FE0001C00
0FE0001C00
0FE0001C00
0FE0001C00
0FE0001C00
0FE0001C00
0FE0001C00
0FE0001C00
0FE0001C00
0FE0001C00
0FE0001C00
0FE0001C00
0FE0001C00
0FE0001C00
0FE0001C00
0FE0001C00
0FE0001C00
0FE0001C00
0FE0001C00
0FF0003800
0FF0003800
07F0003800
07F8007000
03FC00F000
03FF03E000
01FFFFE000
00FFFFC000
003FFF0000
0007FE0000
00001C0000
00003C0000
0000780000
0000780000
0000780000
00007C0000
00007E0000
00007FF000
00007FF000
00003FE000
00001F8000
ENDCHAR
STARTCHAR uogonek
ENCODING 371
SWIDTH 602 0
DWIDTH 30 0
BBX 28 36 2 -12
BITMAP
1F801F00
FF81FF00
FF81FF00
3F807F00
3F807F00
3F807F00
3F807F00
3F807F00
3F807F00
3F807F00
3F807F00
3F807F00
3F807F00
3F807F00
3F807F00
3F807F00
3F807F00
3F807F00
3F807F00
3FC1FF00
1FC3FF00
1FFFFF00
0FFF3FE0
0FFC3FE0
03F03F00
00000C00
00001C00
00003800
00007800
00007800
0000FC00
0000FE00
0000FFF0
00007FF0
00003FE0
00001F80
ENDCHAR
STARTCHAR Ydieresis
ENCODING 376
SWIDTH 606 0
DWIDTH 30 0
BBX 30 42 0 0
BITMAP
00780780
00FC0FC0
01FC0FC0
01FC0FE0
00FC0FC0
00780780
00000000
00000000
00000000
FFFE0FFC
FFFE0FFC
FFFE0FFC
0FF001C0
0FF001C0
07F80380
07F80380
03F80700
03FC0700
01FC0E00
01FE0E00
00FE0C00
00FF1C00
007F1800
007FB800
003FB000
003FF000
001FE000
001FE000
001FE000
001FE000
001FE000
001FE000
001FE000
001FE000
001FE000
001FE000
001FE000
001FE000
001FE000
01FFFE00
01FFFE00
01FFFE00
ENDCHAR
STARTCHAR Zacute
ENCODING 377
SWIDTH 569 0
DWIDTH 28 0
BBX 26 44 1 0
BITMAP
00007000
0001F000
0003F800
0007F000
000FE000
001FC000
003F0000
007C0000
00300000
00000000
00000000
7FFFFFC0
7FFFFFC0
7FFFFF80
7C007F80
7800FF00
7800FE00
7801FE00
7803FC00
7803FC00
8007F800
0007F000
000FF000
001FE000
001FE000
003FC000
007F8000
007F8000
00FF0000
00FE0000
01FE0000
03FC0000
03FC0000
07F80000
0FF00000
0FF003C0
1FE003C0
1FC003C0
3FC003C0
7F8007C0
7F8007C0
FFFFFFC0
FFFFFFC0
FFFFFFC0
ENDCHAR
STARTCHAR zacute
ENCODING 378
SWIDTH 477 0
DWIDTH 24 0
BBX 22 38 1 0
BITMAP
000380
0007C0
000FC0
001FC0
001F80
003F00
003E00
007C00
00F800
00E000
004000
000000
000000
000000
7FFFF8
7FFFF8
7FFFF8
7807F8
780FF0
780FE0
781FE0
703FC0
103F80
007F00
00FF00
01FE00
01FC00
03FC00
07F800
0FF03C
0FF03C
1FE078
3FC078
3F8078
7F8078
FFFFF8
FFFFF8
FFFFF8
ENDCHAR
STARTCHAR Zdotaccent
ENCODING 379
SWIDTH 569 0
DWIDTH 28 0
BBX 26 44 1 0
BITMAP
000F0000
001F8000
003FC000
003FC000
003FC000
003FC000
001F8000
000F0000
00000000
00000000
00000000
7FFFFFC0
7FFFFFC0
7FFFFF80
7C007F80
7800FF00
7800FE00
7801FE00
7803FC00
7803FC00
8007F800
0007F000
000FF000
001FE000
001FE000
003FC000
007F8000
007F8000
00FF0000
00FE0000
01FE0000
03FC0000
03FC0000
07F80000
0FF00000
0FF003C0
1FE003C0
1FC003C0
3FC003C0
7F8007C0
7F8007C0
FFFFFFC0
FFFFFFC0
FFFFFFC0
ENDCHAR
STARTCHAR zdotaccent
ENCODING 380
SWIDTH 477 0
DWIDTH 24 0
BBX 22 37 1 0
BITMAP
007800
00FC00
01FE00
01FE00
01FE00
01FE00
00FC00
007800
000000
000000
000000
000000
000000
7FFFF8
7FFFF8
7FFFF8
7807F8
780FF0
780FE0
781FE0
703FC0
103F80
007F00
00FF00
01FE00
01FC00
03FC00
07F800
0FF03C
0FF03C
1FE078
3FC078
3F8078
7F8078
FFFFF8
FFFFF8
FFFFF8
ENDCHAR
STARTCHAR Zcaron
ENCODING 381
SWIDTH 569 0
DWIDTH 28 0
BBX 26 43 1 0
BITMAP
01801800
01E07800
00F0F000
00F9F000
007FE000
003FC000
001F8000
000F0000
00000000
00000000
7FFFFFC0
7FFFFFC0
7FFFFF80
7C007F80
7800FF00
7800FE00
7801FE00
7803FC00
7803FC00
8007F800
0007F000
000FF000
001FE000
001FE000
003FC000
007F8000
007F8000
00FF0000
00FE0000
01FE0000
03FC0000
03FC0000
07F80000
0FF00000
0FF003C0
1FE003C0
1FC003C0
3FC003C0
7F8007C0
7F8007C0
FFFFFFC0
FFFFFFC0
FFFFFFC0
ENDCHAR
STARTCHAR zcaron
ENCODING 382
SWIDTH 477 0
DWIDTH 24 0
BBX 22 38 1 0
BITMAP
040040
060060
0F00F0
0381C0
03C3C0
01E780
00FF00
00FF00
007E00
003C00
000000
000000
000000
000000
7FFFF8
7FFFF8
7FFFF8
7807F8
780FF0
780FE0
781FE0
703FC0
103F80
007F00
00FF00
01FE00
01FC00
03FC00
07F800
0FF03C
0FF03C
1FE078
3FC078
3F8078
7F8078
FFFFF8
FFFFF8
FFFFF8
ENDCHAR
STARTCHAR longs
ENCODING 383
SWIDTH 344 0
DWIDTH 17 0
BBX 21 37 1 0
BITMAP
000FC0
003FE0
00FFF0
01F7F8
03F3F8
03E1F0
07E0E0
0FE000
0FC000
0FC000
0FC000
1FC000
1FC000
1FC000
1FC000
1FC000
1FC000
1FC000
1FC000
1FC000
1FC000
1FC000
1FC000
1FC000
1FC000
1FC000
1FC000
1FC000
1FC000
1FC000
1FC000
1FC000
1FC000
1FC000
7FF800
FFFC00
FFFC00
ENDCHAR
STARTCHAR uni0192
ENCODING 402
SWIDTH 528 0
DWIDTH 26 0
BBX 27 38 0 -5
BITMAP
00003F00
0000FFC0
0001EFC0
0003EFE0
0007C7C0
000FC3C0
000FC000
000F8000
001F8000
001F8000
001F8000
001F8000
001F8000
07FFFE00
07FFFE00
07FFFE00
003F8000
003F8000
003F0000
003F0000
003F0000
003F0000
003F0000
003F0000
003F0000
003F0000
007F0000
007E0000
007E0000
007E0000
007E0000
007C0000
707C0000
F8FC0000
FCF80000
FFF00000
7FE00000
3F000000
ENDCHAR
STARTCHAR uni0218
ENCODING 536
SWIDTH 534 0
DWIDTH 27 0
BBX 23 48 2 -14
BITMAP
00FF00
07FFE0
1FFFF8
3F81F8
7F00F8
7E00F8
FC00F8
FC0078
FC0078
FC0078
FE0000
FF0000
FF8000
7FF000
7FFC00
3FFF80
3FFFE0
0FFFF0
07FFF8
01FFFC
007FFC
000FFE
0003FE
0001FE
0000FE
F0007E
F0007E
F8007E
F8007E
F800FC
F801F8
FE07F0
FFFFE0
3FFFC0
03FE00
000000
007800
00FC00
00FC00
00FC00
00FC00
00FC00
007C00
003800
007000
01E000
03C000
020000
ENDCHAR
STARTCHAR uni0219
ENCODING 537
SWIDTH 464 0
DWIDTH 23 0
BBX 20 39 2 -14
BITMAP
03FC00
0FFF80
3FFFC0
7F07C0
7E07C0
7C03C0
FC03C0
FE03C0
FF0000
7FE000
7FFC00
7FFF00
3FFF80
0FFFC0
07FFE0
00FFE0
003FE0
F00FF0
F007F0
F007E0
F807E0
F807E0
FC0FC0
7FFF80
3FFF00
07F800
000000
01E000
03F000
03F000
03F000
03F000
03F000
01F000
00E000
01C000
078000
0F0000
080000
ENDCHAR
STARTCHAR uni021A
ENCODING 538
SWIDTH 644 0
DWIDTH 32 0
BBX 30 47 1 -14
BITMAP
FFFFFFFC
FFFFFFFC
FFFFFFFC
F81FE03C
F81FE03C
F01FE03C
F01FE03C
F01FE03C
F01FE03C
001FE000
001FE000
001FE000
001FE000
001FE000
001FE000
001FE000
001FE000
001FE000
001FE000
001FE000
001FE000
001FE000
001FE000
001FE000
001FE000
001FE000
001FE000
001FE000
001FE000
001FE000
01FFFE00
01FFFE00
01FFFE00
00000000
00000000
00078000
000FC000
000FC000
000FC000
000FC000
000FC000
0007C000
00038000
00070000
001E0000
003C0000
00200000
ENDCHAR
STARTCHAR uni021B
ENCODING 539
SWIDTH 356 0
DWIDTH 18 0
BBX 17 45 1 -14
BITMAP
07C000
07C000
07C000
0FC000
0FC000
0FC000
0FC000
FFFF00
FFFF00
FFFF00
1FC000
1FC000
1FC000
1FC000
1FC000
1FC000
1FC000
1FC000
1FC000
1FC000
1FC000
1FC000
1FC000
1FC000
1FC000
1FC000
1FC000
1FC000
1FE300
0FFF80
07FE00
01F800
000000
01E000
03F000
03F000
03F000
03F000
03F000
01F000
00E000
01C000
078000
0F0000
080000
ENDCHAR
STARTCHAR h.sups
ENCODING 688
SWIDTH 421 0
DWIDTH 21 0
BBX 19 23 1 21
BITMAP
0E0000
FE0000
FE0000
3E0000
3E0000
3E0000
3E0000
3E3E00
3EFF00
3FFF80
3F8F80
3E0F80
3E0F80
3E0F80
3E0F80
3E0F80
3E0F80
3E0F80
3E0F80
3E0F80
FF9FE0
FFBFE0
FFBFE0
ENDCHAR
STARTCHAR j.sups
ENCODING 690
SWIDTH 213 0
DWIDTH 11 0
BBX 12 31 -3 14
BITMAP
01C0
03E0
03F0
03E0
01C0
0000
0000
0000
0060
03E0
0FE0
0FE0
03E0
03E0
03E0
03E0
03E0
03E0
03E0
03E0
03E0
03E0
03E0
03E0
03E0
03E0
F3C0
FBC0
FF80
FF00
7E00
ENDCHAR
STARTCHAR r.sups
ENCODING 691
SWIDTH 314 0
DWIDTH 16 0
BBX 14 16 1 21
BITMAP
063C
3E7C
FEFC
FFBC
3F00
3E00
3E00
3E00
3E00
3E00
3E00
3E00
3E00
7F80
FFC0
FFC0
ENDCHAR
STARTCHAR w.sups
ENCODING 695
SWIDTH 557 0
DWIDTH 28 0
BBX 28 16 0 20
BITMAP
FF9FE7F0
FF9FE7F0
3E078180
1E0F8380
1F0FC300
0F0FC300
0F1BE600
0F9BE600
07B1EC00
07F1FC00
07F1FC00
03E0F800
03E0F800
01C07000
01C07000
01C07000
ENDCHAR
STARTCHAR y.sups
ENCODING 696
SWIDTH 361 0
DWIDTH 18 0
BBX 18 22 0 14
BITMAP
FF9FC0
FF9FC0
FF0F80
3E0600
3E0600
1F0400
1F0C00
0F0C00
0F9800
079800
079000
03F000
03E000
03E000
01E000
01C000
00C000
018000
018000
7B0000
FE0000
7C0000
ENDCHAR
STARTCHAR uni02BB
ENCODING 699
SWIDTH 215 0
DWIDTH 11 0
BBX 7 15 2 22
BITMAP
06
0E
1C
38
70
70
E0
F0
F8
FC
FE
FE
FE
FE
7C
ENDCHAR
STARTCHAR uni02BC
ENCODING 700
SWIDTH 215 0
DWIDTH 11 0
BBX 8 15 1 22
BITMAP
3C
7E
7F
FF
7F
7F
3F
1F
0F
0E
0E
1C
38
70
60
ENDCHAR
STARTCHAR circumflex
ENCODING 710
SWIDTH 400 0
DWIDTH 20 0
BBX 16 10 2 28
BITMAP
03C0
07E0
07E0
0FF0
1FF8
3E7C
3C3C
781E
F00F
4002
ENDCHAR
STARTCHAR caron
ENCODING 711
SWIDTH 400 0
DWIDTH 20 0
BBX 16 10 2 28
BITMAP
4004
6006
F00F
381C
3C3C
1E78
0FF0
0FF0
07E0
03C0
ENDCHAR
STARTCHAR uni02C9
ENCODING 713
SWIDTH 400 0
DWIDTH 20 0
BBX 15 4 3 30
BITMAP
FFFE
FFFE
FFFE
FFFE
ENDCHAR
STARTCHAR uni02CA
ENCODING 714
SWIDTH 400 0
DWIDTH 20 0
BBX 10 11 5 27
BITMAP
0380
07C0
0FC0
1FC0
1F80
3F00
3E00
7C00
F800
E000
4000
ENDCHAR
STARTCHAR uni02CB
ENCODING 715
SWIDTH 400 0
DWIDTH 20 0
BBX 10 11 5 27
BITMAP
7000
F800
FC00
FE00
7E00
3F00
1F00
0F80
0780
01C0
0080
ENDCHAR
STARTCHAR breve
ENCODING 728
SWIDTH 400 0
DWIDTH 20 0
BBX 16 8 2 29
BITMAP
C007
E007
F00F
7C3E
7FFE
3FFC
1FF8
07E0
ENDCHAR
STARTCHAR dotaccent
ENCODING 729
SWIDTH 400 0
DWIDTH 20 0
BBX 8 8 6 29
BITMAP
3C
7E
FF
FF
FF
FF
7E
3C
ENDCHAR
STARTCHAR ring
ENCODING 730
SWIDTH 400 0
DWIDTH 20 0
BBX 12 10 4 27
BITMAP
1F80
3FC0
70E0
E070
E070
E070
E070
70E0
3FC0
1F80
ENDCHAR
STARTCHAR ogonek
ENCODING 731
SWIDTH 400 0
DWIDTH 20 0
BBX 12 13 4 -12
BITMAP
0300
0C00
1C00
3800
7800
F800
F800
F800
FC00
FFE0
7FF0
7FE0
1F00
ENDCHAR
STARTCHAR tilde
ENCODING 732
SWIDTH 400 0
DWIDTH 20 0
BBX 16 8 2 28
BITMAP
3F00
7F83
FFC3
FFE7
E7FF
C3FF
C1FE
0078
ENDCHAR
STARTCHAR hungarumlaut
ENCODING 733
SWIDTH 400 0
DWIDTH 20 0
BBX 16 11 2 27
BITMAP
070E
0F1E
0F9F
1F3E
1E3C
3E7C
3C78
78F0
70E0
71C0
E0C0
ENDCHAR
STARTCHAR l.sups
ENCODING 737
SWIDTH 212 0
DWIDTH 11 0
BBX 9 23 1 21
BITMAP
0E00
FE00
FE00
3E00
3E00
3E00
3E00
3E00
3E00
3E00
3E00
3E00
3E00
3E00
3E00
3E00
3E00
3E00
3E00
3E00
FF80
FF80
FF80
ENDCHAR
STARTCHAR s.sups
ENCODING 738
SWIDTH 322 0
DWIDTH 16 0
BBX 13 17 2 20
BITMAP
1FC0
7FF0
7870
F070
F070
F800
FE00
7FC0
3FE0
0FF0
03F8
00F8
E078
E070
E0F0
FFE0
3F80
ENDCHAR
STARTCHAR x.sups
ENCODING 739
SWIDTH 369 0
DWIDTH 18 0
BBX 18 15 0 21
BITMAP
FF9F80
FF9F80
1F0C00
1F9800
0F9800
07F000
03E000
01F000
01F000
03F800
067C00
0C3E00
0C3F00
FE7FC0
FE7FC0
ENDCHAR
STARTCHAR uni0300
ENCODING 768
SWIDTH 0 0
DWIDTH 0 0
BBX 10 11 -5 27
BITMAP
7000
F800
FC00
FE00
7E00
3F00
1F00
0F80
0780
01C0
0080
ENDCHAR
STARTCHAR uni0301
ENCODING 769
SWIDTH 0 0
DWIDTH 0 0
BBX 10 11 -5 27
BITMAP
0380
07C0
0FC0
1FC0
1F80
3F00
3E00
7C00
F800
E000
4000
ENDCHAR
STARTCHAR uni0302
ENCODING 770
SWIDTH 0 0
DWIDTH 0 0
BBX 16 10 -8 28
BITMAP
03C0
07E0
07E0
0FF0
1FF8
3E7C
3C3C
781E
F00F
4002
ENDCHAR
STARTCHAR uni0303
ENCODING 771
SWIDTH 0 0
DWIDTH 0 0
BBX 16 8 -8 28
BITMAP
3F00
7F83
FFC3
FFE7
E7FF
C3FF
C1FE
0078
ENDCHAR
STARTCHAR uni0304
ENCODING 772
SWIDTH 0 0
DWIDTH 0 0
BBX 15 4 -7 30
BITMAP
FFFE
FFFE
FFFE
FFFE
ENDCHAR
STARTCHAR uni0306
ENCODING 774
SWIDTH 0 0
DWIDTH 0 0
BBX 16 8 -8 29
BITMAP
C007
E007
F00F
7C3E
7FFE
3FFC
1FF8
07E0
ENDCHAR
STARTCHAR uni0307
ENCODING 775
SWIDTH 0 0
DWIDTH 0 0
BBX 8 8 -4 29
BITMAP
3C
7E
FF
FF
FF
FF
7E
3C
ENDCHAR
STARTCHAR uni0308
ENCODING 776
SWIDTH 0 0
DWIDTH 0 0
BBX 18 7 -9 29
BITMAP
380700
FC0FC0
FE1FC0
FE1FC0
FE1FC0
FC0FC0
780780
ENDCHAR
STARTCHAR uni030A
ENCODING 778
SWIDTH 0 0
DWIDTH 0 0
BBX 12 10 -6 27
BITMAP
1F80
3FC0
70E0
E070
E070
E070
E070
70E0
3FC0
1F80
ENDCHAR
STARTCHAR uni030B
ENCODING 779
SWIDTH 0 0
DWIDTH 0 0
BBX 16 11 -8 27
BITMAP
070E
0F1E
0F9F
1F3E
1E3C
3E7C
3C78
78F0
70E0
71C0
E0C0
ENDCHAR
STARTCHAR uni030C
ENCODING 780
SWIDTH 0 0
DWIDTH 0 0
BBX 16 10 -8 28
BITMAP
4004
6006
F00F
381C
3C3C
1E78
0FF0
0FF0
07E0
03C0
ENDCHAR
STARTCHAR uni0326
ENCODING 806
SWIDTH 0 0
DWIDTH 0 0
BBX 8 12 -5 -14
BITMAP
1E
3F
3F
3F
3F
3F
1F
0E
1C
78
F0
80
ENDCHAR
STARTCHAR uni0327
ENCODING 807
SWIDTH 0 0
DWIDTH 0 0
BBX 10 11 -4 -11
BITMAP
1C00
1800
1800
1E00
1F80
27C0
03C0
03C0
07C0
FF80
FE00
ENDCHAR
STARTCHAR uni0328
ENCODING 808
SWIDTH 0 0
DWIDTH 0 0
BBX 12 13 -6 -12
BITMAP
0300
0C00
1C00
3800
7800
F800
F800
F800
FC00
FFE0
7FF0
7FE0
1F00
ENDCHAR
STARTCHAR pi
ENCODING 960
SWIDTH 635 0
DWIDTH 32 0
BBX 28 25 2 -1
BITMAP
0FFFFFF0
7FFFFFF0
FFFFFFF0
FFFFFFF0
FFFFFFE0
FFFFFF00
01C07800
01C07800
01C07800
03C07800
03C07800
03C07800
03C07800
07C07800
07C07800
07C07800
07C07800
0FC07800
0FC07840
0FC07FC0
0FC07FC0
0F807FC0
0F803FC0
0F803FE0
07800F80
ENDCHAR
STARTCHAR a.sups
ENCODING 7491
SWIDTH 366 0
DWIDTH 18 0
BBX 17 17 2 20
BITMAP
0FC000
3FF000
78F800
F87800
F07800
707C00
007C00
07FC00
1FFC00
7C7C00
F87C00
F07C00
F07C00
F8FC00
FFFF80
FFFF00
3E3E00
ENDCHAR
STARTCHAR b.sups
ENCODING 7495
SWIDTH 411 0
DWIDTH 21 0
BBX 19 24 1 20
BITMAP
0E0000
FE0000
FE0000
3E0000
3E0000
3E0000
3E0000
3E7C00
3EFF00
3FFF80
3F0F80
3E07C0
3E07C0
3E07C0
3E07E0
3E07E0
3E07E0
3E07C0
3E07C0
3E07C0
3F0F80
FFFF80
FFFF00
FE7C00
ENDCHAR
STARTCHAR d.sups
ENCODING 7496
SWIDTH 406 0
DWIDTH 20 0
BBX 19 24 1 20
BITMAP
000380
007F80
007F80
000F80
000F80
000F80
000F80
07CF80
1FFF80
3FFF80
7E1F80
7C0F80
7C0F80
F80F80
F80F80
F80F80
F80F80
F80F80
7C0F80
7C0F80
7E1F80
3FFFC0
1FFFE0
07CFE0
ENDCHAR
STARTCHAR e.sups
ENCODING 7497
SWIDTH 361 0
DWIDTH 18 0
BBX 16 17 1 20
BITMAP
03F0
0FF8
3E3C
3C1E
7C1F
7C1F
F81F
FFFF
FFFF
F800
F800
7C00
7C03
7F0E
3FFC
1FF8
07E0
ENDCHAR
STARTCHAR g.sups
ENCODING 7501
SWIDTH 373 0
DWIDTH 19 0
BBX 17 23 1 14
BITMAP
07E180
1FFF80
3C7F80
783F80
783C00
783E00
783E00
783C00
3C7C00
1FF800
1FE000
380000
780000
7FFC00
7FFF00
3FFF00
3FFF80
700F80
F00780
F00700
F81F00
7FFC00
1FF000
ENDCHAR
STARTCHAR k.sups
ENCODING 7503
SWIDTH 394 0
DWIDTH 20 0
BBX 19 23 1 21
BITMAP
0E0000
FE0000
FE0000
3E0000
3E0000
3E0000
3E0000
3E0000
3E3FC0
3E3FC0
3E3F80
3E0C00
3E3000
3E7000
3EF000
3FF800
3F7C00
3E7E00
3E3E00
3E3F00
FF9FC0
FF9FE0
FF8FE0
ENDCHAR
STARTCHAR m.sups
ENCODING 7504
SWIDTH 622 0
DWIDTH 31 0
BBX 29 16 1 21
BITMAP
063E0F80
3EFF3FC0
FFFFFFE0
FF8FE3E0
3E0F81E0
3E0781F0
3E0781F0
3E0781F0
3E0781F0
3E0781F0
3E0781F0
3E0781F0
3E0781F0
7F9FE7F8
FF9FE7F8
FF9FE7F8
ENDCHAR
STARTCHAR o.sups
ENCODING 7506
SWIDTH 388 0
DWIDTH 19 0
BBX 17 17 1 20
BITMAP
03F000
0FFC00
3E3E00
3C1F00
7C0F00
F80F80
F80F80
F80F80
F80F80
F80F80
F80F80
F80F80
7C0F80
7C1F00
3E3E00
1FFC00
03F000
ENDCHAR
STARTCHAR p.sups
ENCODING 7510
SWIDTH 418 0
DWIDTH 21 0
BBX 19 23 1 14
BITMAP
067C00
3EFF00
FFFF80
FE0FC0
3E07C0
3E07C0
3E07E0
3E03E0
3E03E0
3E03E0
3E07E0
3E07C0
3E07C0
3E0FC0
3FFF80
3FFF00
3E7C00
3E0000
3E0000
3E0000
7F8000
FFC000
FFC000
ENDCHAR
STARTCHAR t.sups
ENCODING 7511
SWIDTH 245 0
DWIDTH 12 0
BBX 11 21 1 20
BITMAP
1E00
1E00
1E00
3E00
3E00
FFC0
FFC0
FFC0
3E00
3E00
3E00
3E00
3E00
3E00
3E00
3E00
3E00
3E20
3FE0
3FC0
0F80
ENDCHAR
STARTCHAR u.sups
ENCODING 7512
SWIDTH 413 0
DWIDTH 21 0
BBX 19 16 1 20
BITMAP
FE3F80
FE3F80
3E0F80
3E0F80
3E0F80
3E0F80
3E0F80
3E0F80
3E0F80
3E0F80
3E0F80
3E0F80
3E3F80
3FFF80
1FEFE0
0F8FE0
ENDCHAR
STARTCHAR v.sups
ENCODING 7515
SWIDTH 369 0
DWIDTH 18 0
BBX 18 16 0 20
BITMAP
FF9FC0
FF9FC0
3E0300
3F0600
1F0600
1F0E00
0F8C00
0F8C00
07D800
07D800
03D000
03F000
01F000
01E000
00E000
00C000
ENDCHAR
STARTCHAR c.sups
ENCODING 7580
SWIDTH 350 0
DWIDTH 18 0
BBX 15 17 1 20
BITMAP
03F0
0FFC
1F1E
3E1E
7C1E
7C0E
F800
F800
F800
F800
FC00
7C00
7E02
7F0E
3FFC
1FF8
07E0
ENDCHAR
STARTCHAR f.sups
ENCODING 7584
SWIDTH 229 0
DWIDTH 11 0
BBX 14 24 1 21
BITMAP
00F8
03FC
077C
0F3C
1E00
1E00
1E00
3E00
3E00
FFE0
FFE0
FFE0
3E00
3E00
3E00
3E00
3E00
3E00
3E00
3E00
3E00
FF80
FFC0
FFC0
ENDCHAR
STARTCHAR z.sups
ENCODING 7611
SWIDTH 328 0
DWIDTH 16 0
BBX 15 15 1 21
BITMAP
FFFC
FFFC
E0FC
E1F8
E1F0
23E0
07E0
0FC0
0F80
1F0E
3F0C
7E1C
FC1C
FFFC
FFFC
ENDCHAR
STARTCHAR uni1E44
ENCODING 7748
SWIDTH 761 0
DWIDTH 38 0
BBX 36 45 1 -1
BITMAP
0000F00000
0001F80000
0003FC0000
0003FC0000
0003FC0000
0003FC0000
0001F80000
0000F00000
0000000000
0000000000
0000000000
7FE003FFF0
7FF003FFF0
3FF800FFE0
07F8000E00
07FC000E00
07FE000E00
07FF000E00
07FF000E00
077F800E00
077FC00E00
073FE00E00
071FF00E00
070FF00E00
0707F80E00
0707FC0E00
0703FE0E00
0701FE0E00
0700FF0E00
0700FF8E00
07007FCE00
07003FEE00
07001FEE00
07000FFE00
07000FFE00
070007FE00
070003FE00
070001FE00
070000FE00
070000FE00
0700007E00
7FF0003E00
FFFC001E00
FFFC001E00
0000000E00
ENDCHAR
STARTCHAR uni1E45
ENCODING 7749
SWIDTH 624 0
DWIDTH 31 0
BBX 28 37 2 0
BITMAP
000F0000
001F8000
003FC000
003FC000
003FC000
003FC000
001F8000
000F0000
00000000
00000000
00000000
00000000
0181F800
0F87FE00
3F8FFF00
FFDFFF00
FFF87F80
FFF03F80
1FC03F80
1FC03F80
1FC03F80
1FC03F80
1FC03F80
1FC03F80
1FC03F80
1FC03F80
1FC03F80
1FC03F80
1FC03F80
1FC03F80
1FC03F80
1FC03F80
1FC03F80
1FC03F80
7FF0FFE0
FFF9FFF0
FFF9FFF0
ENDCHAR
STARTCHAR uni2007
ENCODING 8199
SWIDTH 528 0
DWIDTH 26 0
BBX 1 1 0 0
BITMAP
00
ENDCHAR
STARTCHAR figuredash
ENCODING 8210
SWIDTH 528 0
DWIDTH 26 0
BBX 22 4 2 11
BITMAP
FFFFFC
FFFFFC
FFFFFC
FFFFFC
ENDCHAR
STARTCHAR endash
ENCODING 8211
SWIDTH 530 0
DWIDTH 27 0
BBX 23 4 2 11
BITMAP
FFFFFE
FFFFFE
FFFFFE
FFFFFE
ENDCHAR
STARTCHAR emdash
ENCODING 8212
SWIDTH 830 0
DWIDTH 42 0
BBX 38 4 2 11
BITMAP
FFFFFFFFFC
FFFFFFFFFC
FFFFFFFFFC
FFFFFFFFFC
ENDCHAR
STARTCHAR uni2015
ENCODING 8213
SWIDTH 830 0
DWIDTH 42 0
BBX 38 4 2 11
BITMAP
FFFFFFFFFC
FFFFFFFFFC
FFFFFFFFFC
FFFFFFFFFC
ENDCHAR
STARTCHAR quoteleft
ENCODING 8216
SWIDTH 215 0
DWIDTH 11 0
BBX 7 15 2 22
BITMAP
06
0E
1C
38
70
70
E0
F0
F8
FC
FE
FE
FE
FE
7C
ENDCHAR
STARTCHAR quoteright
ENCODING 8217
SWIDTH 215 0
DWIDTH 11 0
BBX 8 15 1 22
BITMAP
3C
7E
7F
FF
7F
7F
3F
1F
0F
0E
0E
1C
38
70
60
ENDCHAR
STARTCHAR quotesinglbase
ENCODING 8218
SWIDTH 215 0
DWIDTH 11 0
BBX 8 15 1 -8
BITMAP
3C
7E
7F
FF
7F
7F
3F
1F
0F
0E
0E
1C
38
70
60
ENDCHAR
STARTCHAR quotedblleft
ENCODING 8220
SWIDTH 430 0
DWIDTH 22 0
BBX 18 15 2 22
BITMAP
0600C0
0E01C0
1C0380
380700
700E00
700E00
E01C00
F01E00
F81F00
FC1F80
FE3FC0
FE1FC0
FE1FC0
FE1FC0
7C0F80
ENDCHAR
STARTCHAR quotedblright
ENCODING 8221
SWIDTH 430 0
DWIDTH 22 0
BBX 19 15 1 22
BITMAP
3C0780
7E0FC0
7F0FE0
FF1FE0
7F0FE0
7F0FE0
3F07E0
1F03E0
0F01E0
0E01C0
0E01C0
1C0380
380700
700E00
600C00
ENDCHAR
STARTCHAR quotedblbase
ENCODING 8222
SWIDTH 430 0
DWIDTH 22 0
BBX 19 15 1 -8
BITMAP
3C0780
7E0FC0
7F0FE0
FF1FE0
7F0FE0
7F0FE0
3F07E0
1F03E0
0F01E0
0E01C0
0E01C0
1C0380
380700
700E00
600C00
ENDCHAR
STARTCHAR dagger
ENCODING 8224
SWIDTH 538 0
DWIDTH 27 0
BBX 23 42 2 -5
BITMAP
003800
007C00
00FE00
00FE00
00FE00
00FC00
007C00
007C00
007C00
003800
7C387C
FF3BFE
FFFFFE
FFFFFE
FF3BFE
7C387C
003800
007C00
007C00
007C00
00FC00
00FC00
00FE00
00FE00
00FC00
00FC00
007C00
007C00
007C00
007C00
007C00
007C00
007C00
007800
003800
003800
003800
003800
003800
003800
003800
003000
ENDCHAR
STARTCHAR daggerdbl
ENCODING 8225
SWIDTH 538 0
DWIDTH 27 0
BBX 23 42 2 -5
BITMAP
003800
007C00
00FE00
00FE00
00FE00
00FC00
007C00
007C00
007C00
003800
7C387C
FF3BFE
FFFFFE
FFFFFE
FF3BFE
7C387C
007800
007C00
007C00
00FC00
00FE00
00FE00
00FC00
007C00
007C00
007C00
007800
7C387C
FF3BFE
FFFFFE
FFFFFE
FF3BFE
7C387C
003800
007C00
007C00
007C00
00FC00
00FE00
00FE00
00FC00
007C00
ENDCHAR
STARTCHAR bullet
ENCODING 8226
SWIDTH 320 0
DWIDTH 16 0
BBX 12 13 2 10
BITMAP
1F00
3FC0
7FE0
FFF0
FFF0
FFF0
FFF0
FFF0
FFF0
FFF0
7FE0
3FC0
0F00
ENDCHAR
STARTCHAR ellipsis
ENCODING 8230
SWIDTH 960 0
DWIDTH 48 0
BBX 42 8 3 -1
BITMAP
3C001E001E00
7F003F803F80
7F003F803F80
FF807FC07FC0
FF807FC07FC0
7F003F803F80
7F003F803F80
3E001F001F00
ENDCHAR
STARTCHAR perthousand
ENCODING 8240
SWIDTH 1215 0
DWIDTH 61 0
BBX 56 34 3 -1
BITMAP
07C00006000000
1FE00007000000
3CF0000F000000
7878001E000000
787C001C000000
F83C0038000000
F83C0078000000
F83E00F0000000
F83E00E0000000
F83E01E0000000
F83E03C0000000
F83E0380000000
F83E0780000000
F83C0F0F8003E0
F83C1E3FC00FF0
787C1C79E01E78
78783CF0F03C3C
3CF878F0F83C3E
1FF071F0787C1E
07C0F1F0787C1E
0001E1F07C7C1F
0003C1F07C7C1F
000381F07C7C1F
000781F07C7C1F
000F01F07C7C1F
000E01F07C7C1F
001E01F0787C1E
003C01F0787C1E
003800F0F83C3E
007000F0F03C3C
00F00079F01E7C
01E0003FE00FF8
01C0000F8003E0
00C00000000000
ENDCHAR
STARTCHAR uni2032
ENCODING 8242
SWIDTH 257 0
DWIDTH 13 0
BBX 7 16 3 21
BITMAP
7C
FC
FE
FE
FE
FE
FC
FC
FC
F8
F8
F0
F0
E0
E0
E0
ENDCHAR
STARTCHAR uni2033
ENCODING 8243
SWIDTH 467 0
DWIDTH 23 0
BBX 18 16 3 21
BITMAP
7C0F80
FC1F80
FE1FC0
FE1FC0
FE1FC0
FE1FC0
FC1F80
FC1F80
FC1F80
F81F00
F81F00
F01E00
F01E00
E01C00
E01C00
E01C00
ENDCHAR
STARTCHAR guilsinglleft
ENCODING 8249
SWIDTH 280 0
DWIDTH 14 0
BBX 11 20 2 3
BITMAP
0040
01E0
03E0
07C0
0F80
3F00
7E00
FC00
F800
F000
F000
F800
FC00
7E00
3F00
0F80
07C0
03E0
01E0
0040
ENDCHAR
STARTCHAR guilsinglright
ENCODING 8250
SWIDTH 280 0
DWIDTH 14 0
BBX 12 20 1 3
BITMAP
4000
F000
F800
7C00
3E00
1F80
0FC0
07E0
03F0
01F0
01F0
03F0
07E0
0FC0
1F80
3E00
7C00
F800
F000
4000
ENDCHAR
STARTCHAR fraction
ENCODING 8260
SWIDTH 140 0
DWIDTH 7 0
BBX 25 34 -9 -1
BITMAP
00000300
00000380
00000780
00000F00
00000E00
00001C00
00003C00
00007800
00007000
0000F000
0001E000
0001C000
0003C000
00078000
000F0000
000E0000
001E0000
003C0000
00380000
00780000
00F00000
01E00000
01C00000
03C00000
07800000
07000000
0F000000
1E000000
1C000000
38000000
78000000
F0000000
E0000000
60000000
ENDCHAR
STARTCHAR zero.sups
ENCODING 8304
SWIDTH 369 0
DWIDTH 18 0
BBX 15 20 2 21
BITMAP
07C0
1FE0
3CF0
7878
787C
F83C
F83C
F83E
F83E
F83E
F83E
F83E
F83E
F83C
F83C
787C
7878
3CF8
1FF0
07C0
ENDCHAR
STARTCHAR i.sups
ENCODING 8305
SWIDTH 212 0
DWIDTH 11 0
BBX 9 24 1 21
BITMAP
1C00
3E00
3F00
3E00
1C00
0000
0000
0000
0600
3E00
FE00
FE00
3E00
3E00
3E00
3E00
3E00
3E00
3E00
3E00
3E00
7F80
FF80
FF80
ENDCHAR
STARTCHAR four.sups
ENCODING 8308
SWIDTH 368 0
DWIDTH 18 0
BBX 17 20 1 21
BITMAP
003C00
007C00
00FC00
01FC00
01FC00
037C00
077C00
0E7C00
0C7C00
187C00
387C00
707C00
FFFF80
FFFF80
FFFF80
FFFF80
007C00
007C00
007C00
007C00
ENDCHAR
STARTCHAR five.sups
ENCODING 8309
SWIDTH 353 0
DWIDTH 18 0
BBX 15 20 1 20
BITMAP
1FFE
1FFE
1FFE
1FFE
1800
1800
1800
3FF0
3FF8
3FFC
007E
003E
003E
703E
F03E
F83E
783E
787C
3FF8
0FE0
ENDCHAR
STARTCHAR six.sups
ENCODING 8310
SWIDTH 370 0
DWIDTH 19 0
BBX 15 21 2 20
BITMAP
0038
01F8
07E0
0F80
1F00
3E00
7C00
7800
FBF0
FFF8
FFFC
F87E
F83E
F83E
F83E
F83E
F83E
7C3E
3C7C
1FF8
07E0
ENDCHAR
STARTCHAR seven.sups
ENCODING 8311
SWIDTH 337 0
DWIDTH 17 0
BBX 14 19 1 21
BITMAP
FFFC
FFFC
FFFC
FFFC
0038
0038
0070
0070
00E0
01E0
01C0
03C0
03C0
0780
0F80
0F00
1F00
1E00
3E00
ENDCHAR
STARTCHAR eight.sups
ENCODING 8312
SWIDTH 370 0
DWIDTH 19 0
BBX 15 21 2 20
BITMAP
07C0
1FF0
3C78
7838
783C
783C
7C38
7E78
7FF0
3FE0
1FF0
1FF8
79FC
707C
F03E
F03E
F03C
F03C
787C
3FF8
0FE0
ENDCHAR
STARTCHAR nine.sups
ENCODING 8313
SWIDTH 361 0
DWIDTH 18 0
BBX 16 20 1 21
BITMAP
07E0
1FF0
3C7C
783C
783E
F83E
F81E
F81E
7C1F
7FFF
3FFE
1FFE
003E
003C
007C
00F8
01F0
07E0
3F80
1E00
ENDCHAR
STARTCHAR parenleft.sups
ENCODING 8317
SWIDTH 252 0
DWIDTH 13 0
BBX 9 27 2 16
BITMAP
0100
0380
0700
0E00
1E00
3C00
3C00
7800
7800
F800
F000
F000
F000
F000
F000
F000
F000
F800
7800
7800
3C00
3C00
1E00
0E00
0700
0380
0100
ENDCHAR
STARTCHAR parenright.sups
ENCODING 8318
SWIDTH 252 0
DWIDTH 13 0
BBX 9 27 2 16
BITMAP
C000
E000
7000
7800
3C00
3C00
1E00
1E00
0F00
0F00
0F00
0F80
0F80
0F80
0F80
0F80
0F00
0F00
0F00
1E00
1E00
3C00
3C00
7800
7000
E000
C000
ENDCHAR
STARTCHAR n.sups
ENCODING 8319
SWIDTH 425 0
DWIDTH 21 0
BBX 20 16 1 21
BITMAP
063E00
3EFF00
FFFF80
FF8F80
3E07C0
3E07C0
3E07C0
3E07C0
3E07C0
3E07C0
3E07C0
3E07C0
3E07C0
7F9FE0
FF9FF0
FF9FF0
ENDCHAR
STARTCHAR zero.subs
ENCODING 8320
SWIDTH 369 0
DWIDTH 18 0
BBX 15 20 2 -11
BITMAP
07C0
1FE0
3CF0
7878
787C
F83C
F83C
F83E
F83E
F83E
F83E
F83E
F83E
F83C
F83C
787C
7878
3CF8
1FF0
07C0
ENDCHAR
STARTCHAR one.subs
ENCODING 8321
SWIDTH 328 0
DWIDTH 16 0
BBX 12 20 2 -11
BITMAP
0380
7F80
7F80
7F80
0F80
0F80
0F80
0F80
0F80
0F80
0F80
0F80
0F80
0F80
0F80
0F80
0F80
3FE0
FFF0
FFF0
ENDCHAR
STARTCHAR two.subs
ENCODING 8322
SWIDTH 358 0
DWIDTH 18 0
BBX 14 20 2 -11
BITMAP
0FC0
3FF0
71F8
F0F8
F0F8
F0F8
60F8
00F8
00F0
01F0
01E0
03C0
0780
0E00
1C00
3800
7FFC
FFFC
FFFC
FFFC
ENDCHAR
STARTCHAR three.subs
ENCODING 8323
SWIDTH 357 0
DWIDTH 18 0
BBX 15 21 1 -12
BITMAP
07E0
1FF8
38FC
387C
783E
783E
003C
007C
00F8
07F0
07F0
07FC
007E
003E
603E
F03E
F83E
783E
78FC
3FF8
0FE0
ENDCHAR
STARTCHAR four.subs
ENCODING 8324
SWIDTH 368 0
DWIDTH 18 0
BBX 17 20 1 -11
BITMAP
003C00
007C00
00FC00
01FC00
01FC00
037C00
077C00
0E7C00
0C7C00
187C00
387C00
707C00
FFFF80
FFFF80
FFFF80
FFFF80
007C00
007C00
007C00
007C00
ENDCHAR
STARTCHAR five.subs
ENCODING 8325
SWIDTH 353 0
DWIDTH 18 0
BBX 15 20 1 -12
BITMAP
1FFE
1FFE
1FFE
1FFE
1800
1800
1800
3FF0
3FF8
3FFC
007E
003E
003E
703E
F03E
F83E
783E
787C
3FF8
0FE0
ENDCHAR
STARTCHAR six.subs
ENCODING 8326
SWIDTH 370 0
DWIDTH 19 0
BBX 15 21 2 -12
BITMAP
0038
01F8
07E0
0F80
1F00
3E00
7C00
7800
FBF0
FFF8
FFFC
F87E
F83E
F83E
F83E
F83E
F83E
7C3E
3C7C
1FF8
07E0
ENDCHAR
STARTCHAR seven.subs
ENCODING 8327
SWIDTH 337 0
DWIDTH 17 0
BBX 14 19 1 -11
BITMAP
FFFC
FFFC
FFFC
FFFC
0038
0038
0070
0070
00E0
01E0
01C0
03C0
03C0
0780
0F80
0F00
1F00
1E00
3E00
ENDCHAR
STARTCHAR eight.subs
ENCODING 8328
SWIDTH 370 0
DWIDTH 19 0
BBX 15 21 2 -12
BITMAP
07C0
1FF0
3C78
7838
783C
783C
7C38
7E78
7FF0
3FE0
1FF0
1FF8
79FC
707C
F03E
F03E
F03C
F03C
787C
3FF8
0FE0
ENDCHAR
STARTCHAR nine.subs
ENCODING 8329
SWIDTH 361 0
DWIDTH 18 0
BBX 16 20 1 -11
BITMAP
07E0
1FF0
3C7C
783C
783E
F83E
F81E
F81E
7C1F
7FFF
3FFE
1FFE
003E
003C
007C
00F8
01F0
07E0
3F80
1E00
ENDCHAR
STARTCHAR parenleft.subs
ENCODING 8333
SWIDTH 252 0
DWIDTH 13 0
BBX 9 27 2 -16
BITMAP
0100
0380
0700
0E00
1E00
3C00
3C00
7800
7800
F800
F000
F000
F000
F000
F000
F000
F000
F800
7800
7800
3C00
3C00
1E00
0E00
0700
0380
0100
ENDCHAR
STARTCHAR parenright.subs
ENCODING 8334
SWIDTH 252 0
DWIDTH 13 0
BBX 9 27 2 -16
BITMAP
C000
E000
7000
7800
3C00
3C00
1E00
1E00
0F00
0F00
0F00
0F80
0F80
0F80
0F80
0F80
0F00
0F00
0F00
1E00
1E00
3C00
3C00
7800
7000
E000
C000
ENDCHAR
STARTCHAR Euro
ENCODING 8364
SWIDTH 528 0
DWIDTH 26 0
BBX 26 34 0 -1
BITMAP
0007F800
001FFE00
007FFF00
00FE1F80
01FC0F80
03F80F80
03F00FC0
07E00FC0
07E00F80
0FE00300
0FC00000
0FC00000
FFFFF000
FFFFF000
FFFFF000
1FC00000
1FC00000
1FC00000
1FC00000
FFFFF000
FFFFF000
FFFFF000
0FC00000
0FC00000
0FE00300
07E007C0
07E00FC0
07F00FC0
03F80F80
01FC0F80
00FF0F00
007FFF00
003FFE00
0007F800
ENDCHAR
STARTCHAR uni20B9
ENCODING 8377
SWIDTH 528 0
DWIDTH 26 0
BBX 23 33 2 -1
BITMAP
FFFFFC
FFFFFC
FFFFFC
00FF00
003F80
003F80
FFFFFC
FFFFFC
FFFFFC
001FC0
001FC0
001FC0
003F80
003F80
007F00
01FE00
FFF800
FFE000
FFF800
01FE00
00FF00
007F00
003F80
003F80
003F80
003FC0
001FC0
001FC0
001FC0
001FE0
000FFE
000FFE
0003FE
ENDCHAR
STARTCHAR uni20BA
ENCODING 8378
SWIDTH 528 0
DWIDTH 26 0
BBX 23 33 1 -1
BITMAP
FFFE00
FFFE00
3FF800
0FE040
0FE1C0
0FE7C0
0FEFC0
0FFF00
0FFC00
0FF800
0FE040
3FE0C0
FFE3C0
FFEFC0
EFFF80
8FFE00
0FF800
0FE000
3FE00C
7FE01E
FFE03E
EFE03E
8FE03E
8FE01E
0FE01E
0FE01C
0FE01C
0FE038
0FE0F0
0FE3E0
0FFFC0
0FFF00
03F800
ENDCHAR
STARTCHAR uni2113
ENCODING 8467
SWIDTH 562 0
DWIDTH 28 0
BBX 25 38 1 -1
BITMAP
000FC000
007FF000
00FFF800
01F8FC00
03F07C00
03F07E00
07E07E00
07E07E00
0FE07E00
0FE07E00
0FE07E00
0FC07E00
0FC0FE00
1FC0FE00
1FC0FC00
1FC1FC00
1FC1F800
1FC3F800
1FC7F000
1FC7E000
1FCFC000
1FDFC000
1FFF8000
1FFE0000
0FFC0000
0FF80000
0FF00000
0FE00000
1FE00000
3FE00000
FFF00000
F3F00000
43F00200
01F80700
00FE1F80
007FFF00
003FFC00
000FF000
ENDCHAR
STARTCHAR uni2117
ENCODING 8471
SWIDTH 748 0
DWIDTH 37 0
BBX 34 35 2 -1
BITMAP
0007F80000
007FFF0000
00FFFFC000
03F80FE000
07C001F000
0F80007800
1E00003C00
3C00001E00
387FFC0E00
787FFF0700
707FFF8700
700F8F8380
E00F87C380
E00F87C380
E00F87C180
E00F87C1C0
E00F87C1C0
E00F9F81C0
E00FFF81C0
E00FFF01C0
E00FF80180
E00F800380
E00F800380
700F800380
700F800700
787FF00700
387FF00E00
1C7FF01E00
1E00003C00
0F80007800
07C001F000
03F80FE000
00FFFFC000
007FFF0000
0007F80000
ENDCHAR
STARTCHAR uni2120
ENCODING 8480
SWIDTH 705 0
DWIDTH 35 0
BBX 32 15 2 18
BITMAP
3F8FC03F
71CFC03F
E1C3E07C
E1C3E07C
F003F0FC
F803F0FC
FF03F9BC
7FC379BC
3FC37D3C
07E33F3C
01E33E3C
C1E31E3C
C1C31C3C
E38FCCFF
7F0FCCFF
ENDCHAR
STARTCHAR trademark
ENCODING 8482
SWIDTH 761 0
DWIDTH 38 0
BBX 35 15 2 18
BITMAP
FFF9F007E0
FFF9F80FE0
CF98F80F80
CF98FC1F80
CF98FC1F80
0F84FE3780
0F80DE3780
0F80DF2780
0F80CF6780
0F80CFC780
0F80C7C780
0F80C78780
0F80C38780
1FC1F39FE0
1FC1F11FE0
ENDCHAR
STARTCHAR uni2126
ENCODING 8486
SWIDTH 818 0
DWIDTH 41 0
BBX 39 34 1 0
BITMAP
0001FF0000
000FFFE000
003FFFF800
00FF01FE00
01FE00FF00
03F8007F80
03F8003F80
07F0001FC0
07F0001FC0
0FE0001FE0
0FE0000FE0
0FE0000FE0
0FE0000FE0
0FE0000FE0
0FE0000FE0
0FE0000FE0
0FE0000FE0
0FE0001FC0
07F0001FC0
07F0001FC0
07F0001F80
03F8003F80
F3F8003F1E
F1F8007F1E
F0FC007E1E
F0FC00FC1E
F07E00F81E
F81F01F03E
FFFF83FFFE
FFFF83FFFE
FFFF83FFFE
FFFF83FFFE
FFFF83FFFE
FFFF83FFFC
ENDCHAR
STARTCHAR estimated
ENCODING 8494
SWIDTH 800 0
DWIDTH 40 0
BBX 36 34 2 -1
BITMAP
0003FC0000
001C038000
007000E000
01C0003800
0380000C00
0700000600
0E00000700
1E00000780
1E00000780
3E000007C0
3E000007C0
7E000007E0
7E000007E0
7E000007E0
FE000007F0
FE000007F0
FFFFFFFFF0
FE00000000
FE00000000
FE00000000
7E00000000
7E00000000
7E00000000
3E00000000
3E00000000
1E00000000
1E00000000
0E00000700
0700000E00
0380001C00
01C0003800
007000E000
001C038000
0003FC0000
ENDCHAR
STARTCHAR onethird
ENCODING 8531
SWIDTH 880 0
DWIDTH 44 0
BBX 39 34 2 -1
BITMAP
0380000600
7F80000700
7F80000F00
7F80001E00
0F80001C00
0F80003800
0F80007800
0F8000F000
0F8000E000
0F8001E000
0F8003C000
0F80038000
0F80078000
0F800F07E0
0F801E1FF8
0F801C38FC
0F803C387C
3FE078783E
FFF070783E
FFF0F0003C
0001E0007C
0003C000F8
00038007F0
00078007F0
000F0007FC
000E00007E
001E00003E
003C00603E
003800F03E
007000F83E
00F000783E
01E00078FC
01C0003FF8
00C0000FE0
ENDCHAR
STARTCHAR twothirds
ENCODING 8532
SWIDTH 880 0
DWIDTH 44 0
BBX 40 34 2 -1
BITMAP
0FC0000300
3FF0000380
71F8000780
F0F8000F00
F0F8000E00
F0F8001C00
60F8003C00
00F8007800
00F0007000
01F000F000
01E001E000
03C001C000
078003C000
0E000783F0
1C000F0FFC
38000E1C7E
7FFC1E1C3E
FFFC3C3C1F
FFFC383C1F
FFFC78001E
0000F0003E
0001E0007C
0001C003F8
0003C003F8
00078003FE
000700003F
000F00001F
001E00301F
001C00781F
0038007C1F
0078003C1F
00F0003C7E
00E0001FFC
00600007F0
ENDCHAR
STARTCHAR oneeighth
ENCODING 8539
SWIDTH 880 0
DWIDTH 44 0
BBX 38 34 3 -1
BITMAP
0380000600
7F80000700
7F80000F00
7F80001E00
0F80001C00
0F80003800
0F80007800
0F8000F000
0F8000E000
0F8001E000
0F8003C000
0F80038000
0F80078000
0F800F0F80
0F801E3FE0
0F801C78F0
0F803CF070
3FE078F078
FFF070F078
FFF0F0F870
0001E0FCF0
0003C0FFE0
0003807FC0
0007803FE0
000F003FF0
000E00F3F8
001E00E0F8
003C01E07C
003801E07C
007001E078
00F001E078
01E000F0F8
01C000FFF0
00C0001FC0
ENDCHAR
STARTCHAR threeeighths
ENCODING 8540
SWIDTH 880 0
DWIDTH 44 0
BBX 40 34 2 -1
BITMAP
07E0000300
1FF8000380
38FC000780
387C000F00
783E000E00
783E001C00
003C003C00
007C007800
00F8007000
07F000F000
07F001E000
07FC01C000
007E03C000
003E0783E0
603E0F0FF8
F03E0E1E3C
F83E1E3C1C
783E3C3C1E
78FC383C1E
3FF8783E1C
0FE0F03F3C
0001E03FF8
0001C01FF0
0003C00FF8
0007800FFC
0007003CFE
000F00383E
001E00781F
001C00781F
003800781E
007800781E
00F0003C3E
00E0003FFC
00600007F0
ENDCHAR
STARTCHAR fiveeighths
ENCODING 8541
SWIDTH 880 0
DWIDTH 44 0
BBX 40 34 2 -1
BITMAP
0000000300
1FFE000380
1FFE000780
1FFE000F00
1FFE000E00
1800001C00
1800003C00
1800007800
3FF0007000
3FF800F000
3FFC01E000
007E01C000
003E03C000
003E0783E0
703E0F0FF8
F03E0E1E3C
F83E1E3C1C
783E3C3C1E
787C383C1E
3FF8783E1C
0FE0F03F3C
0001E03FF8
0001C01FF0
0003C00FF8
0007800FFC
0007003CFE
000F00383E
001E00781F
001C00781F
003800781E
007800781E
00F0003C3E
00E0003FFC
00600007F0
ENDCHAR
STARTCHAR seveneighths
ENCODING 8542
SWIDTH 880 0
DWIDTH 44 0
BBX 38 34 3 -1
BITMAP
0000001800
FFFC001C00
FFFC003C00
FFFC007800
FFFC007000
003800E000
003801E000
007003C000
0070038000
00E0078000
01E00F0000
01C00E0000
03C01E0000
03C03C0F80
0780783FE0
0F807078F0
0F00F0F070
1F01E0F078
1E01C0F078
3E03C0F870
000780FCF0
000F00FFE0
000E007FC0
001E003FE0
003C003FF0
003800F3F8
007800E0F8
00F001E07C
00E001E07C
01C001E078
03C001E078
078000F0F8
070000FFF0
0300001FC0
ENDCHAR
STARTCHAR uni2190
ENCODING 8592
SWIDTH 720 0
DWIDTH 36 0
BBX 32 31 2 -3
BITMAP
00010000
00038000
0007C000
000F8000
001F0000
003E0000
00FC0000
01F80000
03F00000
07E00000
0FC00000
1F800000
3F000000
FE03FFFF
FFFFFFFF
FFFFFFFF
FFFFFFFF
FE03FFFF
3F000000
1F800000
0FC00000
07E00000
03F00000
01F80000
00FC0000
003E0000
001F0000
000F8000
0007C000
00038000
00010000
ENDCHAR
STARTCHAR arrowup
ENCODING 8593
SWIDTH 720 0
DWIDTH 36 0
BBX 30 33 3 -3
BITMAP
00078000
000FC000
000FC000
001FE000
003FF000
007FF800
00FFFC00
01FFFE00
03F7BF00
03E79F00
07C78F80
0F8787C0
1F0783E0
3E0781F0
7C0780F8
F807807C
F007803C
60078018
00078000
00078000
00078000
00078000
00078000
00078000
00078000
00078000
00078000
00078000
00078000
00078000
00078000
00078000
00078000
ENDCHAR
STARTCHAR uni2192
ENCODING 8594
SWIDTH 720 0
DWIDTH 36 0
BBX 32 31 2 -3
BITMAP
00018000
0003C000
0003E000
0001F000
0000F800
00007C00
00003F00
00001F80
00000FC0
000007E0
000003F0
000001F8
000000FC
FFFFC07F
FFFFFFFF
FFFFFFFF
FFFFFFFF
FFFFC07F
000000FC
000001F8
000003F0
000007E0
00000FC0
00001F80
00003F00
00007C00
0000F800
0001F000
0003E000
0003C000
00018000
ENDCHAR
STARTCHAR arrowdown
ENCODING 8595
SWIDTH 720 0
DWIDTH 36 0
BBX 30 33 3 -3
BITMAP
00078000
00078000
00078000
00078000
00078000
00078000
00078000
00078000
00078000
00078000
00078000
00078000
00078000
00078000
00078000
60078018
F007803C
F807807C
7C0780F8
3E0781F0
1F0783E0
0F8787C0
07C78F80
03E79F00
03F7BF00
01FFFE00
00FFFC00
007FF800
003FF000
001FE000
000FC000
000FC000
00078000
ENDCHAR
STARTCHAR uni2196
ENCODING 8598
SWIDTH 720 0
DWIDTH 36 0
BBX 26 26 5 0
BITMAP
40000000
7FFF0000
FFFFFE00
FFFFFE00
FFFFFE00
FE000000
7F800000
7FC00000
7BE00000
79F00000
78F80000
787C0000
783E0000
781F0000
781F8000
780FC000
7807E000
7803F000
7801F800
7800FC00
78007E00
38003F00
38001F80
38000FC0
00000700
00000200
ENDCHAR
STARTCHAR uni2197
ENCODING 8599
SWIDTH 720 0
DWIDTH 36 0
BBX 26 26 5 0
BITMAP
00000100
003FFF80
1FFFFFC0
1FFFFFC0
1FFFFFC0
00001FC0
00007F80
0000FF80
0001F780
0003E780
0007C780
000F8780
001F0780
003E0780
007E0780
00FC0780
01F80780
03F00780
07E00780
0FC00780
1F800780
3F000700
7E000700
FC000700
38000000
10000000
ENDCHAR
STARTCHAR uni2198
ENCODING 8600
SWIDTH 720 0
DWIDTH 36 0
BBX 26 25 5 0
BITMAP
10000000
38000000
7C000700
FE000700
7F000700
1F800780
0FC00780
07E00780
03F00780
01F00780
00F80780
007C0780
003E0780
001F0780
000F8780
0007C780
0003E780
0001F780
0000FF80
00007F80
00003FC0
1FFFFFC0
1FFFFFC0
1FFFFFC0
003FFF80
ENDCHAR
STARTCHAR uni2199
ENCODING 8601
SWIDTH 720 0
DWIDTH 36 0
BBX 26 25 5 0
BITMAP
00000200
00000700
38000F80
38001FC0
38003F80
78007E00
7800FC00
7801F800
7803F000
7803E000
7807C000
780F8000
781F0000
783E0000
787C0000
78F80000
79F00000
7BE00000
7FC00000
7F800000
FF000000
FFFFFE00
FFFFFE00
FFFFFE00
7FFF0000
ENDCHAR
STARTCHAR partialdiff
ENCODING 8706
SWIDTH 567 0
DWIDTH 28 0
BBX 24 34 3 -1
BITMAP
007F00
01FFC0
07FFF0
0F83F8
0E01FC
0400FC
0000FE
00007E
00007E
00007F
00007F
00007F
00003F
00FE3F
07FFBF
0FFFFF
3FC1FF
3F80FF
7F007F
FE007F
FE007F
FE007E
FC007E
FC007E
FC00FC
FC00FC
FC01F8
FC01F8
FE03F0
7E07E0
7F0FC0
3FFF80
1FFE00
07F800
ENDCHAR
STARTCHAR uni2206
ENCODING 8710
SWIDTH 579 0
DWIDTH 29 0
BBX 27 33 1 0
BITMAP
000E0000
001E0000
001F0000
001F0000
003F8000
003F8000
007F8000
007FC000
007FC000
00EFE000
00EFE000
01CFE000
01C7F000
01C7F000
0383F800
0383F800
0303F800
0701FC00
0701FC00
0E00FE00
0E00FE00
0E00FE00
1C007F00
1C007F00
38003F80
38003F80
38003F80
70001FC0
70001FC0
F0001FC0
FFFFFFE0
FFFFFFE0
FFFFFFE0
ENDCHAR
STARTCHAR product
ENCODING 8719
SWIDTH 831 0
DWIDTH 42 0
BBX 36 39 3 -6
BITMAP
FFFFFFFFF0
FFFFFFFFF0
FFFFFFFFF0
0FE000FF00
0FE0007F00
0FE0007F00
0FE0007F00
0FE0007F00
0FE0007F00
0FE0007F00
0FE0007F00
0FE0007F00
0FE0007F00
0FE0007F00
0FE0007F00
0FE0007F00
0FE0007F00
0FE0007F00
0FE0007F00
0FE0007F00
0FE0007F00
0FE0007F00
0FE0007F00
0FE0007F00
0FE0007F00
0FE0007F00
0FE0007F00
0FE0007F00
0FE0007F00
0FE0007F00
0FE0007F00
0FE0007F00
0FE0007F00
0FE0007F00
0FE0007F00
0FE000FF00
FFFE0FFFF0
FFFE0FFFF0
FFFE0FFFF0
ENDCHAR
STARTCHAR summation
ENCODING 8721
SWIDTH 570 0
DWIDTH 29 0
BBX 27 39 1 -6
BITMAP
FFFFFF80
FFFFFF80
FFFFFF80
7F800F80
7FC00780
3FE00780
1FE00780
1FF00780
0FF00780
07F80040
07FC0000
03FC0000
03FE0000
01FE0000
00FF0000
00FF8000
007F8000
003FC000
003FC000
001F8000
001F0000
001E0000
003E0000
007C0000
00780000
00F00000
01E003E0
03E003C0
07C003C0
0F8003C0
1F0003C0
1E0003C0
3C0007C0
7FFFFFC0
7FFFFFC0
7FFFFFC0
7FFFFFC0
7FFFFFC0
7FFFFFC0
ENDCHAR
STARTCHAR minus
ENCODING 8722
SWIDTH 530 0
DWIDTH 27 0
BBX 23 3 2 14
BITMAP
FFFFFE
FFFFFE
FFFFFE
ENDCHAR
STARTCHAR uni2215
ENCODING 8725
SWIDTH 140 0
DWIDTH 7 0
BBX 25 34 -9 -1
BITMAP
00000300
00000380
00000780
00000F00
00000E00
00001C00
00003C00
00007800
00007000
0000F000
0001E000
0001C000
0003C000
00078000
000F0000
000E0000
001E0000
003C0000
00380000
00780000
00F00000
01E00000
01C00000
03C00000
07800000
07000000
0F000000
1E000000
1C000000
38000000
78000000
F0000000
E0000000
60000000
ENDCHAR
STARTCHAR uni2219
ENCODING 8729
SWIDTH 300 0
DWIDTH 15 0
BBX 9 8 3 12
BITMAP
3C00
7F00
7F00
FF80
FF80
7F00
7F00
3E00
ENDCHAR
STARTCHAR radical
ENCODING 8730
SWIDTH 578 0
DWIDTH 29 0
BBX 27 43 2 -5
BITMAP
000003E0
000007E0
000007C0
000007C0
000007C0
000007C0
00000F80
00000F80
00000F80
00000F80
00000F00
00001F00
00001F00
00001F00
00001E00
00001E00
00003E00
00003E00
00003C00
00003C00
00003C00
FF807C00
FF807800
FFC07800
07C07800
07C07800
03E0F000
03E0F000
03F0F000
01F0F000
01F0E000
01F9E000
00F9E000
00F9E000
007DC000
007DC000
007FC000
003FC000
003FC000
003F8000
001F8000
001F8000
001F8000
ENDCHAR
STARTCHAR infinity
ENCODING 8734
SWIDTH 815 0
DWIDTH 41 0
BBX 37 19 2 7
BITMAP
07F0003F00
1FFC00FFC0
3FFF01FFE0
7FFF87FFF0
7FFFC7FFF0
F83FEFC1F8
E01FFE0078
E007FC0038
E003F80038
E001FC0038
E000FE0038
E001FF0038
F007FF8078
F81FBFE0F0
FFFF1FFFF0
7FFE0FFFE0
3FFC07FFC0
1FF803FF80
07E0007E00
ENDCHAR
STARTCHAR integral
ENCODING 8747
SWIDTH 438 0
DWIDTH 22 0
BBX 26 47 -2 -9
BITMAP
00007F00
0001FF80
0007FFC0
000FDFC0
000F8F80
001F0780
001F0000
003F0000
003F0000
003F0000
007F0000
007F0000
007F0000
007F0000
007F0000
007F0000
007F0000
007F0000
007F0000
007F0000
007F0000
007F0000
003F0000
003F0000
003F0000
003F0000
003F0000
003F8000
003F8000
003F8000
003F8000
003F8000
003F8000
003F8000
003F8000
003F8000
003F0000
003F0000
003F0000
003F0000
003E0000
783E0000
FC7C0000
FEFC0000
FFF80000
7FE00000
3F800000
ENDCHAR
STARTCHAR approxequal
ENCODING 8776
SWIDTH 530 0
DWIDTH 27 0
BBX 23 20 2 7
BITMAP
1F801E
3FC01C
7FF01C
78F83C
F07C3C
F01FF8
F00FF0
E003E0
000000
000000
000000
000000
1F801E
3FC01C
7FF01C
78F83C
F07C3C
F01FF8
F00FF0
E003E0
ENDCHAR
STARTCHAR notequal
ENCODING 8800
SWIDTH 530 0
DWIDTH 27 0
BBX 23 29 2 1
BITMAP
000060
000070
0000F0
0001E0
0001E0
0003C0
000380
000780
FFFFFE
FFFFFE
FFFFFE
003C00
003C00
007800
007800
00F000
00F000
01E000
FFFFFE
FFFFFE
FFFFFE
070000
0F0000
0E0000
1E0000
3C0000
380000
780000
100000
ENDCHAR
STARTCHAR lessequal
ENCODING 8804
SWIDTH 530 0
DWIDTH 27 0
BBX 23 29 2 0
BITMAP
000010
000070
0001F8
0007F8
001FF4
007FC0
01FF00
07FC00
0FF000
3FC000
FF0000
FC0000
FE0000
7F8000
1FE000
0FF800
03FE00
00FF80
003FE0
000FF8
0003FC
0000F8
000030
000000
000000
000000
FFFFFE
FFFFFE
FFFFFE
ENDCHAR
STARTCHAR greaterequal
ENCODING 8805
SWIDTH 530 0
DWIDTH 27 0
BBX 23 29 2 0
BITMAP
100000
3C0000
3F0000
7F8000
3FE000
0FF800
03FE00
00FF80
003FE0
000FF8
0003FC
0000FC
0001FC
0007FC
001FF0
007FC0
01FF00
07FC00
1FF000
7FC000
7F8000
3E0000
380000
000000
000000
000000
FFFFFE
FFFFFE
FFFFFE
ENDCHAR
STARTCHAR uni25A0
ENCODING 9632
SWIDTH 720 0
DWIDTH 36 0
BBX 30 30 3 -1
BITMAP
FFFFFFFC
FFFFFFFC
FFFFFFFC
FFFFFFFC
FFFFFFFC
FFFFFFFC
FFFFFFFC
FFFFFFFC
FFFFFFFC
FFFFFFFC
FFFFFFFC
FFFFFFFC
FFFFFFFC
FFFFFFFC
FFFFFFFC
FFFFFFFC
FFFFFFFC
FFFFFFFC
FFFFFFFC
FFFFFFFC
FFFFFFFC
FFFFFFFC
FFFFFFFC
FFFFFFFC
FFFFFFFC
FFFFFFFC
FFFFFFFC
FFFFFFFC
FFFFFFFC
FFFFFFFC
ENDCHAR
STARTCHAR triagup
ENCODING 9650
SWIDTH 600 0
DWIDTH 30 0
BBX 28 25 1 1
BITMAP
00060000
000F0000
000F0000
001F8000
001F8000
003FC000
003FC000
007FE000
00FFF000
00FFF000
01FFF800
01FFF800
03FFFC00
03FFFC00
07FFFE00
0FFFFF00
0FFFFF00
1FFFFF80
1FFFFF80
3FFFFFC0
3FFFFFC0
7FFFFFE0
FFFFFFF0
FFFFFFF0
FFFFFFF0
ENDCHAR
STARTCHAR uni25B3
ENCODING 9651
SWIDTH 600 0
DWIDTH 30 0
BBX 28 25 1 2
BITMAP
00060000
00060000
000F0000
001F8000
001F8000
003FC000
003FC000
007FE000
0079E000
00F9F000
01F0F800
01E07800
03E07C00
03C03C00
07C03E00
0F801E00
0F801F00
1F000F80
1E000780
3E0007C0
3C0003C0
7C0003E0
FFFFFFF0
FFFFFFF0
FFFFFFF0
ENDCHAR
STARTCHAR uni25B6
ENCODING 9654
SWIDTH 600 0
DWIDTH 30 0
BBX 24 28 4 -1
BITMAP
C00000
F00000
F80000
FE0000
FF8000
FFE000
FFF000
FFFC00
FFFF00
FFFFC0
FFFFE0
FFFFF8
FFFFFE
FFFFFF
FFFFFF
FFFFFE
FFFFF8
FFFFE0
FFFFC0
FFFF00
FFFC00
FFF000
FFE000
FF8000
FE0000
F80000
F00000
C00000
ENDCHAR
STARTCHAR uni25B7
ENCODING 9655
SWIDTH 600 0
DWIDTH 30 0
BBX 24 28 4 -1
BITMAP
C00000
F00000
F80000
FE0000
FF8000
FFE000
E7F000
E1FC00
E07F00
E03FC0
E00FE0
E003F8
E000FE
E0007F
E0007F
E000FE
E003F8
E00FE0
E03FC0
E07F00
E1FC00
E7F000
FFE000
FF8000
FE0000
F80000
F00000
C00000
ENDCHAR
STARTCHAR triagdn
ENCODING 9660
SWIDTH 600 0
DWIDTH 30 0
BBX 28 25 1 1
BITMAP
FFFFFFF0
FFFFFFF0
FFFFFFF0
7FFFFFE0
3FFFFFC0
3FFFFFC0
1FFFFF80
1FFFFF80
0FFFFF00
0FFFFF00
07FFFE00
03FFFC00
03FFFC00
01FFF800
01FFF800
00FFF000
00FFF000
007FE000
003FC000
003FC000
001F8000
001F8000
000F0000
000F0000
00060000
ENDCHAR
STARTCHAR uni25BD
ENCODING 9661
SWIDTH 600 0
DWIDTH 30 0
BBX 28 25 1 1
BITMAP
FFFFFFF0
FFFFFFF0
FFFFFFF0
7C0003E0
3C0003C0
3E0007C0
1E000780
1F000F80
0F801F00
07801E00
07C03E00
03C03C00
03E07C00
01E07800
01F0F800
00F9F000
0079E000
007FE000
003FC000
003FC000
001F8000
001F8000
000F0000
00060000
00060000
ENDCHAR
STARTCHAR uni25C0
ENCODING 9664
SWIDTH 600 0
DWIDTH 30 0
BBX 24 28 2 -1
BITMAP
000003
00000F
00001F
00007F
0001FF
0007FF
000FFF
003FFF
00FFFF
03FFFF
07FFFF
1FFFFF
7FFFFF
FFFFFF
FFFFFF
7FFFFF
1FFFFF
07FFFF
03FFFF
00FFFF
003FFF
000FFF
0007FF
0001FF
00007F
00001F
00000F
000003
ENDCHAR
STARTCHAR uni25C1
ENCODING 9665
SWIDTH 600 0
DWIDTH 30 0
BBX 24 28 2 -1
BITMAP
000003
00000F
00001F
00007F
0001FF
0007FF
000FE7
003F87
00FE07
03FC07
07F007
1FC007
7F0007
FE0007
FE0007
7F0007
1FC007
07F007
03FC07
00FE07
003F87
000FE7
0007FF
0001FF
00007F
00001F
00000F
000003
ENDCHAR
STARTCHAR uni25C6
ENCODING 9670
SWIDTH 748 0
DWIDTH 37 0
BBX 35 35 1 -2
BITMAP
0000400000
0000E00000
0001F00000
0003F80000
0007FC0000
000FFE0000
001FFF0000
003FFF8000
007FFFC000
00FFFFE000
01FFFFF000
03FFFFF800
07FFFFFC00
0FFFFFFE00
1FFFFFFF00
3FFFFFFF80
7FFFFFFFC0
FFFFFFFFE0
7FFFFFFFE0
3FFFFFFFC0
1FFFFFFF80
0FFFFFFF00
07FFFFFE00
03FFFFFC00
01FFFFF800
00FFFFF000
007FFFE000
003FFFC000
001FFF8000
000FFF0000
0007FE0000
0003FC0000
0001F80000
0000F00000
0000600000
ENDCHAR
STARTCHAR uni25C9
ENCODING 9673
SWIDTH 485 0
DWIDTH 24 0
BBX 20 19 2 7
BITMAP
01F800
07FE00
1FFF80
3F07C0
3C03E0
78F1E0
71F8F0
F3FCF0
F3FC70
F3FE70
F3FC70
F3FCF0
71F8F0
78F1E0
3C03E0
3F07C0
1FFF80
07FF00
01F800
ENDCHAR
STARTCHAR lozenge
ENCODING 9674
SWIDTH 600 0
DWIDTH 30 0
BBX 26 39 2 -3
BITMAP
000C0000
001E0000
001E0000
003F0000
007F8000
007F8000
00F3C000
00F3C000
01E1E000
03E1F000
03C0F000
07C0F800
07807800
0F003C00
1F003E00
1E001E00
3E001F00
7C000F80
78000780
F80007C0
78000780
7C000F80
3E001F00
1E001E00
1F003E00
0F003C00
07807800
07C0F800
03C0F000
03E1F000
01E1E000
00F3C000
00F3C000
007F8000
007F8000
003F0000
001E0000
001E0000
000C0000
ENDCHAR
STARTCHAR uni2610
ENCODING 9744
SWIDTH 807 0
DWIDTH 40 0
BBX 34 34 3 -2
BITMAP
FFFFFFFFC0
FFFFFFFFC0
FFFFFFFFC0
F0000003C0
F0000003C0
F0000003C0
F0000003C0
F0000003C0
F0000003C0
F0000003C0
F0000003C0
F0000003C0
F0000003C0
F0000003C0
F0000003C0
F0000003C0
F0000003C0
F0000003C0
F0000003C0
F0000003C0
F0000003C0
F0000003C0
F0000003C0
F0000003C0
F0000003C0
F0000003C0
F0000003C0
F0000003C0
F0000003C0
F0000003C0
F0000003C0
FFFFFFFFC0
FFFFFFFFC0
FFFFFFFFC0
ENDCHAR
STARTCHAR uni2611
ENCODING 9745
SWIDTH 800 0
DWIDTH 40 0
BBX 34 47 3 -2
BITMAP
0000000200
0000000380
0000000780
0000000700
0000000700
0000000F00
0000000E00
0000001E00
0000001C00
0000003C00
0000003C00
0000003800
0000007800
FFFFFFFFC0
FFFFFFFFC0
FFFFFFFFC0
F00001E3C0
F00001E3C0
F00003C3C0
F00003C3C0
F02003C3C0
F0F00783C0
F1F80783C0
F0F80F83C0
F0FC0F03C0
F07C0F03C0
F07E1F03C0
F03E1E03C0
F03F1E03C0
F01F3E03C0
F01F3C03C0
F00FFC03C0
F00FFC03C0
F007F803C0
F007F803C0
F003F803C0
F003F003C0
F001F003C0
F001F003C0
F001E003C0
F0000003C0
F0000003C0
F0000003C0
F0000003C0
FFFFFFFFC0
FFFFFFFFC0
FFFFFFFFC0
ENDCHAR
STARTCHAR musicalnote
ENCODING 9834
SWIDTH 545 0
DWIDTH 27 0
BBX 25 38 1 -1
BITMAP
001C0000
001C0000
001E0000
001E0000
001F0000
001F8000
001FC000
001FE000
001FF800
001FFC00
001FFE00
001FFE00
001EFF00
001E7F00
001E1F80
001E1F80
001E0F80
001E0780
001E0780
001E0780
001E0700
001E0700
001E0700
001E0E00
001E0C00
001E0000
001E0000
07FE0000
1FFE0000
3FFC0000
7FFC0000
7FFC0000
FFFC0000
FFF80000
FFF80000
7FF00000
7FE00000
1F800000
ENDCHAR
STARTCHAR uni2713
ENCODING 10003
SWIDTH 647 0
DWIDTH 32 0
BBX 27 41 4 0
BITMAP
00000100
000000C0
000001E0
000001C0
000003C0
00000380
00000780
00000700
00000F00
00000F00
00000E00
00001E00
00001C00
00003C00
00003C00
00007800
00007800
00007800
0000F000
0000F000
0001E000
1801E000
7C01E000
FC03C000
7E03C000
3E07C000
3F078000
1F078000
1F8F8000
0F8F0000
0FCF0000
07DF0000
07DE0000
03FE0000
03FE0000
01FC0000
01FC0000
00FC0000
00F80000
00780000
00780000
ENDCHAR
STARTCHAR uni2752
ENCODING 10066
SWIDTH 940 0
DWIDTH 47 0
BBX 41 41 3 -3
BITMAP
003FFFFFFF80
00FFFFFFFF80
03FFFFFFFF80
0FFFFFFFFF80
3FFFFFFFFF80
7FFFFFFFFF80
FFFFFFFFFF80
FFFFFFFFFF80
E00000003F80
E00000003F80
E00000003F80
E00000003F80
E00000003F80
E00000003F80
E00000003F80
E00000003F80
E00000003F80
E00000003F80
E00000003F80
E00000003F80
E00000003F80
E00000003F80
E00000003F80
E00000003F80
E00000003F80
E00000003F80
E00000003F80
E00000003F80
E00000003F80
E00000003F80
E00000003F80
E00000003F00
E00000003F00
E00000003E00
E00000003E00
E00000003C00
E00000003C00
E00000003800
FFFFFFFFF800
FFFFFFFFF000
FFFFFFFFF000
ENDCHAR
STARTCHAR f_i
ENCODING 64257
SWIDTH 624 0
DWIDTH 31 0
BBX 29 37 1 0
BITMAP
0003FC00
001FFF00
007FFF80
00FF3FC0
01FC3FC0
03F81FE0
07F00FC0
07E00780
07E00000
0FE00000
0FE00000
0FC00000
0FC001E0
FFFFFFE0
FFFFFFE0
FFFFFFE0
0FE00FE0
0FE00FE0
0FE00FE0
0FE00FE0
0FE00FE0
0FE00FE0
0FE00FE0
0FE00FE0
0FE00FE0
0FE00FE0
0FE00FE0
0FE00FE0
0FE00FE0
0FE00FE0
0FE00FE0
0FE00FE0
0FE00FE0
0FE00FE0
7FF87FF8
7FFC7FF8
7FFC7FF8
ENDCHAR
STARTCHAR f_l
ENCODING 64258
SWIDTH 629 0
DWIDTH 31 0
BBX 29 37 1 0
BITMAP
0007F000
001FFC60
007FFFE0
00FBFFE0
01F1FFE0
03F0FFE0
07E03FE0
07E00FC0
07E00FC0
0FE00FC0
0FE00FC0
0FC00FC0
0FC00FC0
FFFF0FC0
FFFF0FC0
FFFF0FC0
0FE00FC0
0FE00FC0
0FE00FC0
0FE00FC0
0FE00FC0
0FE00FC0
0FE00FC0
0FE00FC0
0FE00FC0
0FE00FC0
0FE00FC0
0FE00FC0
0FE00FC0
0FE00FC0
0FE00FC0
0FE00FC0
0FE00FE0
0FE00FE0
7FF87FF8
7FFC7FF8
7FFC7FF8
ENDCHAR
STARTCHAR .notdef
ENCODING -1
SWIDTH 636 0
DWIDTH 32 0
BBX 24 33 4 0
BITMAP
FFFFFF
FFFFFF
FFFFFF
F8001F
FC003F
FC0037
EE0077
E600E7
E700C7
E381C7
E18387
E1C387
E0E707
E06607
E07E07
E03C07
E03807
E03C07
E07E07
E0E607
E0E707
E1C387
E18387
E381C7
E700C7
E600E7
EE0077
FC0037
FC003F
F8001F
FFFFFF
FFFFFF
FFFFFF
ENDCHAR
STARTCHAR i.trk
ENCODING -1
SWIDTH 309 0
DWIDTH 15 0
BBX 13 37 2 0
BITMAP
0F00
1FC0
3FC0
3FC0
3FC0
3FC0
1FC0
0F00
0000
0000
0000
0000
00C0
07C0
3FC0
FFC0
FFC0
FFC0
1FC0
1FC0
1FC0
1FC0
1FC0
1FC0
1FC0
1FC0
1FC0
1FC0
1FC0
1FC0
1FC0
1FC0
1FC0
1FC0
7FF0
FFF8
FFF8
ENDCHAR
STARTCHAR f_t
ENCODING -1
SWIDTH 681 0
DWIDTH 34 0
BBX 33 38 1 -1
BITMAP
000FC00000
003FF00000
007FF80000
00FBF80000
01F3F80000
03E1F80000
07E077C000
07E007C000
07E007C000
0FC007C000
0FC00FC000
0FC00FC000
0FC00FC000
FFFFFFFF00
FFFFFFFF00
FFFFFFFF00
0FE01FC000
0FE01FC000
0FE01FC000
0FE01FC000
0FE01FC000
0FE01FC000
0FE01FC000
0FE01FC000
0FE01FC000
0FE01FC000
0FE01FC000
0FE01FC000
0FE01FC000
0FE01FC000
0FE01FC000
0FE01FC000
0FE01FE100
0FE01FFF80
7FFC0FFF80
7FFC0FFF00
7FFC07FE00
000001F800
ENDCHAR
STARTCHAR zero.slash
ENCODING -1
SWIDTH 528 0
DWIDTH 26 0
BBX 23 34 2 -1
BITMAP
00FC00
03FF00
07FFC0
0F87E0
1F03E0
3F03F0
3F03F8
7E03F8
7E07F8
7E07FC
FE0FFC
FE0DFC
FE0CFC
FE1CFC
FE18FC
FE18FE
FE38FE
FE30FE
FE70FE
FE60FC
FE60FC
FEE0FC
FEC1FC
FEC1FC
7FC1FC
7F81F8
7F81F8
3F01F8
3F03F0
1F03E0
0F87E0
07FFC0
03FF00
00FC00
ENDCHAR
STARTCHAR zero.lf
ENCODING -1
SWIDTH 535 0
DWIDTH 27 0
BBX 23 34 2 -1
BITMAP
00FC00
03FF80
07FFC0
0FC7E0
1F83F0
3F01F0
3F01F8
7E01F8
7E01FC
7E00FC
FE00FC
FE00FE
FE00FE
FE00FE
FE00FE
FE00FE
FE00FE
FE00FE
FE00FE
FE00FE
FE00FE
FE00FE
FE00FE
FE00FC
7E00FC
7E01FC
7E01F8
3F01F8
3F01F0
1F83F0
0FC7E0
07FFC0
03FF80
00FE00
ENDCHAR
STARTCHAR one.lf
ENCODING -1
SWIDTH 400 0
DWIDTH 20 0
BBX 19 32 1 0
BITMAP
003800
03F800
3FF800
3FF800
3FF800
03F800
03F800
03F800
03F800
03F800
03F800
03F800
03F800
03F800
03F800
03F800
03F800
03F800
03F800
03F800
03F800
03F800
03F800
03F800
03F800
03F800
03F800
03F800
03F800
FFFFE0
FFFFE0
FFFFE0
ENDCHAR
STARTCHAR two.lf
ENCODING -1
SWIDTH 513 0
DWIDTH 26 0
BBX 22 33 2 0
BITMAP
01FE00
0FFF80
1FFFC0
3E1FE0
7E0FF0
FC07F0
FC07F0
FC07F8
FC03F8
F803F8
3003F0
0007F0
0007F0
0007E0
000FC0
000FC0
001F80
001F00
003E00
007C00
00F800
01F000
03E000
07C000
0F8000
1F0000
3C0000
7FFFFC
FFFFFC
FFFFFC
FFFFFC
FFFFFC
FFFFFC
ENDCHAR
STARTCHAR three.lf
ENCODING -1
SWIDTH 510 0
DWIDTH 26 0
BBX 23 34 1 -1
BITMAP
00FE00
07FFC0
0FFFE0
1F0FF0
1F03F8
3F03F8
3F01FC
7E01FC
3E01FC
1C01FC
0001F8
0001F8
0003F8
0003F0
000FE0
01FF80
01FF00
01FFE0
000FF0
0003F8
0001FC
0001FC
0000FE
2000FE
7800FE
FC00FE
FC01FE
FE01FE
7E01FC
7E03FC
3E0FF8
1FFFF0
0FFFC0
01FE00
ENDCHAR
STARTCHAR four.lf
ENCODING -1
SWIDTH 524 0
DWIDTH 26 0
BBX 25 32 1 0
BITMAP
0001F000
0003F000
0007F000
0007F000
000FF000
001FF000
003FF000
007BF000
0073F000
00E3F000
01E3F000
03C3F000
0383F000
0703F000
0F03F000
1E03F000
1C03F000
3803F000
7803F000
FFFFFF80
FFFFFF80
FFFFFF80
FFFFFF80
FFFFFF80
0003F000
0003F000
0003F000
0003F000
0003F000
0003F000
0003F000
0003F000
ENDCHAR
STARTCHAR five.lf
ENCODING -1
SWIDTH 506 0
DWIDTH 25 0
BBX 23 33 1 -1
BITMAP
0FFFFC
0FFFFC
0FFFFC
0FFFFC
0FFFFC
0FFFFC
0E0000
0E0000
0E0000
0E0000
0E0000
0C0000
1FFE00
1FFFC0
1FFFF0
1FFFF8
0807F8
0003FC
0001FC
0001FE
0000FE
0000FE
3000FE
7C00FE
FC00FE
FC00FE
FE01FC
7E01FC
7E03F8
3E0FF0
1FFFE0
07FFC0
01FE00
ENDCHAR
STARTCHAR six.lf
ENCODING -1
SWIDTH 528 0
DWIDTH 26 0
BBX 23 34 2 -1
BITMAP
0000F0
0007F0
001FF0
007FC0
01FE00
03FC00
07F000
0FE000
1FC000
1F8000
3F8000
3F0000
7F0000
7E3F80
7EFFE0
FFFFF8
FF83F8
FE01FC
FE00FC
FE00FE
FE00FE
FE00FE
FE00FE
FE00FE
FE00FE
7E00FE
7F00FE
7F00FC
3F81FC
3F81F8
1FC3F8
0FFFF0
03FFC0
00FE00
ENDCHAR
STARTCHAR seven.lf
ENCODING -1
SWIDTH 461 0
DWIDTH 23 0
BBX 21 32 1 0
BITMAP
FFFFF8
FFFFF8
FFFFF8
FFFFF8
FFFFF8
FFFFF8
0000F0
0000F0
0001E0
0001E0
0003C0
0003C0
0007C0
000F80
000F80
001F00
001F00
003F00
003E00
007E00
007C00
00FC00
00FC00
01F800
01F800
03F000
03F000
07F000
07E000
0FE000
0FC000
1FC000
ENDCHAR
STARTCHAR eight.lf
ENCODING -1
SWIDTH 508 0
DWIDTH 25 0
BBX 22 34 2 -1
BITMAP
00FE00
07FF80
0FFFC0
1F87E0
3E03F0
7E01F0
7C01F0
7C01F0
7E01F0
7E01F0
7E01F0
7F03E0
3FC3E0
3FF7C0
1FFF00
0FFF00
07FF80
03FFC0
0FFFE0
1E3FF0
3C0FF8
7C07F8
F801FC
F801FC
F800FC
F800FC
F800FC
F800F8
FC01F8
FE03F8
7F07F0
3FFFE0
1FFF80
03FE00
ENDCHAR
STARTCHAR nine.lf
ENCODING -1
SWIDTH 519 0
DWIDTH 26 0
BBX 23 34 1 -1
BITMAP
00FE00
03FF80
0FFFE0
1FC7F0
3F83F8
3F01F8
7F01FC
7E00FC
FE00FE
FE00FE
FE00FE
FE00FE
FE00FE
FE00FE
7F00FE
7F00FE
3F80FE
3FC1FE
1FFFFE
07FFFE
01FCFC
0001FC
0001F8
0001F8
0003F0
0007F0
0007E0
001FC0
003F80
00FF00
07FC00
0FF000
0FC000
0E0000
ENDCHAR
STARTCHAR zero.lfslash
ENCODING -1
SWIDTH 535 0
DWIDTH 27 0
BBX 23 34 2 -1
BITMAP
00FC00
03FF80
07FFC0
0FC7E0
1F83F0
3F03F0
3F03F8
7E03F8
7E06FC
7E06FC
FE0EFC
FE0CFE
FE0CFE
FE1CFE
FE18FE
FE18FE
FE30FE
FE30FE
FE70FE
FE60FE
FE60FE
FEE0FE
FEC0FE
FEC0FC
7FC0FC
7F81FC
7F81F8
3F01F8
3F01F0
1F83F0
0FC7E0
07FFC0
03FF80
00FE00
ENDCHAR
STARTCHAR zero.tosf
ENCODING -1
SWIDTH 528 0
DWIDTH 26 0
BBX 23 28 2 -1
BITMAP
00FE00
03FF80
0FFFC0
1F87E0
3F03F0
3F01F8
7E01F8
7E01FC
FE00FC
FE00FC
FC00FE
FC00FE
FC00FE
FC00FE
FC00FE
FC00FE
FC00FE
FC00FE
FE00FC
FE00FC
7E01FC
7E01F8
3F01F8
3F03F0
1F87E0
0FFFC0
03FF80
00FE00
ENDCHAR
STARTCHAR one.tosf
ENCODING -1
SWIDTH 528 0
DWIDTH 26 0
BBX 20 26 3 0
BITMAP
001C00
01FC00
3FFC00
7FFC00
7FFC00
01FC00
01FC00
01FC00
01FC00
01FC00
01FC00
01FC00
01FC00
01FC00
01FC00
01FC00
01FC00
01FC00
01FC00
01FC00
01FC00
01FC00
01FC00
FFFFF0
FFFFF0
FFFFF0
ENDCHAR
STARTCHAR two.tosf
ENCODING -1
SWIDTH 528 0
DWIDTH 26 0
BBX 22 27 3 0
BITMAP
01FC00
0FFF80
1FFFC0
3E1FE0
7E0FF0
7E07F0
FC07F0
FC07F0
FC07F0
F807F0
3007E0
000FE0
000FC0
001F00
003E00
007C00
00F800
01E000
07C000
0F8000
1E0000
3FFFFC
FFFFFC
FFFFFC
FFFFFC
FFFFFC
FFFFFC
ENDCHAR
STARTCHAR three.tosf
ENCODING -1
SWIDTH 528 0
DWIDTH 26 0
BBX 23 34 2 -7
BITMAP
01FE00
07FF80
0FFFE0
1F0FF0
3F07F0
3E03F8
7E03F8
7E03F8
7E01F8
3C01F8
0003F8
0003F8
0003F0
0007E0
000FC0
01FF80
01FE00
01FFC0
000FF0
0003F8
0003FC
0001FC
0001FC
2001FE
F801FE
FC01FE
FC01FC
FC01FC
FC03FC
7C07F8
3E0FF0
1FFFE0
0FFFC0
01FE00
ENDCHAR
STARTCHAR four.tosf
ENCODING -1
SWIDTH 528 0
DWIDTH 26 0
BBX 25 33 1 -7
BITMAP
0001F000
0003F000
0007F000
0007F000
000FF000
001FF000
003FF000
003BF000
0073F000
00E3F000
01E3F000
01C3F000
0383F000
0783F000
0703F000
0E03F000
1E03F000
3C03F000
3803F000
7003F000
FFFFFF80
FFFFFF80
FFFFFF80
FFFFFF80
FFFFFF80
0003F000
0003F000
0003F000
0003F000
0003F000
0003F000
0003F000
0003F000
ENDCHAR
STARTCHAR five.tosf
ENCODING -1
SWIDTH 528 0
DWIDTH 26 0
BBX 23 33 2 -7
BITMAP
0FFFFC
0FFFFC
0FFFFC
0FFFFC
0FFFFC
1FFFFC
1C0000
1C0000
1C0000
1C0000
1C0000
1C0000
1FFE00
1FFFC0
1FFFE0
1FFFF0
080FF8
0003FC
0003FC
0001FC
0001FC
0001FE
3001FE
7801FE
FC01FC
FC01FC
FC01FC
FC03F8
7E07F8
3E0FF0
1FFFE0
0FFF80
01FC00
ENDCHAR
STARTCHAR six.tosf
ENCODING -1
SWIDTH 528 0
DWIDTH 26 0
BBX 23 34 2 -1
BITMAP
0000F0
000FF0
003FF0
007FC0
01FE00
03F800
07F000
0FE000
1FC000
1F8000
3F0000
7F0000
7E0000
7E3F80
FEFFE0
FFFFF0
FF87F8
FE01FC
FE01FC
FE00FC
FE00FE
FE00FE
FE00FE
FE00FE
FE00FE
FE00FE
7F00FC
7F00FC
7F01FC
3F81F8
1FC3F0
0FFFE0
07FFC0
00FE00
ENDCHAR
STARTCHAR seven.tosf
ENCODING -1
SWIDTH 528 0
DWIDTH 26 0
BBX 21 32 3 -6
BITMAP
FFFFF8
FFFFF8
FFFFF8
FFFFF8
FFFFF0
FFFFF0
0000F0
0001E0
0001E0
0003C0
0007C0
0007C0
000F80
000F80
001F00
001F00
003E00
003E00
007E00
007C00
00FC00
00F800
01F800
01F800
03F000
03F000
07E000
07E000
0FE000
0FC000
1FC000
3F8000
ENDCHAR
STARTCHAR eight.tosf
ENCODING -1
SWIDTH 528 0
DWIDTH 26 0
BBX 22 34 2 -1
BITMAP
00FE00
03FF80
0FFFE0
1F83E0
1F01F0
3E01F8
3E00F8
7E00F8
7E00F8
7E00F8
7F01F0
3F81F0
3FC3E0
1FF7C0
1FFF80
0FFF00
07FFC0
03FFE0
07FFF0
1F3FF8
3E0FF8
7C03FC
7C01FC
FC00FC
FC00FC
FC00FC
FC00FC
FC00FC
FC00FC
7E01F8
3F83F0
3FFFE0
0FFFC0
01FE00
ENDCHAR
STARTCHAR nine.tosf
ENCODING -1
SWIDTH 528 0
DWIDTH 26 0
BBX 23 34 2 -7
BITMAP
01FE00
07FF80
0FFFC0
1F87E0
3F03F0
7E03F8
7E01F8
FE01FC
FE01FC
FC01FC
FC00FC
FC00FE
FE00FE
FE00FE
FE00FE
FE00FE
7F00FE
3F83FC
1FFFFC
0FFFFC
03F9FC
0001F8
0001F8
0003F0
0003F0
0007E0
000FC0
001F80
007F00
01FE00
07FC00
1FF000
1FC000
1C0000
ENDCHAR
STARTCHAR zero.osf
ENCODING -1
SWIDTH 565 0
DWIDTH 28 0
BBX 24 28 2 -1
BITMAP
007F00
03FFC0
07FFE0
0FC3F8
1F81F8
3F00FC
3F00FE
7F007E
7E007E
7E007F
FE007F
FE007F
FE007F
FE007F
FE007F
FE007F
FE007F
FE007F
7E007F
7E007E
7F007E
3F00FE
3F00FC
1F81F8
0FC3F8
07FFE0
03FFC0
007F00
ENDCHAR
STARTCHAR one.osf
ENCODING -1
SWIDTH 416 0
DWIDTH 21 0
BBX 18 26 2 0
BITMAP
003800
03F800
7FF800
7FF800
7FF800
03F800
03F800
03F800
03F800
03F800
03F800
03F800
03F800
03F800
03F800
03F800
03F800
03F800
03F800
03F800
03F800
03F800
03F800
FFFFC0
FFFFC0
FFFFC0
ENDCHAR
STARTCHAR two.osf
ENCODING -1
SWIDTH 513 0
DWIDTH 26 0
BBX 22 27 2 0
BITMAP
01FE00
07FF80
1FFFE0
3E1FF0
3E0FF0
7E07F0
7E07F8
FE03F8
FC03F8
7C03F0
3007F0
0007E0
000FC0
001F80
001F00
007C00
00F800
01F000
03C000
078000
1F0000
3FFFFC
7FFFFC
FFFFFC
FFFFFC
FFFFFC
FFFFFC
ENDCHAR
STARTCHAR three.osf
ENCODING -1
SWIDTH 510 0
DWIDTH 26 0
BBX 23 34 1 -7
BITMAP
00FE00
07FFC0
0FFFE0
1F0FF0
1F03F8
3F03F8
3F01FC
7E01FC
3E01FC
1C01FC
0001F8
0001F8
0003F8
0003F0
000FE0
01FF80
01FF00
01FFE0
000FF0
0003F8
0001FC
0001FC
0000FE
2000FE
7800FE
FC00FE
FC01FE
FE01FE
7E01FC
7E03FC
3E0FF8
1FFFF0
0FFFC0
01FE00
ENDCHAR
STARTCHAR four.osf
ENCODING -1
SWIDTH 524 0
DWIDTH 26 0
BBX 25 33 1 -7
BITMAP
0001F000
0003F000
0007F000
0007F000
000FF000
001FF000
001FF000
003BF000
0073F000
00F3F000
00E3F000
01C3F000
0383F000
0783F000
0703F000
0E03F000
1E03F000
3C03F000
3803F000
7803F000
FFFFFF80
FFFFFF80
FFFFFF80
FFFFFF80
FFFFFF80
0003F000
0003F000
0003F000
0003F000
0003F000
0003F000
0003F000
0003F000
ENDCHAR
STARTCHAR five.osf
ENCODING -1
SWIDTH 506 0
DWIDTH 25 0
BBX 23 33 1 -7
BITMAP
0FFFFC
0FFFFC
0FFFFC
0FFFFC
0FFFFC
0FFFFC
0E0000
0E0000
0E0000
0E0000
0E0000
0C0000
1DFE00
1FFFC0
1FFFF0
1FFFF8
0807F8
0003FC
0001FC
0001FE
0000FE
0000FE
3000FE
7C00FE
FC00FE
FC00FE
FE01FC
7E01FC
7E03F8
3E0FF0
1FFFE0
07FFC0
01FE00
ENDCHAR
STARTCHAR six.osf
ENCODING -1
SWIDTH 528 0
DWIDTH 26 0
BBX 23 34 2 -1
BITMAP
0000F0
0007F0
001FF0
007FC0
01FE00
03FC00
07F000
0FE000
1FC000
1F8000
3F8000
3F0000
7F0000
7E3F80
7EFFE0
FFFFF8
FF83F8
FE01FC
FE00FC
FE00FE
FE00FE
FE00FE
FE00FE
FE00FE
FE00FE
7E00FE
7F00FE
7F00FC
3F81FC
3F81F8
1FC3F8
0FFFF0
03FFC0
00FE00
ENDCHAR
STARTCHAR seven.osf
ENCODING -1
SWIDTH 461 0
DWIDTH 23 0
BBX 21 32 1 -6
BITMAP
FFFFF8
FFFFF8
FFFFF8
FFFFF8
FFFFF8
FFFFF8
0000F0
0000F0
0001E0
0001E0
0003C0
0003C0
0007C0
000F80
000F80
001F00
001F00
003F00
003E00
007E00
007C00
00FC00
00FC00
01F800
01F800
03F000
03F000
07F000
07E000
0FE000
0FC000
1FC000
ENDCHAR
STARTCHAR eight.osf
ENCODING -1
SWIDTH 508 0
DWIDTH 25 0
BBX 22 34 2 -1
BITMAP
00FE00
07FF80
0FFFC0
1F87E0
3E03F0
7E01F0
7C01F0
7C01F0
7E01F0
7E01F0
7E01F0
7F03E0
3FC3E0
3FF7C0
1FFF00
0FFF00
07FF80
03FFC0
0FFFE0
1E3FF0
3C0FF8
7C07F8
F801FC
F801FC
F800FC
F800FC
F800FC
F800F8
FC01F8
FE03F8
7F07F0
3FFFE0
1FFF80
03FE00
ENDCHAR
STARTCHAR nine.osf
ENCODING -1
SWIDTH 519 0
DWIDTH 26 0
BBX 23 34 1 -7
BITMAP
00FE00
03FF80
0FFFE0
1FC7F0
3F83F8
3F01F8
7F01FC
7E00FC
FE00FE
FE00FE
FE00FE
FE00FE
FE00FE
FE00FE
7F00FE
7F00FE
3F80FE
3FC1FE
1FFFFE
07FFFE
01FCFC
0001FC
0001F8
0001F8
0003F0
0007F0
0007E0
001FC0
003F80
00FF00
07FC00
0FF000
0FC000
0E0000
ENDCHAR
STARTCHAR exclamdown.cap
ENCODING -1
SWIDTH 328 0
DWIDTH 16 0
BBX 8 35 4 -1
BITMAP
3C
7E
FF
FF
FF
FF
7E
3C
00
00
00
00
00
00
1C
1C
3C
3C
3C
3E
3E
7E
7E
7E
7E
7F
7F
FF
FF
FF
FF
FF
FF
7F
3C
ENDCHAR
STARTCHAR questiondown.cap
ENCODING -1
SWIDTH 471 0
DWIDTH 24 0
BBX 16 35 4 -1
BITMAP
003C
00FE
00FE
01FF
01FF
00FF
00FE
003C
0000
0000
0000
0000
0000
0018
0018
0038
00FC
07FC
1FFC
7FFC
FFF8
FFE0
FF80
FE00
F800
F000
F000
F000
73FC
7FFE
3FFF
1FFF
07FF
01FE
003C
ENDCHAR
STARTCHAR guilsinglleft.cap
ENCODING -1
SWIDTH 280 0
DWIDTH 14 0
BBX 11 20 2 5
BITMAP
0040
01E0
03E0
07C0
0F80
3F00
7E00
FC00
F800
F000
F000
F800
FC00
7E00
3F00
0F80
07C0
03E0
01E0
0040
ENDCHAR
STARTCHAR guilsinglright.cap
ENCODING -1
SWIDTH 280 0
DWIDTH 14 0
BBX 12 20 1 5
BITMAP
4000
F000
F800
7C00
3E00
1F80
0FC0
07E0
03F0
01F0
01F0
03F0
07E0
0FC0
1F80
3E00
7C00
F800
F000
4000
ENDCHAR
STARTCHAR guillemotleft.cap
ENCODING -1
SWIDTH 459 0
DWIDTH 23 0
BBX 21 20 2 5
BITMAP
004010
01E078
03E0F8
07C1F0
0F83E0
3F0FC0
7E1F80
FC3F00
F87E00
F07C00
F07C00
F87E00
FC3F00
7E1F80
3F0FC0
0F83E0
07C1F0
03E0F8
01E078
004010
ENDCHAR
STARTCHAR guillemotright.cap
ENCODING -1
SWIDTH 459 0
DWIDTH 23 0
BBX 22 20 1 5
BITMAP
401000
F03C00
F83E00
7C1F00
3E0F80
1F87E0
0FC3F0
07E1F8
03F0FC
01F07C
01F07C
03F0FC
07E1F8
0FC3F0
1F87E0
3E0F80
7C1F00
F83E00
F03C00
401000
ENDCHAR
STARTCHAR hyphen.cap
ENCODING -1
SWIDTH 330 0
DWIDTH 17 0
BBX 13 4 2 14
BITMAP
FFF8
FFF8
FFF8
FFF8
ENDCHAR
STARTCHAR sfthyphen.cap
ENCODING -1
SWIDTH 330 0
DWIDTH 17 0
BBX 13 4 2 14
BITMAP
FFF8
FFF8
FFF8
FFF8
ENDCHAR
STARTCHAR endash.cap
ENCODING -1
SWIDTH 530 0
DWIDTH 27 0
BBX 23 4 2 14
BITMAP
FFFFFE
FFFFFE
FFFFFE
FFFFFE
ENDCHAR
STARTCHAR emdash.cap
ENCODING -1
SWIDTH 830 0
DWIDTH 42 0
BBX 38 4 2 14
BITMAP
FFFFFFFFFC
FFFFFFFFFC
FFFFFFFFFC
FFFFFFFFFC
ENDCHAR
STARTCHAR horizontalbar.cap
ENCODING -1
SWIDTH 830 0
DWIDTH 42 0
BBX 38 4 2 14
BITMAP
FFFFFFFFFC
FFFFFFFFFC
FFFFFFFFFC
FFFFFFFFFC
ENDCHAR
STARTCHAR parenleft.cap
ENCODING -1
SWIDTH 365 0
DWIDTH 18 0
BBX 14 45 3 -6
BITMAP
0010
003C
0078
00F8
01F0
03E0
07E0
07C0
0FC0
1F80
1F80
3F00
3F00
3F00
7E00
7E00
7E00
FE00
FC00
FC00
FC00
FC00
FC00
FC00
FC00
FC00
FC00
FC00
7E00
7E00
7E00
7E00
3F00
3F00
1F80
1F80
0FC0
07C0
07E0
03E0
01F0
00F0
0078
003C
0018
ENDCHAR
STARTCHAR parenright.cap
ENCODING -1
SWIDTH 365 0
DWIDTH 18 0
BBX 13 45 2 -6
BITMAP
4000
E000
F000
7800
7C00
3E00
3F00
1F00
0F80
0FC0
07C0
07E0
07E0
03F0
03F0
03F0
01F8
01F8
01F8
01F8
01F8
01F8
01F8
01F8
01F8
01F8
01F8
01F8
01F8
03F0
03F0
03F0
07E0
07E0
07C0
0FC0
0F80
1F80
1F00
3E00
7C00
7800
F000
E000
4000
ENDCHAR
STARTCHAR bracketleft.cap
ENCODING -1
SWIDTH 339 0
DWIDTH 17 0
BBX 11 44 5 -6
BITMAP
FFE0
FFE0
FFE0
FC00
FC00
FC00
FC00
FC00
FC00
FC00
FC00
FC00
FC00
FC00
FC00
FC00
FC00
FC00
FC00
FC00
FC00
FC00
FC00
FC00
FC00
FC00
FC00
FC00
FC00
FC00
FC00
FC00
FC00
FC00
FC00
FC00
FC00
FC00
FC00
FC00
FC00
FFE0
FFE0
FFE0
ENDCHAR
STARTCHAR bracketright.cap
ENCODING -1
SWIDTH 339 0
DWIDTH 17 0
BBX 11 44 1 -6
BITMAP
FFE0
FFE0
FFE0
07E0
07E0
07E0
07E0
07E0
07E0
07E0
07E0
07E0
07E0
07E0
07E0
07E0
07E0
07E0
07E0
07E0
07E0
07E0
07E0
07E0
07E0
07E0
07E0
07E0
07E0
07E0
07E0
07E0
07E0
07E0
07E0
07E0
07E0
07E0
07E0
07E0
07E0
FFE0
FFE0
FFE0
ENDCHAR
STARTCHAR braceleft.cap
ENCODING -1
SWIDTH 339 0
DWIDTH 17 0
BBX 13 44 2 -6
BITMAP
00F8
03F8
0FF8
0FE0
1F80
1F80
1F80
1F80
1F80
1F80
0F80
0F80
0F80
0780
0780
0780
07C0
0780
0780
0F80
3F00
FE00
F800
FE00
3F00
0F80
0780
0780
0780
07C0
0780
0780
0F80
0F80
0F80
1F80
1F80
1F80
1F80
1F80
0FC0
0FF8
07F8
00F8
ENDCHAR
STARTCHAR braceright.cap
ENCODING -1
SWIDTH 339 0
DWIDTH 17 0
BBX 13 44 2 -6
BITMAP
F800
FE00
FF80
3F80
0FC0
0FC0
0FC0
0FC0
0FC0
0FC0
0F80
0F80
0F00
0F00
1F00
1F00
1E00
0F00
0F00
0F80
07E0
03F8
00F8
03F8
07C0
0F80
0F00
0F00
1E00
1F00
0F00
0F00
0F80
0F80
0F80
0FC0
0FC0
0FC0
0FC0
0FC0
1F80
FF80
FF00
F800
ENDCHAR
STARTCHAR at.cap
ENCODING -1
SWIDTH 929 0
DWIDTH 46 0
BBX 43 43 2 -6
BITMAP
00001FF80000
0001FFFF8000
0007FFFFE000
001FE00FF000
007F0001FC00
00FC00007E00
01F800003E00
03E000001F00
07C000000F80
0F8000000F80
0F8007C207C0
1F001FF707C0
3E007FFF03C0
3E00FC3F03C0
7C01F03E03E0
7C03E03E03E0
7807E07E03E0
7807C07E03E0
F80FC07E03E0
F80F807E03E0
F81F807C03C0
F01F80FC03C0
F01F80FC03C0
F01F80FC07C0
F01F80FC0780
F01F80F80780
F01F80F80F00
F81F81F81E00
F81FC3FC3C00
F80FFFFFF800
7807FC7FF000
7C03F03F8000
7C0000000000
3E0000000000
3F0000000000
1F0000000000
0FC000000000
07E000000000
03F800080000
01FF007C0000
00FFFFFC0000
001FFFF00000
0003FF000000
ENDCHAR
STARTCHAR period.sups
ENCODING -1
SWIDTH 219 0
DWIDTH 11 0
BBX 5 6 3 20
BITMAP
70
F8
F8
F8
F8
70
ENDCHAR
STARTCHAR comma.sups
ENCODING -1
SWIDTH 207 0
DWIDTH 10 0
BBX 6 11 2 15
BITMAP
38
7C
7C
7C
7C
3C
0C
18
30
E0
C0
ENDCHAR
STARTCHAR colon.sups
ENCODING -1
SWIDTH 219 0
DWIDTH 11 0
BBX 5 16 3 20
BITMAP
70
F8
F8
F8
F8
70
00
00
00
00
70
F8
F8
F8
F8
70
ENDCHAR
STARTCHAR hyphen.sups
ENCODING -1
SWIDTH 241 0
DWIDTH 12 0
BBX 8 3 2 27
BITMAP
FF
FF
FF
ENDCHAR
STARTCHAR endash.sups
ENCODING -1
SWIDTH 371 0
DWIDTH 19 0
BBX 15 3 2 27
BITMAP
FFFE
FFFE
FFFE
ENDCHAR
STARTCHAR emdash.sups
ENCODING -1
SWIDTH 566 0
DWIDTH 28 0
BBX 24 3 2 27
BITMAP
FFFFFF
FFFFFF
FFFFFF
ENDCHAR
STARTCHAR period.subs
ENCODING -1
SWIDTH 219 0
DWIDTH 11 0
BBX 5 6 3 -12
BITMAP
70
F8
F8
F8
F8
70
ENDCHAR
STARTCHAR comma.subs
ENCODING -1
SWIDTH 207 0
DWIDTH 10 0
BBX 6 11 2 -17
BITMAP
38
7C
7C
7C
7C
3C
0C
18
30
E0
C0
ENDCHAR
STARTCHAR zero.dnom
ENCODING -1
SWIDTH 369 0
DWIDTH 18 0
BBX 15 20 2 0
BITMAP
07C0
1FE0
3CF0
7878
787C
F83C
F83C
F83E
F83E
F83E
F83E
F83E
F83E
F83C
F83C
787C
7878
3CF8
1FF0
07C0
ENDCHAR
STARTCHAR one.dnom
ENCODING -1
SWIDTH 328 0
DWIDTH 16 0
BBX 12 20 2 0
BITMAP
0380
7F80
7F80
7F80
0F80
0F80
0F80
0F80
0F80
0F80
0F80
0F80
0F80
0F80
0F80
0F80
0F80
3FE0
FFF0
FFF0
ENDCHAR
STARTCHAR two.dnom
ENCODING -1
SWIDTH 358 0
DWIDTH 18 0
BBX 14 20 2 0
BITMAP
0FC0
3FF0
71F8
F0F8
F0F8
F0F8
60F8
00F8
00F0
01F0
01E0
03C0
0780
0E00
1C00
3800
7FFC
FFFC
FFFC
FFFC
ENDCHAR
STARTCHAR three.dnom
ENCODING -1
SWIDTH 357 0
DWIDTH 18 0
BBX 15 21 1 -1
BITMAP
07E0
1FF8
38FC
387C
783E
783E
003C
007C
00F8
07F0
07F0
07FC
007E
003E
603E
F03E
F83E
783E
78FC
3FF8
0FE0
ENDCHAR
STARTCHAR four.dnom
ENCODING -1
SWIDTH 368 0
DWIDTH 18 0
BBX 17 20 1 0
BITMAP
003C00
007C00
00FC00
01FC00
01FC00
037C00
077C00
0E7C00
0C7C00
187C00
387C00
707C00
FFFF80
FFFF80
FFFF80
FFFF80
007C00
007C00
007C00
007C00
ENDCHAR
STARTCHAR five.dnom
ENCODING -1
SWIDTH 353 0
DWIDTH 18 0
BBX 15 20 1 -1
BITMAP
1FFE
1FFE
1FFE
1FFE
1800
1800
1800
3FF0
3FF8
3FFC
007E
003E
003E
703E
F03E
F83E
783E
787C
3FF8
0FE0
ENDCHAR
STARTCHAR six.dnom
ENCODING -1
SWIDTH 370 0
DWIDTH 19 0
BBX 15 21 2 -1
BITMAP
0038
01F8
07E0
0F80
1F00
3E00
7C00
7800
FBF0
FFF8
FFFC
F87E
F83E
F83E
F83E
F83E
F83E
7C3E
3C7C
1FF8
07E0
ENDCHAR
STARTCHAR seven.dnom
ENCODING -1
SWIDTH 337 0
DWIDTH 17 0
BBX 14 19 1 0
BITMAP
FFFC
FFFC
FFFC
FFFC
0038
0038
0070
0070
00E0
01E0
01C0
03C0
03C0
0780
0F80
0F00
1F00
1E00
3E00
ENDCHAR
STARTCHAR eight.dnom
ENCODING -1
SWIDTH 370 0
DWIDTH 19 0
BBX 15 21 2 -1
BITMAP
07C0
1FF0
3C78
7838
783C
783C
7C38
7E78
7FF0
3FE0
1FF0
1FF8
79FC
707C
F03E
F03E
F03C
F03C
787C
3FF8
0FE0
ENDCHAR
STARTCHAR nine.dnom
ENCODING -1
SWIDTH 361 0
DWIDTH 18 0
BBX 16 20 1 0
BITMAP
07E0
1FF0
3C7C
783C
783E
F83E
F81E
F81E
7C1F
7FFF
3FFE
1FFE
003E
003C
007C
00F8
01F0
07E0
3F80
1E00
ENDCHAR
STARTCHAR parenleft.dnom
ENCODING -1
SWIDTH 252 0
DWIDTH 13 0
BBX 9 27 2 -5
BITMAP
0100
0380
0700
0E00
1E00
3C00
3C00
7800
7800
F800
F000
F000
F000
F000
F000
F000
F000
F800
7800
7800
3C00
3C00
1E00
0E00
0700
0380
0100
ENDCHAR
STARTCHAR parenright.dnom
ENCODING -1
SWIDTH 252 0
DWIDTH 13 0
BBX 9 27 2 -5
BITMAP
C000
E000
7000
7800
3C00
3C00
1E00
1E00
0F00
0F00
0F00
0F80
0F80
0F80
0F80
0F80
0F00
0F00
0F00
1E00
1E00
3C00
3C00
7800
7000
E000
C000
ENDCHAR
STARTCHAR period.dnom
ENCODING -1
SWIDTH 219 0
DWIDTH 11 0
BBX 5 6 3 -1
BITMAP
70
F8
F8
F8
F8
70
ENDCHAR
STARTCHAR comma.dnom
ENCODING -1
SWIDTH 207 0
DWIDTH 10 0
BBX 6 11 2 -6
BITMAP
38
7C
7C
7C
7C
3C
0C
18
30
E0
C0
ENDCHAR
STARTCHAR zero.numr
ENCODING -1
SWIDTH 369 0
DWIDTH 18 0
BBX 15 20 2 13
BITMAP
07C0
1FE0
3CF0
7878
787C
F83C
F83C
F83E
F83E
F83E
F83E
F83E
F83E
F83C
F83C
787C
7878
3CF8
1FF0
07C0
ENDCHAR
STARTCHAR one.numr
ENCODING -1
SWIDTH 328 0
DWIDTH 16 0
BBX 12 20 2 13
BITMAP
0380
7F80
7F80
7F80
0F80
0F80
0F80
0F80
0F80
0F80
0F80
0F80
0F80
0F80
0F80
0F80
0F80
3FE0
FFF0
FFF0
ENDCHAR
STARTCHAR two.numr
ENCODING -1
SWIDTH 358 0
DWIDTH 18 0
BBX 14 20 2 13
BITMAP
0FC0
3FF0
71F8
F0F8
F0F8
F0F8
60F8
00F8
00F0
01F0
01E0
03C0
0780
0E00
1C00
3800
7FFC
FFFC
FFFC
FFFC
ENDCHAR
STARTCHAR three.numr
ENCODING -1
SWIDTH 357 0
DWIDTH 18 0
BBX 15 21 1 12
BITMAP
07E0
1FF8
38FC
387C
783E
783E
003C
007C
00F8
07F0
07F0
07FC
007E
003E
603E
F03E
F83E
783E
78FC
3FF8
0FE0
ENDCHAR
STARTCHAR four.numr
ENCODING -1
SWIDTH 368 0
DWIDTH 18 0
BBX 17 20 1 13
BITMAP
003C00
007C00
00FC00
01FC00
01FC00
037C00
077C00
0E7C00
0C7C00
187C00
387C00
707C00
FFFF80
FFFF80
FFFF80
FFFF80
007C00
007C00
007C00
007C00
ENDCHAR
STARTCHAR five.numr
ENCODING -1
SWIDTH 353 0
DWIDTH 18 0
BBX 15 20 1 12
BITMAP
1FFE
1FFE
1FFE
1FFE
1800
1800
1800
3FF0
3FF8
3FFC
007E
003E
003E
703E
F03E
F83E
783E
787C
3FF8
0FE0
ENDCHAR
STARTCHAR six.numr
ENCODING -1
SWIDTH 370 0
DWIDTH 19 0
BBX 15 21 2 12
BITMAP
0038
01F8
07E0
0F80
1F00
3E00
7C00
7800
FBF0
FFF8
FFFC
F87E
F83E
F83E
F83E
F83E
F83E
7C3E
3C7C
1FF8
07E0
ENDCHAR
STARTCHAR seven.numr
ENCODING -1
SWIDTH 337 0
DWIDTH 17 0
BBX 14 19 1 13
BITMAP
FFFC
FFFC
FFFC
FFFC
0038
0038
0070
0070
00E0
01E0
01C0
03C0
03C0
0780
0F80
0F00
1F00
1E00
3E00
ENDCHAR
STARTCHAR eight.numr
ENCODING -1
SWIDTH 370 0
DWIDTH 19 0
BBX 15 21 2 12
BITMAP
07C0
1FF0
3C78
7838
783C
783C
7C38
7E78
7FF0
3FE0
1FF0
1FF8
79FC
707C
F03E
F03E
F03C
F03C
787C
3FF8
0FE0
ENDCHAR
STARTCHAR nine.numr
ENCODING -1
SWIDTH 361 0
DWIDTH 18 0
BBX 16 20 1 13
BITMAP
07E0
1FF0
3C7C
783C
783E
F83E
F81E
F81E
7C1F
7FFF
3FFE
1FFE
003E
003C
007C
00F8
01F0
07E0
3F80
1E00
ENDCHAR
STARTCHAR parenleft.numr
ENCODING -1
SWIDTH 252 0
DWIDTH 13 0
BBX 9 27 2 8
BITMAP
0100
0380
0700
0E00
1E00
3C00
3C00
7800
7800
F800
F000
F000
F000
F000
F000
F000
F000
F800
7800
7800
3C00
3C00
1E00
0E00
0700
0380
0100
ENDCHAR
STARTCHAR parenright.numr
ENCODING -1
SWIDTH 252 0
DWIDTH 13 0
BBX 9 27 2 8
BITMAP
C000
E000
7000
7800
3C00
3C00
1E00
1E00
0F00
0F00
0F00
0F80
0F80
0F80
0F80
0F80
0F00
0F00
0F00
1E00
1E00
3C00
3C00
7800
7000
E000
C000
ENDCHAR
STARTCHAR period.numr
ENCODING -1
SWIDTH 219 0
DWIDTH 11 0
BBX 5 6 3 12
BITMAP
70
F8
F8
F8
F8
70
ENDCHAR
STARTCHAR comma.numr
ENCODING -1
SWIDTH 207 0
DWIDTH 10 0
BBX 6 11 2 7
BITMAP
38
7C
7C
7C
7C
3C
0C
18
30
E0
C0
ENDCHAR
STARTCHAR q.sups
ENCODING -1
SWIDTH 401 0
DWIDTH 20 0
BBX 19 23 1 14
BITMAP
07C180
1FF780
3FFF80
7E0F80
7C0F80
7C0F80
F80F80
F80F80
F80F80
F80F80
F80F80
FC0F80
7C0F80
7E0F80
3FFF80
1FFF80
07CF80
000F80
000F80
000F80
003FC0
007FE0
007FE0
ENDCHAR
STARTCHAR egrave.sups
ENCODING -1
SWIDTH 361 0
DWIDTH 18 0
BBX 16 25 1 20
BITMAP
0700
0F80
0780
03C0
00E0
0060
0040
0000
03F0
0FF8
3E3C
3C1E
7C1F
7C1F
F81F
FFFF
FFFF
F800
F800
7C00
7C03
7F0E
3FFC
1FF8
07E0
ENDCHAR
STARTCHAR eacute.sups
ENCODING -1
SWIDTH 361 0
DWIDTH 18 0
BBX 16 25 1 20
BITMAP
0038
0078
00F0
00E0
01C0
0380
0200
0000
03F0
0FF8
3E3C
3C1E
7C1F
7C1F
F81F
FFFF
FFFF
F800
F800
7C00
7C03
7F0E
3FFC
1FF8
07E0
ENDCHAR
STARTCHAR slash.frac
ENCODING -1
SWIDTH 140 0
DWIDTH 7 0
BBX 25 34 -9 -1
BITMAP
00000300
00000380
00000780
00000F00
00000E00
00001C00
00003C00
00007800
00007000
0000F000
0001E000
0001C000
0003C000
00078000
000F0000
000E0000
001E0000
003C0000
00380000
00780000
00F00000
01E00000
01C00000
03C00000
07800000
07000000
0F000000
1E000000
1C000000
38000000
78000000
F0000000
E0000000
60000000
ENDCHAR
STARTCHAR space.frac
ENCODING -1
SWIDTH 120 0
DWIDTH 6 0
BBX 1 1 0 0
BITMAP
00
ENDCHAR
STARTCHAR uni00A0.frac
ENCODING -1
SWIDTH 120 0
DWIDTH 6 0
BBX 1 1 0 0
BITMAP
00
ENDCHAR
STARTCHAR caron.alt
ENCODING -1
SWIDTH 20 0
DWIDTH 1 0
BBX 6 11 -1 26
BITMAP
78
7C
7C
7C
78
78
78
70
F0
E0
E0
ENDCHAR
STARTCHAR commabelowcmb.alt
ENCODING -1
SWIDTH 0 0
DWIDTH 0 0
BBX 8 11 -3 29
BITMAP
02
0F
3E
78
70
F8
FC
FC
FC
FC
78
ENDCHAR
STARTCHAR gravecmb.cap
ENCODING -1
SWIDTH 0 0
DWIDTH 0 0
BBX 11 9 -5 35
BITMAP
F000
F800
FC00
FE00
7F00
1F80
07C0
01E0
0040
ENDCHAR
STARTCHAR acutecmb.cap
ENCODING -1
SWIDTH 0 0
DWIDTH 0 0
BBX 12 9 -6 35
BITMAP
00E0
03E0
07F0
0FE0
1FC0
3F80
7E00
F800
6000
ENDCHAR
STARTCHAR circumflexcmb.cap
ENCODING -1
SWIDTH 0 0
DWIDTH 0 0
BBX 16 8 -8 35
BITMAP
03C0
07E0
0FF0
1FF8
3E7C
7C3E
F00F
C003
ENDCHAR
STARTCHAR tildecmb.cap
ENCODING -1
SWIDTH 0 0
DWIDTH 0 0
BBX 16 8 -8 35
BITMAP
1C00
7F03
FF83
FFE7
E7FF
C3FF
C1FE
007C
ENDCHAR
STARTCHAR macroncmb.cap
ENCODING -1
SWIDTH 0 0
DWIDTH 0 0
BBX 16 4 -8 37
BITMAP
FFFF
FFFF
FFFF
FFFF
ENDCHAR
STARTCHAR brevecmb.cap
ENCODING -1
SWIDTH 0 0
DWIDTH 0 0
BBX 16 8 -8 36
BITMAP
4002
E007
F00F
7C3E
7FFE
3FFC
1FF8
07E0
ENDCHAR
STARTCHAR dotaccentcmb.cap
ENCODING -1
SWIDTH 0 0
DWIDTH 0 0
BBX 8 8 -4 36
BITMAP
3C
7E
FF
FF
FF
FF
7E
3C
ENDCHAR
STARTCHAR dieresiscmb.cap
ENCODING -1
SWIDTH 0 0
DWIDTH 0 0
BBX 20 6 -10 36
BITMAP
3C03C0
7E07E0
FE07E0
FE07F0
7E07E0
3C03C0
ENDCHAR
STARTCHAR ringcmb.cap
ENCODING -1
SWIDTH 0 0
DWIDTH 0 0
BBX 10 10 -5 35
BITMAP
1E00
7F80
E1C0
E1C0
C0C0
C0C0
E1C0
E1C0
7F80
3E00
ENDCHAR
STARTCHAR hungarumlautcmb.cap
ENCODING -1
SWIDTH 0 0
DWIDTH 0 0
BBX 16 10 -8 35
BITMAP
0E0E
1F1F
1F1F
1E3E
3E3C
3C7C
7878
7070
E0E0
4040
ENDCHAR
STARTCHAR caroncmb.cap
ENCODING -1
SWIDTH 0 0
DWIDTH 0 0
BBX 14 8 -7 35
BITMAP
C00C
F03C
7878
7CF8
3FF0
1FE0
0FC0
0780
ENDCHAR
ENDFONT
